%TF.GenerationSoftware,KiCad,Pcbnew,7.0.9*%
%TF.CreationDate,2024-01-09T15:11:13+08:00*%
%TF.ProjectId,UINIO-USB-Serial,55494e49-4f2d-4555-9342-2d5365726961,Version 1.0.0*%
%TF.SameCoordinates,PX7ba4d50PY51e45b0*%
%TF.FileFunction,Paste,Top*%
%TF.FilePolarity,Positive*%
%FSLAX46Y46*%
G04 Gerber Fmt 4.6, Leading zero omitted, Abs format (unit mm)*
G04 Created by KiCad (PCBNEW 7.0.9) date 2024-01-09 15:11:13*
%MOMM*%
%LPD*%
G01*
G04 APERTURE LIST*
G04 Aperture macros list*
%AMRoundRect*
0 Rectangle with rounded corners*
0 $1 Rounding radius*
0 $2 $3 $4 $5 $6 $7 $8 $9 X,Y pos of 4 corners*
0 Add a 4 corners polygon primitive as box body*
4,1,4,$2,$3,$4,$5,$6,$7,$8,$9,$2,$3,0*
0 Add four circle primitives for the rounded corners*
1,1,$1+$1,$2,$3*
1,1,$1+$1,$4,$5*
1,1,$1+$1,$6,$7*
1,1,$1+$1,$8,$9*
0 Add four rect primitives between the rounded corners*
20,1,$1+$1,$2,$3,$4,$5,0*
20,1,$1+$1,$4,$5,$6,$7,0*
20,1,$1+$1,$6,$7,$8,$9,0*
20,1,$1+$1,$8,$9,$2,$3,0*%
G04 Aperture macros list end*
%ADD10C,0.120000*%
%ADD11RoundRect,0.135000X0.135000X0.185000X-0.135000X0.185000X-0.135000X-0.185000X0.135000X-0.185000X0*%
%ADD12RoundRect,0.225000X0.250000X-0.225000X0.250000X0.225000X-0.250000X0.225000X-0.250000X-0.225000X0*%
%ADD13R,1.000000X0.600000*%
%ADD14RoundRect,0.140000X-0.170000X0.140000X-0.170000X-0.140000X0.170000X-0.140000X0.170000X0.140000X0*%
%ADD15R,1.150000X0.600000*%
%ADD16R,1.150000X0.300000*%
%ADD17O,0.364000X1.742000*%
%ADD18RoundRect,0.218750X0.218750X0.256250X-0.218750X0.256250X-0.218750X-0.256250X0.218750X-0.256250X0*%
%ADD19RoundRect,0.218750X-0.256250X0.218750X-0.256250X-0.218750X0.256250X-0.218750X0.256250X0.218750X0*%
%ADD20RoundRect,0.135000X-0.135000X-0.185000X0.135000X-0.185000X0.135000X0.185000X-0.135000X0.185000X0*%
%ADD21RoundRect,0.140000X-0.140000X-0.170000X0.140000X-0.170000X0.140000X0.170000X-0.140000X0.170000X0*%
%ADD22RoundRect,0.200000X0.275000X-0.200000X0.275000X0.200000X-0.275000X0.200000X-0.275000X-0.200000X0*%
%ADD23RoundRect,0.140000X0.170000X-0.140000X0.170000X0.140000X-0.170000X0.140000X-0.170000X-0.140000X0*%
%ADD24RoundRect,0.135000X-0.185000X0.135000X-0.185000X-0.135000X0.185000X-0.135000X0.185000X0.135000X0*%
%ADD25R,1.200000X1.400000*%
%ADD26RoundRect,0.135000X0.185000X-0.135000X0.185000X0.135000X-0.185000X0.135000X-0.185000X-0.135000X0*%
G04 APERTURE END LIST*
%TO.C,USB1*%
D10*
X4517000Y-11170000D02*
X3367000Y-11170000D01*
X3367000Y-10570000D01*
X4517000Y-10570000D01*
X4517000Y-11170000D01*
G36*
X4517000Y-11170000D02*
G01*
X3367000Y-11170000D01*
X3367000Y-10570000D01*
X4517000Y-10570000D01*
X4517000Y-11170000D01*
G37*
X4517000Y-11970000D02*
X3367000Y-11970000D01*
X3367000Y-11370000D01*
X4517000Y-11370000D01*
X4517000Y-11970000D01*
G36*
X4517000Y-11970000D02*
G01*
X3367000Y-11970000D01*
X3367000Y-11370000D01*
X4517000Y-11370000D01*
X4517000Y-11970000D01*
G37*
X4517000Y-12470000D02*
X3367000Y-12470000D01*
X3367000Y-12170000D01*
X4517000Y-12170000D01*
X4517000Y-12470000D01*
G36*
X4517000Y-12470000D02*
G01*
X3367000Y-12470000D01*
X3367000Y-12170000D01*
X4517000Y-12170000D01*
X4517000Y-12470000D01*
G37*
X4517000Y-12970000D02*
X3367000Y-12970000D01*
X3367000Y-12670000D01*
X4517000Y-12670000D01*
X4517000Y-12970000D01*
G36*
X4517000Y-12970000D02*
G01*
X3367000Y-12970000D01*
X3367000Y-12670000D01*
X4517000Y-12670000D01*
X4517000Y-12970000D01*
G37*
X4517000Y-13470000D02*
X3367000Y-13470000D01*
X3367000Y-13170000D01*
X4517000Y-13170000D01*
X4517000Y-13470000D01*
G36*
X4517000Y-13470000D02*
G01*
X3367000Y-13470000D01*
X3367000Y-13170000D01*
X4517000Y-13170000D01*
X4517000Y-13470000D01*
G37*
X4517000Y-13970000D02*
X3367000Y-13970000D01*
X3367000Y-13670000D01*
X4517000Y-13670000D01*
X4517000Y-13970000D01*
G36*
X4517000Y-13970000D02*
G01*
X3367000Y-13970000D01*
X3367000Y-13670000D01*
X4517000Y-13670000D01*
X4517000Y-13970000D01*
G37*
X4517000Y-14470000D02*
X3367000Y-14470000D01*
X3367000Y-14170000D01*
X4517000Y-14170000D01*
X4517000Y-14470000D01*
G36*
X4517000Y-14470000D02*
G01*
X3367000Y-14470000D01*
X3367000Y-14170000D01*
X4517000Y-14170000D01*
X4517000Y-14470000D01*
G37*
X4517000Y-14970000D02*
X3367000Y-14970000D01*
X3367000Y-14670000D01*
X4517000Y-14670000D01*
X4517000Y-14970000D01*
G36*
X4517000Y-14970000D02*
G01*
X3367000Y-14970000D01*
X3367000Y-14670000D01*
X4517000Y-14670000D01*
X4517000Y-14970000D01*
G37*
X4517000Y-15470000D02*
X3367000Y-15470000D01*
X3367000Y-15170000D01*
X4517000Y-15170000D01*
X4517000Y-15470000D01*
G36*
X4517000Y-15470000D02*
G01*
X3367000Y-15470000D01*
X3367000Y-15170000D01*
X4517000Y-15170000D01*
X4517000Y-15470000D01*
G37*
X4517000Y-15970000D02*
X3367000Y-15970000D01*
X3367000Y-15670000D01*
X4517000Y-15670000D01*
X4517000Y-15970000D01*
G36*
X4517000Y-15970000D02*
G01*
X3367000Y-15970000D01*
X3367000Y-15670000D01*
X4517000Y-15670000D01*
X4517000Y-15970000D01*
G37*
X4517000Y-16770000D02*
X3367000Y-16770000D01*
X3367000Y-16170000D01*
X4517000Y-16170000D01*
X4517000Y-16770000D01*
G36*
X4517000Y-16770000D02*
G01*
X3367000Y-16770000D01*
X3367000Y-16170000D01*
X4517000Y-16170000D01*
X4517000Y-16770000D01*
G37*
X4517000Y-17570000D02*
X3367000Y-17570000D01*
X3367000Y-16970000D01*
X4517000Y-16970000D01*
X4517000Y-17570000D01*
G36*
X4517000Y-17570000D02*
G01*
X3367000Y-17570000D01*
X3367000Y-16970000D01*
X4517000Y-16970000D01*
X4517000Y-17570000D01*
G37*
X3827000Y-9255000D02*
X3921000Y-9283000D01*
X4007000Y-9329000D01*
X4083000Y-9391000D01*
X4145000Y-9467000D01*
X4192000Y-9554000D01*
X4220000Y-9647000D01*
X4230000Y-9745000D01*
X4220000Y-9843000D01*
X4192000Y-9936000D01*
X4145000Y-10023000D01*
X4083000Y-10099000D01*
X4007000Y-10161000D01*
X3921000Y-10207000D01*
X3827000Y-10235000D01*
X3730000Y-10245000D01*
X2630000Y-10245000D01*
X2532000Y-10235000D01*
X2438000Y-10207000D01*
X2352000Y-10161000D01*
X2276000Y-10099000D01*
X2214000Y-10023000D01*
X2168000Y-9936000D01*
X2139000Y-9843000D01*
X2130000Y-9745000D01*
X2139000Y-9647000D01*
X2168000Y-9554000D01*
X2214000Y-9467000D01*
X2276000Y-9391000D01*
X2352000Y-9329000D01*
X2438000Y-9283000D01*
X2532000Y-9255000D01*
X2630000Y-9245000D01*
X3730000Y-9245000D01*
X3827000Y-9255000D01*
G36*
X3827000Y-9255000D02*
G01*
X3921000Y-9283000D01*
X4007000Y-9329000D01*
X4083000Y-9391000D01*
X4145000Y-9467000D01*
X4192000Y-9554000D01*
X4220000Y-9647000D01*
X4230000Y-9745000D01*
X4220000Y-9843000D01*
X4192000Y-9936000D01*
X4145000Y-10023000D01*
X4083000Y-10099000D01*
X4007000Y-10161000D01*
X3921000Y-10207000D01*
X3827000Y-10235000D01*
X3730000Y-10245000D01*
X2630000Y-10245000D01*
X2532000Y-10235000D01*
X2438000Y-10207000D01*
X2352000Y-10161000D01*
X2276000Y-10099000D01*
X2214000Y-10023000D01*
X2168000Y-9936000D01*
X2139000Y-9843000D01*
X2130000Y-9745000D01*
X2139000Y-9647000D01*
X2168000Y-9554000D01*
X2214000Y-9467000D01*
X2276000Y-9391000D01*
X2352000Y-9329000D01*
X2438000Y-9283000D01*
X2532000Y-9255000D01*
X2630000Y-9245000D01*
X3730000Y-9245000D01*
X3827000Y-9255000D01*
G37*
X-473000Y-9255000D02*
X-379000Y-9283000D01*
X-293000Y-9329000D01*
X-217000Y-9391000D01*
X-155000Y-9467000D01*
X-108000Y-9554000D01*
X-80000Y-9647000D01*
X-70000Y-9745000D01*
X-80000Y-9843000D01*
X-108000Y-9936000D01*
X-155000Y-10023000D01*
X-217000Y-10099000D01*
X-293000Y-10161000D01*
X-379000Y-10207000D01*
X-473000Y-10235000D01*
X-570000Y-10245000D01*
X-1470000Y-10245000D01*
X-1568000Y-10235000D01*
X-1662000Y-10207000D01*
X-1748000Y-10161000D01*
X-1824000Y-10099000D01*
X-1886000Y-10023000D01*
X-1932000Y-9936000D01*
X-1961000Y-9843000D01*
X-1970000Y-9745000D01*
X-1961000Y-9647000D01*
X-1932000Y-9554000D01*
X-1886000Y-9467000D01*
X-1824000Y-9391000D01*
X-1748000Y-9329000D01*
X-1662000Y-9283000D01*
X-1568000Y-9255000D01*
X-1470000Y-9245000D01*
X-570000Y-9245000D01*
X-473000Y-9255000D01*
G36*
X-473000Y-9255000D02*
G01*
X-379000Y-9283000D01*
X-293000Y-9329000D01*
X-217000Y-9391000D01*
X-155000Y-9467000D01*
X-108000Y-9554000D01*
X-80000Y-9647000D01*
X-70000Y-9745000D01*
X-80000Y-9843000D01*
X-108000Y-9936000D01*
X-155000Y-10023000D01*
X-217000Y-10099000D01*
X-293000Y-10161000D01*
X-379000Y-10207000D01*
X-473000Y-10235000D01*
X-570000Y-10245000D01*
X-1470000Y-10245000D01*
X-1568000Y-10235000D01*
X-1662000Y-10207000D01*
X-1748000Y-10161000D01*
X-1824000Y-10099000D01*
X-1886000Y-10023000D01*
X-1932000Y-9936000D01*
X-1961000Y-9843000D01*
X-1970000Y-9745000D01*
X-1961000Y-9647000D01*
X-1932000Y-9554000D01*
X-1886000Y-9467000D01*
X-1824000Y-9391000D01*
X-1748000Y-9329000D01*
X-1662000Y-9283000D01*
X-1568000Y-9255000D01*
X-1470000Y-9245000D01*
X-570000Y-9245000D01*
X-473000Y-9255000D01*
G37*
X3827000Y-17905000D02*
X3921000Y-17933000D01*
X4007000Y-17979000D01*
X4083000Y-18041000D01*
X4145000Y-18117000D01*
X4192000Y-18204000D01*
X4220000Y-18297000D01*
X4230000Y-18395000D01*
X4220000Y-18493000D01*
X4192000Y-18586000D01*
X4145000Y-18673000D01*
X4083000Y-18749000D01*
X4007000Y-18811000D01*
X3921000Y-18857000D01*
X3827000Y-18885000D01*
X3730000Y-18895000D01*
X2630000Y-18895000D01*
X2532000Y-18885000D01*
X2438000Y-18857000D01*
X2352000Y-18811000D01*
X2276000Y-18749000D01*
X2214000Y-18673000D01*
X2168000Y-18586000D01*
X2139000Y-18493000D01*
X2130000Y-18395000D01*
X2139000Y-18297000D01*
X2168000Y-18204000D01*
X2214000Y-18117000D01*
X2276000Y-18041000D01*
X2352000Y-17979000D01*
X2438000Y-17933000D01*
X2532000Y-17905000D01*
X2630000Y-17895000D01*
X3730000Y-17895000D01*
X3827000Y-17905000D01*
G36*
X3827000Y-17905000D02*
G01*
X3921000Y-17933000D01*
X4007000Y-17979000D01*
X4083000Y-18041000D01*
X4145000Y-18117000D01*
X4192000Y-18204000D01*
X4220000Y-18297000D01*
X4230000Y-18395000D01*
X4220000Y-18493000D01*
X4192000Y-18586000D01*
X4145000Y-18673000D01*
X4083000Y-18749000D01*
X4007000Y-18811000D01*
X3921000Y-18857000D01*
X3827000Y-18885000D01*
X3730000Y-18895000D01*
X2630000Y-18895000D01*
X2532000Y-18885000D01*
X2438000Y-18857000D01*
X2352000Y-18811000D01*
X2276000Y-18749000D01*
X2214000Y-18673000D01*
X2168000Y-18586000D01*
X2139000Y-18493000D01*
X2130000Y-18395000D01*
X2139000Y-18297000D01*
X2168000Y-18204000D01*
X2214000Y-18117000D01*
X2276000Y-18041000D01*
X2352000Y-17979000D01*
X2438000Y-17933000D01*
X2532000Y-17905000D01*
X2630000Y-17895000D01*
X3730000Y-17895000D01*
X3827000Y-17905000D01*
G37*
X-473000Y-17905000D02*
X-379000Y-17933000D01*
X-293000Y-17979000D01*
X-217000Y-18041000D01*
X-155000Y-18117000D01*
X-108000Y-18204000D01*
X-80000Y-18297000D01*
X-70000Y-18395000D01*
X-80000Y-18493000D01*
X-108000Y-18586000D01*
X-155000Y-18673000D01*
X-217000Y-18749000D01*
X-293000Y-18811000D01*
X-379000Y-18857000D01*
X-473000Y-18885000D01*
X-570000Y-18895000D01*
X-1470000Y-18895000D01*
X-1568000Y-18885000D01*
X-1662000Y-18857000D01*
X-1748000Y-18811000D01*
X-1824000Y-18749000D01*
X-1886000Y-18673000D01*
X-1932000Y-18586000D01*
X-1961000Y-18493000D01*
X-1970000Y-18395000D01*
X-1961000Y-18297000D01*
X-1932000Y-18204000D01*
X-1886000Y-18117000D01*
X-1824000Y-18041000D01*
X-1748000Y-17979000D01*
X-1662000Y-17933000D01*
X-1568000Y-17905000D01*
X-1470000Y-17895000D01*
X-570000Y-17895000D01*
X-473000Y-17905000D01*
G36*
X-473000Y-17905000D02*
G01*
X-379000Y-17933000D01*
X-293000Y-17979000D01*
X-217000Y-18041000D01*
X-155000Y-18117000D01*
X-108000Y-18204000D01*
X-80000Y-18297000D01*
X-70000Y-18395000D01*
X-80000Y-18493000D01*
X-108000Y-18586000D01*
X-155000Y-18673000D01*
X-217000Y-18749000D01*
X-293000Y-18811000D01*
X-379000Y-18857000D01*
X-473000Y-18885000D01*
X-570000Y-18895000D01*
X-1470000Y-18895000D01*
X-1568000Y-18885000D01*
X-1662000Y-18857000D01*
X-1748000Y-18811000D01*
X-1824000Y-18749000D01*
X-1886000Y-18673000D01*
X-1932000Y-18586000D01*
X-1961000Y-18493000D01*
X-1970000Y-18395000D01*
X-1961000Y-18297000D01*
X-1932000Y-18204000D01*
X-1886000Y-18117000D01*
X-1824000Y-18041000D01*
X-1748000Y-17979000D01*
X-1662000Y-17933000D01*
X-1568000Y-17905000D01*
X-1470000Y-17895000D01*
X-570000Y-17895000D01*
X-473000Y-17905000D01*
G37*
%TD*%
D11*
%TO.C,R8*%
X37780000Y-17195000D03*
X36760000Y-17195000D03*
%TD*%
D12*
%TO.C,C5*%
X11855000Y-19190000D03*
X11855000Y-17640000D03*
%TD*%
D13*
%TO.C,U2*%
X13340000Y-17579000D03*
X13340000Y-18529000D03*
X13340000Y-19479000D03*
X15940000Y-19479000D03*
X15940000Y-17579000D03*
%TD*%
D14*
%TO.C,C4*%
X31000000Y-5110000D03*
X31000000Y-6070000D03*
%TD*%
D15*
%TO.C,USB1*%
X3942000Y-10870000D03*
X3942000Y-11670000D03*
D16*
X3942000Y-12820000D03*
X3942000Y-13820000D03*
X3942000Y-14320000D03*
X3942000Y-15320000D03*
D15*
X3942000Y-17270000D03*
X3942000Y-16470000D03*
D16*
X3942000Y-15820000D03*
X3942000Y-14820000D03*
X3942000Y-13320000D03*
X3942000Y-12320000D03*
%TD*%
D11*
%TO.C,R9*%
X37780000Y-18680000D03*
X36760000Y-18680000D03*
%TD*%
D17*
%TO.C,U1*%
X25536833Y-16862000D03*
X26186833Y-16862000D03*
X26836833Y-16862000D03*
X27486833Y-16862000D03*
X28136833Y-16862000D03*
X28786833Y-16862000D03*
X29436833Y-16862000D03*
X30086833Y-16862000D03*
X30736833Y-16862000D03*
X31386833Y-16862000D03*
X31386833Y-11120000D03*
X30736833Y-11120000D03*
X30086833Y-11120000D03*
X29436833Y-11120000D03*
X28786833Y-11120000D03*
X28136833Y-11120000D03*
X27486833Y-11120000D03*
X26836833Y-11120000D03*
X26186833Y-11120000D03*
X25536833Y-11120000D03*
%TD*%
D18*
%TO.C,D1*%
X37507500Y-15410000D03*
X35932500Y-15410000D03*
%TD*%
D14*
%TO.C,C1*%
X25530000Y-20090000D03*
X25530000Y-21050000D03*
%TD*%
D11*
%TO.C,R4*%
X37780000Y-13625000D03*
X36760000Y-13625000D03*
%TD*%
D19*
%TO.C,D2*%
X15748332Y-9320000D03*
X15748332Y-10895000D03*
%TD*%
D20*
%TO.C,R6*%
X36760000Y-12140000D03*
X37780000Y-12140000D03*
%TD*%
D21*
%TO.C,C3*%
X36810000Y-9180000D03*
X37770000Y-9180000D03*
%TD*%
D12*
%TO.C,C6*%
X17425000Y-19190000D03*
X17425000Y-17640000D03*
%TD*%
D20*
%TO.C,R7*%
X36760000Y-10655000D03*
X37780000Y-10655000D03*
%TD*%
D22*
%TO.C,R3*%
X13806666Y-10932500D03*
X13806666Y-9282500D03*
%TD*%
D23*
%TO.C,C2*%
X25880000Y-6070000D03*
X25880000Y-5110000D03*
%TD*%
D24*
%TO.C,R5*%
X17430000Y-9577500D03*
X17430000Y-10597500D03*
%TD*%
D25*
%TO.C,Y1*%
X27590000Y-5180000D03*
X27590000Y-7380000D03*
X29290000Y-7380000D03*
X29290000Y-5180000D03*
%TD*%
D22*
%TO.C,R2*%
X11905000Y-10932500D03*
X11905000Y-9282500D03*
%TD*%
D26*
%TO.C,R1*%
X27120000Y-21090000D03*
X27120000Y-20070000D03*
%TD*%
M02*
