%TF.GenerationSoftware,KiCad,Pcbnew,7.0.9*%
%TF.CreationDate,2024-01-08T11:19:50+08:00*%
%TF.ProjectId,UINIO-USB-Serial,55494e49-4f2d-4555-9342-2d5365726961,Version 1.0.0*%
%TF.SameCoordinates,PX7ba4d50PY51e45b0*%
%TF.FileFunction,Copper,L2,Bot*%
%TF.FilePolarity,Positive*%
%FSLAX46Y46*%
G04 Gerber Fmt 4.6, Leading zero omitted, Abs format (unit mm)*
G04 Created by KiCad (PCBNEW 7.0.9) date 2024-01-08 11:19:50*
%MOMM*%
%LPD*%
G01*
G04 APERTURE LIST*
%TA.AperFunction,ComponentPad*%
%ADD10R,1.700000X1.700000*%
%TD*%
%TA.AperFunction,ComponentPad*%
%ADD11O,1.700000X1.700000*%
%TD*%
%TA.AperFunction,ComponentPad*%
%ADD12C,1.200000*%
%TD*%
%TA.AperFunction,ComponentPad*%
%ADD13O,2.100000X1.000000*%
%TD*%
%TA.AperFunction,ComponentPad*%
%ADD14O,1.900000X1.000000*%
%TD*%
%TA.AperFunction,ViaPad*%
%ADD15C,0.500000*%
%TD*%
%TA.AperFunction,ViaPad*%
%ADD16C,0.700000*%
%TD*%
%TA.AperFunction,ViaPad*%
%ADD17C,0.900000*%
%TD*%
%TA.AperFunction,Conductor*%
%ADD18C,0.300000*%
%TD*%
%TA.AperFunction,Conductor*%
%ADD19C,0.500000*%
%TD*%
%TA.AperFunction,Conductor*%
%ADD20C,0.200000*%
%TD*%
G04 APERTURE END LIST*
D10*
%TO.P,J2,1,Pin_1*%
%TO.N,GND*%
X490000Y-1350000D03*
D11*
%TO.P,J2,2,Pin_2*%
%TO.N,/DTR0{slash}IO5*%
X3030000Y-1350000D03*
%TO.P,J2,3,Pin_3*%
%TO.N,/JTAG_TDI*%
X5570000Y-1350000D03*
%TO.P,J2,4,Pin_4*%
%TO.N,/JTAG_TDO*%
X8110000Y-1350000D03*
%TO.P,J2,5,Pin_5*%
%TO.N,/CTS0{slash}SCK{slash}TCK*%
X10650000Y-1350000D03*
%TO.P,J2,6,Pin_6*%
%TO.N,/DSR0{slash}CS0{slash}TMS*%
X13190000Y-1350000D03*
%TO.P,J2,7,Pin_7*%
%TO.N,/DCD0{slash}IO4*%
X15730000Y-1350000D03*
%TO.P,J2,8,Pin_8*%
%TO.N,/I2C_SDA*%
X18270000Y-1350000D03*
%TO.P,J2,9,Pin_9*%
%TO.N,/I2C_SCL*%
X20810000Y-1350000D03*
%TO.P,J2,10,Pin_10*%
%TO.N,/VDD_3.3V*%
X23350000Y-1350000D03*
%TD*%
D10*
%TO.P,J6,1,Pin_1*%
%TO.N,Net-(J6-Pin_1)*%
X47559730Y-11545000D03*
D11*
%TO.P,J6,2,Pin_2*%
%TO.N,/DTR1*%
X47559730Y-14085000D03*
%TO.P,J6,3,Pin_3*%
%TO.N,Net-(J6-Pin_3)*%
X47559730Y-16625000D03*
%TD*%
D12*
%TO.P,HOLE\u002A\u002A,*%
%TO.N,*%
X-1100000Y-6930000D03*
%TD*%
D10*
%TO.P,J3,1,Pin_1*%
%TO.N,/VDD_3.3V*%
X28415000Y-26750000D03*
D11*
%TO.P,J3,2,Pin_2*%
%TO.N,/I2C_SCL*%
X25875000Y-26750000D03*
%TO.P,J3,3,Pin_3*%
%TO.N,/I2C_SDA*%
X23335000Y-26750000D03*
%TO.P,J3,4,Pin_4*%
%TO.N,GND*%
X20795000Y-26750000D03*
%TD*%
D10*
%TO.P,J7,1,Pin_1*%
%TO.N,GND*%
X15740000Y-26750000D03*
D11*
%TO.P,J7,2,Pin_2*%
%TO.N,/DSR0{slash}CS0{slash}TMS*%
X13200000Y-26750000D03*
%TO.P,J7,3,Pin_3*%
%TO.N,/CTS0{slash}SCK{slash}TCK*%
X10660000Y-26750000D03*
%TO.P,J7,4,Pin_4*%
%TO.N,/JTAG_TDO*%
X8120000Y-26750000D03*
%TO.P,J7,5,Pin_5*%
%TO.N,/JTAG_TDI*%
X5580000Y-26750000D03*
%TO.P,J7,6,Pin_6*%
%TO.N,/DTR0{slash}IO5*%
X3040000Y-26750000D03*
%TO.P,J7,7,Pin_7*%
%TO.N,/VDD_3.3V*%
X500000Y-26750000D03*
%TD*%
D10*
%TO.P,J4,1,Pin_1*%
%TO.N,GND*%
X33490000Y-1350000D03*
D11*
%TO.P,J4,2,Pin_2*%
%TO.N,/RTS1{slash}IO7*%
X36030000Y-1350000D03*
%TO.P,J4,3,Pin_3*%
%TO.N,/CTS1{slash}IO6*%
X38570000Y-1350000D03*
%TO.P,J4,4,Pin_4*%
%TO.N,/TXD1*%
X41110000Y-1350000D03*
%TO.P,J4,5,Pin_5*%
%TO.N,/RXD1*%
X43650000Y-1350000D03*
%TO.P,J4,6,Pin_6*%
%TO.N,/DTR1*%
X46190000Y-1350000D03*
%TO.P,J4,7,Pin_7*%
%TO.N,/VDD_3.3V*%
X48730000Y-1350000D03*
%TD*%
D13*
%TO.P,USB1,13,GND*%
%TO.N,GND*%
X3180000Y-9745000D03*
%TO.P,USB1,14,GND*%
X3180000Y-18395000D03*
D14*
%TO.P,USB1,15,GND*%
X-1020000Y-9745000D03*
%TO.P,USB1,16,GND*%
X-1020000Y-18395000D03*
%TD*%
D10*
%TO.P,J1,1,Pin_1*%
%TO.N,GND*%
X33490000Y-26750000D03*
D11*
%TO.P,J1,2,Pin_2*%
%TO.N,/DSR0{slash}CS0{slash}TMS*%
X36030000Y-26750000D03*
%TO.P,J1,3,Pin_3*%
%TO.N,/CTS0{slash}SCK{slash}TCK*%
X38570000Y-26750000D03*
%TO.P,J1,4,Pin_4*%
%TO.N,/JTAG_TDO*%
X41110000Y-26750000D03*
%TO.P,J1,5,Pin_5*%
%TO.N,/JTAG_TDI*%
X43650000Y-26750000D03*
%TO.P,J1,6,Pin_6*%
%TO.N,/DTR0{slash}IO5*%
X46190000Y-26750000D03*
%TO.P,J1,7,Pin_7*%
%TO.N,/VDD_3.3V*%
X48730000Y-26750000D03*
%TD*%
D10*
%TO.P,J5,1,Pin_1*%
%TO.N,Net-(J5-Pin_1)*%
X44200000Y-11545000D03*
D11*
%TO.P,J5,2,Pin_2*%
%TO.N,/RTS1{slash}IO7*%
X44200000Y-14085000D03*
%TO.P,J5,3,Pin_3*%
%TO.N,Net-(J5-Pin_3)*%
X44200000Y-16625000D03*
%TD*%
D12*
%TO.P,HOLE\u002A\u002A,*%
%TO.N,*%
X50460000Y-21230000D03*
%TD*%
%TO.P,HOLE\u002A\u002A,*%
%TO.N,*%
X50460000Y-6930000D03*
%TD*%
%TO.P,HOLE\u002A\u002A,*%
%TO.N,*%
X-1090000Y-21230000D03*
%TD*%
%TO.P,HOLE\u002A\u002A,*%
%TO.N,*%
X28415000Y-1350000D03*
%TD*%
D15*
%TO.N,GND*%
X43820000Y-6230000D03*
X23630000Y-5440000D03*
X10260000Y-15100000D03*
X14660000Y-15830000D03*
X35550000Y-19720000D03*
X40790000Y-10620000D03*
X10260000Y-13340000D03*
X43650000Y-21120000D03*
D16*
X35400000Y-9910000D03*
D15*
X25070000Y-3720000D03*
X8180000Y-25120000D03*
X40410000Y-25120000D03*
D16*
X37890000Y-7430000D03*
D15*
X42940000Y-3020000D03*
X40790000Y-17980000D03*
X10680000Y-25120000D03*
X25070000Y-6910000D03*
X23630000Y-7960000D03*
X25070000Y-9450000D03*
X36850000Y-3020000D03*
X14460000Y-2960000D03*
X50480000Y-10200000D03*
D16*
X27100000Y-22920000D03*
X26830000Y-8630000D03*
D15*
X22910000Y-11990000D03*
X35010000Y-14650000D03*
X37380000Y-25120000D03*
X38540000Y-3020000D03*
X50480000Y-17890000D03*
X13230000Y-25120000D03*
X11920000Y-2960000D03*
X37780000Y-12810000D03*
X42950000Y-25120000D03*
X5630000Y-25120000D03*
X45490000Y-25120000D03*
D16*
X23630000Y-3070000D03*
D15*
X32310000Y-11330000D03*
X9380000Y-2960000D03*
X40410000Y-3020000D03*
D16*
%TO.N,/VDD_3.3V*%
X24540000Y-12000000D03*
X28400000Y-21110000D03*
X29430000Y-13660000D03*
X18290000Y-17640000D03*
X36760000Y-21120000D03*
D17*
%TO.N,/VDD_5V*%
X5580000Y-11670000D03*
X5580000Y-16470000D03*
D15*
%TO.N,/DCD0{slash}IO4*%
X28786833Y-12783167D03*
%TO.N,/CTS0{slash}SCK{slash}TCK*%
X22362500Y-16690000D03*
%TO.N,/JTAG_TDI*%
X20707500Y-16690000D03*
%TO.N,/I2C_SDA*%
X30730000Y-13660000D03*
%TO.N,/JTAG_TDO*%
X21535000Y-16690000D03*
%TO.N,/DTR0{slash}IO5*%
X19880000Y-16690000D03*
%TO.N,/DSR0{slash}CS0{slash}TMS*%
X23190000Y-16690000D03*
%TO.N,/I2C_SCL*%
X31370000Y-14360000D03*
%TO.N,/CTS1{slash}IO6*%
X28300000Y-20070000D03*
%TO.N,/TXD1*%
X29040000Y-20070000D03*
%TO.N,/RXD1*%
X29810000Y-20070000D03*
%TO.N,/RTS1{slash}IO7*%
X31400000Y-9679500D03*
%TO.N,/DTR1*%
X34360000Y-16840000D03*
%TO.N,Net-(J5-Pin_1)*%
X35550000Y-12130000D03*
%TO.N,Net-(J6-Pin_1)*%
X35540000Y-11350000D03*
%TO.N,Net-(USB1-CC2)*%
X11830000Y-12820000D03*
X11830000Y-15820000D03*
%TO.N,/USB_Data+*%
X3060000Y-14820000D03*
X3060000Y-13820000D03*
%TD*%
D18*
%TO.N,GND*%
X35410000Y-9910000D02*
X35400000Y-9910000D01*
X37890000Y-7430000D02*
X35410000Y-9910000D01*
%TO.N,/VDD_3.3V*%
X36750000Y-21110000D02*
X36760000Y-21120000D01*
X25540000Y-17640000D02*
X29430000Y-13750000D01*
X28400000Y-21110000D02*
X28415000Y-21125000D01*
X24182893Y-17640000D02*
X24480000Y-17640000D01*
X48730000Y-1350000D02*
X48730000Y-26750000D01*
X17530000Y-17640000D02*
X9610000Y-17640000D01*
X28400000Y-21110000D02*
X36750000Y-21110000D01*
X9610000Y-17640000D02*
X500000Y-26750000D01*
X29430000Y-13750000D02*
X29430000Y-13660000D01*
X28415000Y-21125000D02*
X28415000Y-26750000D01*
X24480000Y-17640000D02*
X24540000Y-17580000D01*
X24540000Y-17580000D02*
X24540000Y-12000000D01*
X24182893Y-17640000D02*
X25540000Y-17640000D01*
X18290000Y-17640000D02*
X17530000Y-17640000D01*
X18290000Y-17640000D02*
X24182893Y-17640000D01*
D19*
%TO.N,/VDD_5V*%
X5580000Y-11670000D02*
X5580000Y-16470000D01*
D20*
%TO.N,/DCD0{slash}IO4*%
X28786833Y-12783167D02*
X27183167Y-12783167D01*
X27183167Y-12783167D02*
X15750000Y-1350000D01*
%TO.N,/CTS0{slash}SCK{slash}TCK*%
X22362500Y-16690000D02*
X10650000Y-4977500D01*
X10650000Y-4977500D02*
X10650000Y-1350000D01*
%TO.N,/JTAG_TDI*%
X20707500Y-16690000D02*
X20693603Y-16690000D01*
X20693603Y-16690000D02*
X5570000Y-1566397D01*
%TO.N,/I2C_SDA*%
X30730000Y-13660000D02*
X18420000Y-1350000D01*
X30730000Y-13660000D02*
X24410000Y-19980000D01*
X24410000Y-19980000D02*
X24410000Y-25670000D01*
X24410000Y-25670000D02*
X23335000Y-26745000D01*
%TO.N,/JTAG_TDO*%
X21535000Y-16690000D02*
X8110000Y-3265000D01*
X8110000Y-3265000D02*
X8110000Y-1350000D01*
%TO.N,/DTR0{slash}IO5*%
X6080000Y-2850000D02*
X4530000Y-2850000D01*
X19880000Y-16650000D02*
X6080000Y-2850000D01*
X19880000Y-16690000D02*
X19880000Y-16650000D01*
X4530000Y-2850000D02*
X3030000Y-1350000D01*
%TO.N,/DSR0{slash}CS0{slash}TMS*%
X23190000Y-16690000D02*
X13190000Y-6690000D01*
X13190000Y-6690000D02*
X13190000Y-1350000D01*
%TO.N,/I2C_SCL*%
X31370000Y-14360000D02*
X31370000Y-11910000D01*
X31370000Y-14360000D02*
X31340000Y-14360000D01*
X24880000Y-25670000D02*
X25875000Y-26665000D01*
X31370000Y-11910000D02*
X20810000Y-1350000D01*
X31340000Y-14360000D02*
X24880000Y-20820000D01*
X24880000Y-20820000D02*
X24880000Y-25670000D01*
%TO.N,/CTS1{slash}IO6*%
X28300000Y-20070000D02*
X28310000Y-20070000D01*
X28310000Y-20070000D02*
X32940000Y-15440000D01*
X37550000Y-4230000D02*
X37550000Y-2370000D01*
X32940000Y-15440000D02*
X32940000Y-8840000D01*
X37550000Y-2370000D02*
X38570000Y-1350000D01*
X32940000Y-8840000D02*
X37550000Y-4230000D01*
%TO.N,/TXD1*%
X33410000Y-15690000D02*
X33410000Y-9050000D01*
X33410000Y-9050000D02*
X41110000Y-1350000D01*
X29040000Y-20060000D02*
X33410000Y-15690000D01*
X29040000Y-20070000D02*
X29040000Y-20060000D01*
%TO.N,/RXD1*%
X41000000Y-4000000D02*
X43650000Y-1350000D01*
X33890000Y-9200000D02*
X39090000Y-4000000D01*
X39090000Y-4000000D02*
X41000000Y-4000000D01*
X29812083Y-20052083D02*
X29812083Y-20047917D01*
X33890000Y-15970000D02*
X33890000Y-9200000D01*
X29812083Y-20047917D02*
X33890000Y-15970000D01*
%TO.N,/RTS1{slash}IO7*%
X36030000Y-5050000D02*
X36030000Y-1350000D01*
X31400000Y-9679500D02*
X32019500Y-9060000D01*
X32019500Y-9060000D02*
X32020000Y-9060000D01*
X32020000Y-9060000D02*
X36030000Y-5050000D01*
%TO.N,/DTR1*%
X39330000Y-4410000D02*
X43120000Y-4410000D01*
X43120000Y-4410000D02*
X46180000Y-1350000D01*
X34360000Y-9380000D02*
X39330000Y-4410000D01*
X34360000Y-16840000D02*
X34360000Y-9380000D01*
%TO.N,Net-(J5-Pin_1)*%
X36290000Y-11390000D02*
X44045000Y-11390000D01*
X35550000Y-12130000D02*
X36290000Y-11390000D01*
%TO.N,Net-(J6-Pin_1)*%
X45924730Y-9910000D02*
X47559730Y-11545000D01*
X36980000Y-9910000D02*
X45924730Y-9910000D01*
X35540000Y-11350000D02*
X36980000Y-9910000D01*
%TO.N,Net-(USB1-CC2)*%
X11830000Y-12820000D02*
X11830000Y-15820000D01*
%TO.N,/USB_Data+*%
X3060000Y-13820000D02*
X3060000Y-14820000D01*
%TD*%
%TA.AperFunction,Conductor*%
%TO.N,GND*%
G36*
X17542117Y-18094840D02*
G01*
X18056402Y-18252342D01*
X18056928Y-18252522D01*
X18202970Y-18288517D01*
X18211015Y-18290500D01*
X18211018Y-18290500D01*
X18368982Y-18290500D01*
X18368985Y-18290500D01*
X18522365Y-18252696D01*
X18522369Y-18252693D01*
X18523074Y-18252520D01*
X18523590Y-18252343D01*
X19036482Y-18095269D01*
X19037883Y-18094840D01*
X19066873Y-18090500D01*
X24114991Y-18090500D01*
X24451913Y-18090500D01*
X24457459Y-18090811D01*
X24497035Y-18095270D01*
X24513124Y-18092226D01*
X24531528Y-18090500D01*
X25494099Y-18090500D01*
X25552290Y-18109407D01*
X25588254Y-18158907D01*
X25588254Y-18220093D01*
X25564103Y-18259504D01*
X24104515Y-19719092D01*
X24081950Y-19741658D01*
X24081948Y-19741660D01*
X24070997Y-19763151D01*
X24062887Y-19776385D01*
X24048706Y-19795906D01*
X24048701Y-19795915D01*
X24041249Y-19818852D01*
X24035305Y-19833202D01*
X24024355Y-19854691D01*
X24024352Y-19854701D01*
X24020577Y-19878529D01*
X24016953Y-19893624D01*
X24009501Y-19916562D01*
X24009500Y-19916569D01*
X24009500Y-25208843D01*
X23990593Y-25267034D01*
X23944165Y-25301943D01*
X22913800Y-25674527D01*
X22909811Y-25676081D01*
X22897448Y-25681213D01*
X22897443Y-25681215D01*
X22891831Y-25685057D01*
X22871685Y-25695671D01*
X22819983Y-25715701D01*
X22819975Y-25715705D01*
X22638699Y-25827946D01*
X22638692Y-25827952D01*
X22481135Y-25971586D01*
X22481131Y-25971589D01*
X22481128Y-25971593D01*
X22481125Y-25971597D01*
X22352635Y-26141743D01*
X22352630Y-26141752D01*
X22259206Y-26329375D01*
X22216343Y-26373037D01*
X22156002Y-26383167D01*
X22101231Y-26355895D01*
X22074958Y-26310869D01*
X22068430Y-26286506D01*
X22068429Y-26286505D01*
X21968605Y-26072432D01*
X21968601Y-26072424D01*
X21833113Y-25878926D01*
X21666073Y-25711886D01*
X21472577Y-25576399D01*
X21258489Y-25476569D01*
X21045000Y-25419364D01*
X21045000Y-26314498D01*
X20937315Y-26265320D01*
X20830763Y-26250000D01*
X20759237Y-26250000D01*
X20652685Y-26265320D01*
X20545000Y-26314498D01*
X20545000Y-25419364D01*
X20331505Y-25476570D01*
X20117432Y-25576394D01*
X20117424Y-25576398D01*
X19923926Y-25711886D01*
X19756886Y-25878926D01*
X19621398Y-26072424D01*
X19621394Y-26072432D01*
X19521570Y-26286505D01*
X19464364Y-26500000D01*
X20361314Y-26500000D01*
X20335507Y-26540156D01*
X20295000Y-26678111D01*
X20295000Y-26821889D01*
X20335507Y-26959844D01*
X20361314Y-27000000D01*
X19464364Y-27000000D01*
X19521569Y-27213489D01*
X19621399Y-27427577D01*
X19756886Y-27621073D01*
X19806309Y-27670496D01*
X19834086Y-27725013D01*
X19824515Y-27785445D01*
X19781250Y-27828710D01*
X19736305Y-27839500D01*
X17176905Y-27839500D01*
X17118714Y-27820593D01*
X17082750Y-27771093D01*
X17082750Y-27713534D01*
X17082174Y-27713398D01*
X17082750Y-27710960D01*
X17082750Y-27709907D01*
X17083522Y-27707693D01*
X17083598Y-27707370D01*
X17090000Y-27647824D01*
X17090000Y-27000001D01*
X17089999Y-27000000D01*
X16173686Y-27000000D01*
X16199493Y-26959844D01*
X16240000Y-26821889D01*
X16240000Y-26678111D01*
X16199493Y-26540156D01*
X16173686Y-26500000D01*
X17089999Y-26500000D01*
X17090000Y-26499999D01*
X17090000Y-25852175D01*
X17083598Y-25792629D01*
X17083596Y-25792618D01*
X17033353Y-25657911D01*
X17033352Y-25657909D01*
X16947192Y-25542815D01*
X16947184Y-25542807D01*
X16832090Y-25456647D01*
X16832088Y-25456646D01*
X16697381Y-25406403D01*
X16697370Y-25406401D01*
X16637824Y-25400000D01*
X15990001Y-25400000D01*
X15990000Y-25400001D01*
X15990000Y-26314498D01*
X15882315Y-26265320D01*
X15775763Y-26250000D01*
X15704237Y-26250000D01*
X15597685Y-26265320D01*
X15490000Y-26314498D01*
X15490000Y-25400001D01*
X15489999Y-25400000D01*
X14842176Y-25400000D01*
X14782629Y-25406401D01*
X14782618Y-25406403D01*
X14647911Y-25456646D01*
X14647909Y-25456647D01*
X14532815Y-25542807D01*
X14532807Y-25542815D01*
X14446647Y-25657909D01*
X14446646Y-25657911D01*
X14396403Y-25792618D01*
X14396401Y-25792629D01*
X14390000Y-25852175D01*
X14390000Y-26137808D01*
X14371093Y-26195999D01*
X14321593Y-26231963D01*
X14260407Y-26231963D01*
X14210907Y-26195999D01*
X14202379Y-26181936D01*
X14182369Y-26141752D01*
X14182366Y-26141745D01*
X14053872Y-25971593D01*
X13952222Y-25878926D01*
X13896307Y-25827952D01*
X13896300Y-25827946D01*
X13715024Y-25715705D01*
X13715019Y-25715702D01*
X13668271Y-25697592D01*
X13516198Y-25638679D01*
X13516197Y-25638678D01*
X13516195Y-25638678D01*
X13306610Y-25599500D01*
X13093390Y-25599500D01*
X12883804Y-25638678D01*
X12684980Y-25715702D01*
X12684975Y-25715705D01*
X12503699Y-25827946D01*
X12503692Y-25827952D01*
X12346135Y-25971586D01*
X12346131Y-25971589D01*
X12346128Y-25971593D01*
X12346125Y-25971597D01*
X12217635Y-26141743D01*
X12217630Y-26141752D01*
X12122596Y-26332608D01*
X12064244Y-26537688D01*
X12064244Y-26537690D01*
X12044571Y-26750000D01*
X12064244Y-26962310D01*
X12122595Y-27167389D01*
X12217634Y-27358255D01*
X12346128Y-27528407D01*
X12346135Y-27528413D01*
X12498527Y-27667339D01*
X12528793Y-27720514D01*
X12522022Y-27781324D01*
X12480801Y-27826540D01*
X12431831Y-27839500D01*
X11428169Y-27839500D01*
X11369978Y-27820593D01*
X11334014Y-27771093D01*
X11334014Y-27709907D01*
X11361473Y-27667339D01*
X11428713Y-27606040D01*
X11513872Y-27528407D01*
X11642366Y-27358255D01*
X11737405Y-27167389D01*
X11795756Y-26962310D01*
X11815429Y-26750000D01*
X11795756Y-26537690D01*
X11737405Y-26332611D01*
X11642366Y-26141745D01*
X11513872Y-25971593D01*
X11412222Y-25878926D01*
X11356307Y-25827952D01*
X11356300Y-25827946D01*
X11175024Y-25715705D01*
X11175019Y-25715702D01*
X11128271Y-25697592D01*
X10976198Y-25638679D01*
X10976197Y-25638678D01*
X10976195Y-25638678D01*
X10766610Y-25599500D01*
X10553390Y-25599500D01*
X10343804Y-25638678D01*
X10144980Y-25715702D01*
X10144975Y-25715705D01*
X9963699Y-25827946D01*
X9963692Y-25827952D01*
X9806135Y-25971586D01*
X9806131Y-25971589D01*
X9806128Y-25971593D01*
X9806125Y-25971597D01*
X9677635Y-26141743D01*
X9677630Y-26141752D01*
X9582596Y-26332608D01*
X9524244Y-26537688D01*
X9524244Y-26537690D01*
X9504571Y-26750000D01*
X9524244Y-26962310D01*
X9582595Y-27167389D01*
X9677634Y-27358255D01*
X9806128Y-27528407D01*
X9806135Y-27528413D01*
X9958527Y-27667339D01*
X9988793Y-27720514D01*
X9982022Y-27781324D01*
X9940801Y-27826540D01*
X9891831Y-27839500D01*
X8888169Y-27839500D01*
X8829978Y-27820593D01*
X8794014Y-27771093D01*
X8794014Y-27709907D01*
X8821473Y-27667339D01*
X8888713Y-27606040D01*
X8973872Y-27528407D01*
X9102366Y-27358255D01*
X9197405Y-27167389D01*
X9255756Y-26962310D01*
X9275429Y-26750000D01*
X9255756Y-26537690D01*
X9197405Y-26332611D01*
X9102366Y-26141745D01*
X8973872Y-25971593D01*
X8872222Y-25878926D01*
X8816307Y-25827952D01*
X8816300Y-25827946D01*
X8635024Y-25715705D01*
X8635019Y-25715702D01*
X8588271Y-25697592D01*
X8436198Y-25638679D01*
X8436197Y-25638678D01*
X8436195Y-25638678D01*
X8226610Y-25599500D01*
X8013390Y-25599500D01*
X7803804Y-25638678D01*
X7604980Y-25715702D01*
X7604975Y-25715705D01*
X7423699Y-25827946D01*
X7423692Y-25827952D01*
X7266135Y-25971586D01*
X7266131Y-25971589D01*
X7266128Y-25971593D01*
X7266125Y-25971597D01*
X7137635Y-26141743D01*
X7137630Y-26141752D01*
X7042596Y-26332608D01*
X6984244Y-26537688D01*
X6984244Y-26537690D01*
X6964571Y-26750000D01*
X6984244Y-26962310D01*
X7042595Y-27167389D01*
X7137634Y-27358255D01*
X7266128Y-27528407D01*
X7266135Y-27528413D01*
X7418527Y-27667339D01*
X7448793Y-27720514D01*
X7442022Y-27781324D01*
X7400801Y-27826540D01*
X7351831Y-27839500D01*
X6348169Y-27839500D01*
X6289978Y-27820593D01*
X6254014Y-27771093D01*
X6254014Y-27709907D01*
X6281473Y-27667339D01*
X6348713Y-27606040D01*
X6433872Y-27528407D01*
X6562366Y-27358255D01*
X6657405Y-27167389D01*
X6715756Y-26962310D01*
X6735429Y-26750000D01*
X6715756Y-26537690D01*
X6657405Y-26332611D01*
X6562366Y-26141745D01*
X6433872Y-25971593D01*
X6332222Y-25878926D01*
X6276307Y-25827952D01*
X6276300Y-25827946D01*
X6095024Y-25715705D01*
X6095019Y-25715702D01*
X6048271Y-25697592D01*
X5896198Y-25638679D01*
X5896197Y-25638678D01*
X5896195Y-25638678D01*
X5686610Y-25599500D01*
X5473390Y-25599500D01*
X5263804Y-25638678D01*
X5064980Y-25715702D01*
X5064975Y-25715705D01*
X4883699Y-25827946D01*
X4883692Y-25827952D01*
X4726135Y-25971586D01*
X4726131Y-25971589D01*
X4726128Y-25971593D01*
X4726125Y-25971597D01*
X4597635Y-26141743D01*
X4597630Y-26141752D01*
X4502596Y-26332608D01*
X4444244Y-26537688D01*
X4444244Y-26537690D01*
X4424571Y-26750000D01*
X4444244Y-26962310D01*
X4502595Y-27167389D01*
X4597634Y-27358255D01*
X4726128Y-27528407D01*
X4726135Y-27528413D01*
X4878527Y-27667339D01*
X4908793Y-27720514D01*
X4902022Y-27781324D01*
X4860801Y-27826540D01*
X4811831Y-27839500D01*
X3808169Y-27839500D01*
X3749978Y-27820593D01*
X3714014Y-27771093D01*
X3714014Y-27709907D01*
X3741473Y-27667339D01*
X3808713Y-27606040D01*
X3893872Y-27528407D01*
X4022366Y-27358255D01*
X4117405Y-27167389D01*
X4175756Y-26962310D01*
X4195429Y-26750000D01*
X4175756Y-26537690D01*
X4117405Y-26332611D01*
X4022366Y-26141745D01*
X3893872Y-25971593D01*
X3792222Y-25878926D01*
X3736307Y-25827952D01*
X3736300Y-25827946D01*
X3555024Y-25715705D01*
X3555019Y-25715702D01*
X3508271Y-25697592D01*
X3356198Y-25638679D01*
X3356197Y-25638678D01*
X3356195Y-25638678D01*
X3146610Y-25599500D01*
X2933390Y-25599500D01*
X2723804Y-25638678D01*
X2524980Y-25715702D01*
X2524975Y-25715705D01*
X2343699Y-25827946D01*
X2343698Y-25827947D01*
X2290770Y-25876198D01*
X2235028Y-25901428D01*
X2175103Y-25889076D01*
X2133883Y-25843859D01*
X2127113Y-25783049D01*
X2154068Y-25733034D01*
X9767607Y-18119496D01*
X9822124Y-18091719D01*
X9837611Y-18090500D01*
X17462098Y-18090500D01*
X17513127Y-18090500D01*
X17542117Y-18094840D01*
G37*
%TD.AperFunction*%
%TA.AperFunction,Conductor*%
G36*
X28325794Y-279407D02*
G01*
X28361758Y-328907D01*
X28361758Y-390093D01*
X28325794Y-439593D01*
X28288178Y-456338D01*
X28284415Y-457138D01*
X28276476Y-458825D01*
X28271361Y-459634D01*
X28226746Y-464325D01*
X28184082Y-478186D01*
X28179077Y-479527D01*
X28135203Y-488854D01*
X28135194Y-488857D01*
X28094211Y-507103D01*
X28089373Y-508960D01*
X28046713Y-522822D01*
X28007860Y-545253D01*
X28003243Y-547605D01*
X27962271Y-565847D01*
X27962270Y-565848D01*
X27925983Y-592211D01*
X27921638Y-595032D01*
X27882787Y-617464D01*
X27882781Y-617468D01*
X27849443Y-647486D01*
X27845416Y-650747D01*
X27809127Y-677113D01*
X27779111Y-710448D01*
X27775448Y-714111D01*
X27742113Y-744127D01*
X27715747Y-780416D01*
X27712486Y-784443D01*
X27682468Y-817781D01*
X27682464Y-817787D01*
X27660032Y-856638D01*
X27657211Y-860983D01*
X27630848Y-897270D01*
X27630847Y-897271D01*
X27612605Y-938243D01*
X27610253Y-942860D01*
X27587822Y-981713D01*
X27573960Y-1024373D01*
X27572103Y-1029211D01*
X27553857Y-1070194D01*
X27553854Y-1070203D01*
X27544527Y-1114077D01*
X27543186Y-1119082D01*
X27529325Y-1161746D01*
X27524634Y-1206363D01*
X27523824Y-1211481D01*
X27514500Y-1255350D01*
X27514500Y-1300208D01*
X27514228Y-1305385D01*
X27509540Y-1350000D01*
X27511197Y-1365770D01*
X27514229Y-1394612D01*
X27514500Y-1399790D01*
X27514500Y-1444649D01*
X27523824Y-1488519D01*
X27524634Y-1493637D01*
X27529325Y-1538254D01*
X27543188Y-1580919D01*
X27544530Y-1585927D01*
X27553856Y-1629805D01*
X27572100Y-1670781D01*
X27573958Y-1675620D01*
X27587821Y-1718284D01*
X27587823Y-1718289D01*
X27610248Y-1757129D01*
X27612602Y-1761749D01*
X27630848Y-1802729D01*
X27635216Y-1808741D01*
X27645429Y-1822799D01*
X27657211Y-1839015D01*
X27660031Y-1843358D01*
X27663866Y-1850000D01*
X27682467Y-1882217D01*
X27682469Y-1882219D01*
X27712483Y-1915552D01*
X27715747Y-1919582D01*
X27742111Y-1955870D01*
X27775446Y-1985885D01*
X27779112Y-1989551D01*
X27809129Y-2022888D01*
X27809131Y-2022890D01*
X27827022Y-2035887D01*
X27845417Y-2049252D01*
X27849447Y-2052516D01*
X27882780Y-2082530D01*
X27882782Y-2082532D01*
X27921636Y-2104965D01*
X27925978Y-2107784D01*
X27962270Y-2134151D01*
X28003251Y-2152396D01*
X28007862Y-2154746D01*
X28046712Y-2177177D01*
X28046713Y-2177177D01*
X28046716Y-2177179D01*
X28089389Y-2191043D01*
X28094210Y-2192894D01*
X28135197Y-2211144D01*
X28179079Y-2220470D01*
X28184079Y-2221810D01*
X28226744Y-2235674D01*
X28271364Y-2240363D01*
X28276467Y-2241171D01*
X28320354Y-2250500D01*
X28320357Y-2250500D01*
X28509644Y-2250500D01*
X28509646Y-2250500D01*
X28553528Y-2241172D01*
X28558636Y-2240363D01*
X28603256Y-2235674D01*
X28645919Y-2221811D01*
X28650920Y-2220470D01*
X28694803Y-2211144D01*
X28735789Y-2192894D01*
X28740618Y-2191041D01*
X28783284Y-2177179D01*
X28812882Y-2160090D01*
X28822133Y-2154749D01*
X28826754Y-2152394D01*
X28830142Y-2150885D01*
X28867730Y-2134151D01*
X28904021Y-2107784D01*
X28908348Y-2104973D01*
X28947216Y-2082533D01*
X28980575Y-2052495D01*
X28984568Y-2049262D01*
X29020871Y-2022888D01*
X29050905Y-1989530D01*
X29054530Y-1985905D01*
X29087888Y-1955871D01*
X29114262Y-1919568D01*
X29117495Y-1915575D01*
X29147533Y-1882216D01*
X29169973Y-1843348D01*
X29172788Y-1839015D01*
X29175938Y-1834680D01*
X29199151Y-1802730D01*
X29217394Y-1761754D01*
X29219749Y-1757133D01*
X29225418Y-1747312D01*
X29242179Y-1718284D01*
X29256042Y-1675614D01*
X29257898Y-1670781D01*
X29276144Y-1629803D01*
X29285470Y-1585920D01*
X29286811Y-1580919D01*
X29292857Y-1562311D01*
X29300674Y-1538256D01*
X29305363Y-1493636D01*
X29306173Y-1488524D01*
X29315499Y-1444649D01*
X29315500Y-1444646D01*
X29315500Y-1399790D01*
X29315771Y-1394612D01*
X29320460Y-1350000D01*
X29315771Y-1305385D01*
X29315500Y-1300208D01*
X29315500Y-1255357D01*
X29315500Y-1255354D01*
X29306171Y-1211467D01*
X29305363Y-1206363D01*
X29300674Y-1161744D01*
X29286810Y-1119079D01*
X29285469Y-1114073D01*
X29282478Y-1099999D01*
X29276144Y-1070197D01*
X29257894Y-1029210D01*
X29256041Y-1024382D01*
X29256038Y-1024373D01*
X29242179Y-981716D01*
X29219744Y-942859D01*
X29217393Y-938243D01*
X29199151Y-897270D01*
X29172784Y-860978D01*
X29169965Y-856636D01*
X29147532Y-817782D01*
X29147530Y-817780D01*
X29117516Y-784447D01*
X29114256Y-780422D01*
X29095203Y-754197D01*
X29087890Y-744131D01*
X29087888Y-744129D01*
X29054551Y-714112D01*
X29050885Y-710446D01*
X29020870Y-677111D01*
X28984582Y-650747D01*
X28980552Y-647483D01*
X28947219Y-617469D01*
X28947217Y-617467D01*
X28908362Y-595034D01*
X28904020Y-592214D01*
X28867730Y-565849D01*
X28867729Y-565848D01*
X28826749Y-547602D01*
X28822129Y-545248D01*
X28783289Y-522823D01*
X28783284Y-522821D01*
X28740620Y-508958D01*
X28735781Y-507100D01*
X28694805Y-488856D01*
X28659797Y-481415D01*
X28650925Y-479529D01*
X28645919Y-478188D01*
X28603254Y-464325D01*
X28558639Y-459634D01*
X28553524Y-458825D01*
X28543490Y-456693D01*
X28541822Y-456338D01*
X28488832Y-425751D01*
X28463940Y-369858D01*
X28476656Y-310008D01*
X28522121Y-269063D01*
X28562397Y-260500D01*
X32053095Y-260500D01*
X32111286Y-279407D01*
X32147250Y-328907D01*
X32147250Y-386465D01*
X32147826Y-386602D01*
X32147250Y-389039D01*
X32147250Y-390093D01*
X32146477Y-392306D01*
X32146401Y-392629D01*
X32140000Y-452175D01*
X32140000Y-1099999D01*
X32140001Y-1100000D01*
X33056314Y-1100000D01*
X33030507Y-1140156D01*
X32990000Y-1278111D01*
X32990000Y-1421889D01*
X33030507Y-1559844D01*
X33056314Y-1600000D01*
X32140001Y-1600000D01*
X32140000Y-1600001D01*
X32140000Y-2247824D01*
X32139999Y-2247824D01*
X32146401Y-2307370D01*
X32146403Y-2307381D01*
X32196646Y-2442088D01*
X32196647Y-2442090D01*
X32282807Y-2557184D01*
X32282815Y-2557192D01*
X32397909Y-2643352D01*
X32397911Y-2643353D01*
X32532618Y-2693596D01*
X32532629Y-2693598D01*
X32592176Y-2700000D01*
X33239999Y-2700000D01*
X33240000Y-2699999D01*
X33240000Y-1785501D01*
X33347685Y-1834680D01*
X33454237Y-1850000D01*
X33525763Y-1850000D01*
X33632315Y-1834680D01*
X33740000Y-1785501D01*
X33740000Y-2699999D01*
X33740001Y-2700000D01*
X34387824Y-2700000D01*
X34447370Y-2693598D01*
X34447381Y-2693596D01*
X34582088Y-2643353D01*
X34582090Y-2643352D01*
X34697184Y-2557192D01*
X34697192Y-2557184D01*
X34783352Y-2442090D01*
X34783353Y-2442088D01*
X34833596Y-2307381D01*
X34833598Y-2307370D01*
X34840000Y-2247824D01*
X34840000Y-1968705D01*
X34858907Y-1910514D01*
X34908407Y-1874550D01*
X34969593Y-1874550D01*
X35019093Y-1910514D01*
X35027601Y-1924537D01*
X35351963Y-2575211D01*
X35607759Y-3088342D01*
X35619101Y-3111093D01*
X35629500Y-3155261D01*
X35629500Y-4843098D01*
X35610593Y-4901289D01*
X35600504Y-4913102D01*
X31788477Y-8725128D01*
X31785068Y-8728040D01*
X31758591Y-8754517D01*
X31526444Y-8986662D01*
X31501466Y-9004827D01*
X31174969Y-9171559D01*
X31169620Y-9175606D01*
X31147785Y-9188113D01*
X31122374Y-9198639D01*
X31007381Y-9286877D01*
X31007377Y-9286881D01*
X30919139Y-9401874D01*
X30919137Y-9401878D01*
X30863670Y-9535790D01*
X30863669Y-9535791D01*
X30844750Y-9679499D01*
X30844750Y-9679500D01*
X30863669Y-9823208D01*
X30863670Y-9823209D01*
X30903492Y-9919351D01*
X30919139Y-9957125D01*
X31007379Y-10072121D01*
X31122375Y-10160361D01*
X31256291Y-10215830D01*
X31400000Y-10234750D01*
X31543709Y-10215830D01*
X31677625Y-10160361D01*
X31792621Y-10072121D01*
X31880861Y-9957125D01*
X31891473Y-9931505D01*
X31904547Y-9908925D01*
X31907943Y-9904523D01*
X32074666Y-9578036D01*
X32092827Y-9553063D01*
X32251000Y-9394890D01*
X32254426Y-9391966D01*
X32258342Y-9388050D01*
X32275259Y-9371131D01*
X32275270Y-9371123D01*
X32370496Y-9275897D01*
X32425012Y-9248119D01*
X32485445Y-9257690D01*
X32528709Y-9300954D01*
X32539500Y-9345900D01*
X32539500Y-15233098D01*
X32520593Y-15291289D01*
X32510504Y-15303102D01*
X28432316Y-19381289D01*
X28405848Y-19400198D01*
X28079813Y-19559841D01*
X28079809Y-19559843D01*
X28072456Y-19565262D01*
X28051620Y-19577024D01*
X28022374Y-19589139D01*
X27907381Y-19677377D01*
X27907377Y-19677381D01*
X27819139Y-19792374D01*
X27819137Y-19792378D01*
X27763670Y-19926290D01*
X27763669Y-19926291D01*
X27744750Y-20069999D01*
X27744750Y-20070000D01*
X27763669Y-20213708D01*
X27763670Y-20213709D01*
X27817772Y-20344326D01*
X27819139Y-20347625D01*
X27907379Y-20462621D01*
X27942057Y-20489231D01*
X27976712Y-20539655D01*
X27975110Y-20600819D01*
X27947438Y-20641874D01*
X27909518Y-20675467D01*
X27909517Y-20675469D01*
X27819780Y-20805476D01*
X27763763Y-20953182D01*
X27763762Y-20953183D01*
X27744722Y-21109998D01*
X27744722Y-21110001D01*
X27763763Y-21266818D01*
X27783307Y-21318355D01*
X27788798Y-21339835D01*
X27790372Y-21351170D01*
X27886032Y-21637133D01*
X27952512Y-21835869D01*
X27959386Y-21856416D01*
X27964500Y-21887823D01*
X27964500Y-24898805D01*
X27945593Y-24956996D01*
X27941921Y-24961740D01*
X27335925Y-25697592D01*
X27335917Y-25697602D01*
X27333955Y-25701056D01*
X27317900Y-25722128D01*
X27312793Y-25727235D01*
X27291907Y-25774538D01*
X27289661Y-25779000D01*
X27284210Y-25788591D01*
X27284210Y-25788593D01*
X27280010Y-25800295D01*
X27279816Y-25800225D01*
X27277044Y-25808196D01*
X27267416Y-25830005D01*
X27267414Y-25830009D01*
X27264500Y-25855130D01*
X27264500Y-25892936D01*
X27263608Y-25903985D01*
X27263842Y-25914104D01*
X27264500Y-25920423D01*
X27264500Y-27644860D01*
X27264501Y-27644863D01*
X27267414Y-27669990D01*
X27267415Y-27669992D01*
X27280891Y-27700511D01*
X27287100Y-27761380D01*
X27256345Y-27814274D01*
X27200373Y-27838989D01*
X27190327Y-27839500D01*
X26643169Y-27839500D01*
X26584978Y-27820593D01*
X26549014Y-27771093D01*
X26549014Y-27709907D01*
X26576473Y-27667339D01*
X26643713Y-27606040D01*
X26728872Y-27528407D01*
X26857366Y-27358255D01*
X26952405Y-27167389D01*
X27010756Y-26962310D01*
X27030429Y-26750000D01*
X27010756Y-26537690D01*
X26952405Y-26332611D01*
X26857366Y-26141745D01*
X26728872Y-25971593D01*
X26627222Y-25878926D01*
X26571307Y-25827952D01*
X26571300Y-25827946D01*
X26390024Y-25715705D01*
X26390022Y-25715704D01*
X26390019Y-25715702D01*
X26390017Y-25715701D01*
X26390013Y-25715699D01*
X26337915Y-25695516D01*
X26319051Y-25685766D01*
X26318118Y-25685149D01*
X26312170Y-25681213D01*
X26308470Y-25678765D01*
X26302554Y-25676266D01*
X25340973Y-25270050D01*
X25294728Y-25229990D01*
X25280500Y-25178855D01*
X25280500Y-21026900D01*
X25299407Y-20968709D01*
X25309490Y-20956902D01*
X31225778Y-15040613D01*
X31255236Y-15020303D01*
X31580454Y-14874313D01*
X31581576Y-14873804D01*
X31582316Y-14873469D01*
X31592517Y-14866286D01*
X31611619Y-14855774D01*
X31647625Y-14840861D01*
X31762621Y-14752621D01*
X31850861Y-14637625D01*
X31906330Y-14503709D01*
X31925250Y-14360000D01*
X31906330Y-14216291D01*
X31895718Y-14190673D01*
X31888996Y-14165456D01*
X31888285Y-14159946D01*
X31775318Y-13811194D01*
X31770500Y-13780687D01*
X31770500Y-11876630D01*
X31770499Y-11876601D01*
X31770499Y-11846567D01*
X31770498Y-11846565D01*
X31763047Y-11823633D01*
X31759419Y-11808523D01*
X31759143Y-11806782D01*
X31755646Y-11784696D01*
X31744690Y-11763195D01*
X31738750Y-11748852D01*
X31731297Y-11725913D01*
X31731296Y-11725912D01*
X31731296Y-11725910D01*
X31717117Y-11706395D01*
X31709000Y-11693149D01*
X31698050Y-11671658D01*
X31698049Y-11671657D01*
X31608342Y-11581949D01*
X22369709Y-2343316D01*
X22345831Y-2304731D01*
X22336288Y-2276215D01*
X22312574Y-2205360D01*
X22312037Y-2144178D01*
X22347564Y-2094364D01*
X22405587Y-2074946D01*
X22463941Y-2093341D01*
X22485458Y-2114278D01*
X22496128Y-2128407D01*
X22537788Y-2166385D01*
X22653692Y-2272047D01*
X22653699Y-2272053D01*
X22742180Y-2326838D01*
X22834981Y-2384298D01*
X23033802Y-2461321D01*
X23243390Y-2500500D01*
X23456610Y-2500500D01*
X23666198Y-2461321D01*
X23865019Y-2384298D01*
X24046302Y-2272052D01*
X24203872Y-2128407D01*
X24332366Y-1958255D01*
X24427405Y-1767389D01*
X24485756Y-1562310D01*
X24505429Y-1350000D01*
X24485756Y-1137690D01*
X24427405Y-932611D01*
X24332366Y-741745D01*
X24203872Y-571593D01*
X24150372Y-522821D01*
X24051473Y-432661D01*
X24021207Y-379486D01*
X24027978Y-318676D01*
X24069199Y-273460D01*
X24118169Y-260500D01*
X28267603Y-260500D01*
X28325794Y-279407D01*
G37*
%TD.AperFunction*%
%TA.AperFunction,Conductor*%
G36*
X48020022Y-279407D02*
G01*
X48055986Y-328907D01*
X48055986Y-390093D01*
X48028527Y-432661D01*
X47876135Y-571586D01*
X47876131Y-571589D01*
X47876128Y-571593D01*
X47876125Y-571597D01*
X47747635Y-741743D01*
X47747630Y-741752D01*
X47652596Y-932608D01*
X47652595Y-932611D01*
X47640655Y-974574D01*
X47594244Y-1137688D01*
X47574571Y-1350000D01*
X47594244Y-1562311D01*
X47602969Y-1592974D01*
X47650990Y-1761749D01*
X47652596Y-1767391D01*
X47664064Y-1790422D01*
X47671411Y-1810235D01*
X47672486Y-1814481D01*
X48089968Y-2717869D01*
X48269292Y-3105908D01*
X48270368Y-3108235D01*
X48279500Y-3149766D01*
X48279500Y-10295500D01*
X48260593Y-10353691D01*
X48211093Y-10389655D01*
X48180500Y-10394500D01*
X48000386Y-10394500D01*
X47964595Y-10387804D01*
X47893586Y-10360270D01*
X47521083Y-10215830D01*
X46357795Y-9764759D01*
X46323583Y-9742459D01*
X46183155Y-9602032D01*
X46183154Y-9602031D01*
X46163073Y-9581951D01*
X46163072Y-9581950D01*
X46141577Y-9570997D01*
X46128338Y-9562884D01*
X46122311Y-9558505D01*
X46108820Y-9548704D01*
X46108818Y-9548703D01*
X46085872Y-9541247D01*
X46071518Y-9535301D01*
X46050036Y-9524354D01*
X46026204Y-9520579D01*
X46011104Y-9516953D01*
X45988167Y-9509500D01*
X45988163Y-9509500D01*
X45956249Y-9509500D01*
X37043433Y-9509500D01*
X36916567Y-9509500D01*
X36916565Y-9509500D01*
X36916559Y-9509501D01*
X36893619Y-9516954D01*
X36878524Y-9520578D01*
X36854701Y-9524352D01*
X36854695Y-9524354D01*
X36833201Y-9535305D01*
X36818857Y-9541246D01*
X36795911Y-9548702D01*
X36795908Y-9548704D01*
X36776390Y-9562884D01*
X36763152Y-9570997D01*
X36741657Y-9581950D01*
X36719093Y-9604514D01*
X36719090Y-9604515D01*
X36719091Y-9604516D01*
X35666441Y-10657164D01*
X35641462Y-10675329D01*
X35314969Y-10842059D01*
X35309620Y-10846106D01*
X35287785Y-10858613D01*
X35262374Y-10869139D01*
X35147381Y-10957377D01*
X35147377Y-10957381D01*
X35059139Y-11072374D01*
X35059137Y-11072378D01*
X35003670Y-11206290D01*
X35003669Y-11206291D01*
X34984750Y-11349999D01*
X34984750Y-11350000D01*
X35003669Y-11493708D01*
X35003670Y-11493709D01*
X35040219Y-11581949D01*
X35059139Y-11627625D01*
X35059141Y-11627628D01*
X35059142Y-11627629D01*
X35104122Y-11686249D01*
X35124546Y-11743925D01*
X35107168Y-11802590D01*
X35104123Y-11806782D01*
X35069139Y-11852374D01*
X35069137Y-11852378D01*
X35013670Y-11986290D01*
X35013669Y-11986291D01*
X34994750Y-12129999D01*
X34994750Y-12130000D01*
X35013669Y-12273708D01*
X35013670Y-12273709D01*
X35056805Y-12377849D01*
X35069139Y-12407625D01*
X35157379Y-12522621D01*
X35272375Y-12610861D01*
X35406291Y-12666330D01*
X35550000Y-12685250D01*
X35693709Y-12666330D01*
X35827625Y-12610861D01*
X35942621Y-12522621D01*
X36030861Y-12407625D01*
X36041473Y-12382005D01*
X36054547Y-12359425D01*
X36057943Y-12355023D01*
X36224666Y-12028538D01*
X36242832Y-12003560D01*
X36426897Y-11819496D01*
X36481413Y-11791719D01*
X36496900Y-11790500D01*
X42330012Y-11790500D01*
X42388203Y-11809407D01*
X42399217Y-11818707D01*
X42497827Y-11915110D01*
X43032780Y-12438091D01*
X43054137Y-12468893D01*
X43097793Y-12567763D01*
X43097794Y-12567765D01*
X43177235Y-12647206D01*
X43280009Y-12692585D01*
X43305135Y-12695500D01*
X45094864Y-12695499D01*
X45119991Y-12692585D01*
X45222765Y-12647206D01*
X45302206Y-12567765D01*
X45347585Y-12464991D01*
X45350500Y-12439865D01*
X45350499Y-10650136D01*
X45347585Y-10625009D01*
X45302206Y-10522235D01*
X45259472Y-10479501D01*
X45231697Y-10424987D01*
X45241268Y-10364555D01*
X45284533Y-10321290D01*
X45329478Y-10310500D01*
X45699068Y-10310500D01*
X45757259Y-10329407D01*
X45791372Y-10373709D01*
X46212864Y-11460717D01*
X46380813Y-11893850D01*
X46402534Y-11949866D01*
X46409230Y-11985657D01*
X46409230Y-12439860D01*
X46409231Y-12439863D01*
X46412144Y-12464990D01*
X46437486Y-12522385D01*
X46457524Y-12567765D01*
X46536965Y-12647206D01*
X46639739Y-12692585D01*
X46664865Y-12695500D01*
X48180500Y-12695499D01*
X48238691Y-12714406D01*
X48274655Y-12763906D01*
X48279500Y-12794499D01*
X48279500Y-12999739D01*
X48260593Y-13057930D01*
X48211093Y-13093894D01*
X48149907Y-13093894D01*
X48128384Y-13083911D01*
X48074751Y-13050703D01*
X48074749Y-13050702D01*
X47875928Y-12973679D01*
X47875927Y-12973678D01*
X47875925Y-12973678D01*
X47666340Y-12934500D01*
X47453120Y-12934500D01*
X47243534Y-12973678D01*
X47044710Y-13050702D01*
X47044705Y-13050705D01*
X46863429Y-13162946D01*
X46863422Y-13162952D01*
X46705865Y-13306586D01*
X46705861Y-13306589D01*
X46705858Y-13306593D01*
X46705855Y-13306597D01*
X46577365Y-13476743D01*
X46577360Y-13476752D01*
X46482326Y-13667608D01*
X46423974Y-13872688D01*
X46404301Y-14085000D01*
X46423974Y-14297311D01*
X46430430Y-14320000D01*
X46482325Y-14502389D01*
X46577364Y-14693255D01*
X46705858Y-14863407D01*
X46776464Y-14927773D01*
X46863422Y-15007047D01*
X46863429Y-15007053D01*
X46967119Y-15071255D01*
X47044711Y-15119298D01*
X47243532Y-15196321D01*
X47453120Y-15235500D01*
X47666340Y-15235500D01*
X47875928Y-15196321D01*
X48074749Y-15119298D01*
X48128383Y-15086088D01*
X48187811Y-15071530D01*
X48244446Y-15094683D01*
X48276657Y-15146704D01*
X48279500Y-15170260D01*
X48279500Y-15539739D01*
X48260593Y-15597930D01*
X48211093Y-15633894D01*
X48149907Y-15633894D01*
X48128384Y-15623911D01*
X48074751Y-15590703D01*
X48074749Y-15590702D01*
X47875925Y-15513678D01*
X47666340Y-15474500D01*
X47453120Y-15474500D01*
X47243534Y-15513678D01*
X47044710Y-15590702D01*
X47044705Y-15590705D01*
X46863429Y-15702946D01*
X46863422Y-15702952D01*
X46705865Y-15846586D01*
X46705861Y-15846589D01*
X46705858Y-15846593D01*
X46705855Y-15846597D01*
X46577365Y-16016743D01*
X46577360Y-16016752D01*
X46482326Y-16207608D01*
X46423974Y-16412688D01*
X46404301Y-16625000D01*
X46423974Y-16837311D01*
X46441740Y-16899749D01*
X46482325Y-17042389D01*
X46577364Y-17233255D01*
X46705858Y-17403407D01*
X46726414Y-17422146D01*
X46863422Y-17547047D01*
X46863429Y-17547053D01*
X46900485Y-17569997D01*
X47044711Y-17659298D01*
X47243532Y-17736321D01*
X47453120Y-17775500D01*
X47666340Y-17775500D01*
X47875928Y-17736321D01*
X48074749Y-17659298D01*
X48128383Y-17626088D01*
X48187811Y-17611530D01*
X48244446Y-17634683D01*
X48276657Y-17686704D01*
X48279500Y-17710260D01*
X48279500Y-24950232D01*
X48270368Y-24991763D01*
X47840305Y-25922375D01*
X47673667Y-26282963D01*
X47671263Y-26288164D01*
X47669906Y-26291256D01*
X47664861Y-26303452D01*
X47663963Y-26306471D01*
X47657699Y-26322358D01*
X47652596Y-26332607D01*
X47594244Y-26537688D01*
X47594244Y-26537690D01*
X47574571Y-26750000D01*
X47594244Y-26962310D01*
X47652595Y-27167389D01*
X47747634Y-27358255D01*
X47876128Y-27528407D01*
X47876135Y-27528413D01*
X48028527Y-27667339D01*
X48058793Y-27720514D01*
X48052022Y-27781324D01*
X48010801Y-27826540D01*
X47961831Y-27839500D01*
X46958169Y-27839500D01*
X46899978Y-27820593D01*
X46864014Y-27771093D01*
X46864014Y-27709907D01*
X46891473Y-27667339D01*
X46958713Y-27606040D01*
X47043872Y-27528407D01*
X47172366Y-27358255D01*
X47267405Y-27167389D01*
X47325756Y-26962310D01*
X47345429Y-26750000D01*
X47325756Y-26537690D01*
X47267405Y-26332611D01*
X47172366Y-26141745D01*
X47043872Y-25971593D01*
X46942222Y-25878926D01*
X46886307Y-25827952D01*
X46886300Y-25827946D01*
X46705024Y-25715705D01*
X46705019Y-25715702D01*
X46658271Y-25697592D01*
X46506198Y-25638679D01*
X46506197Y-25638678D01*
X46506195Y-25638678D01*
X46296610Y-25599500D01*
X46083390Y-25599500D01*
X45873804Y-25638678D01*
X45674980Y-25715702D01*
X45674975Y-25715705D01*
X45493699Y-25827946D01*
X45493692Y-25827952D01*
X45336135Y-25971586D01*
X45336131Y-25971589D01*
X45336128Y-25971593D01*
X45336125Y-25971597D01*
X45207635Y-26141743D01*
X45207630Y-26141752D01*
X45112596Y-26332608D01*
X45054244Y-26537688D01*
X45054244Y-26537690D01*
X45034571Y-26750000D01*
X45054244Y-26962310D01*
X45112595Y-27167389D01*
X45207634Y-27358255D01*
X45336128Y-27528407D01*
X45336135Y-27528413D01*
X45488527Y-27667339D01*
X45518793Y-27720514D01*
X45512022Y-27781324D01*
X45470801Y-27826540D01*
X45421831Y-27839500D01*
X44418169Y-27839500D01*
X44359978Y-27820593D01*
X44324014Y-27771093D01*
X44324014Y-27709907D01*
X44351473Y-27667339D01*
X44418713Y-27606040D01*
X44503872Y-27528407D01*
X44632366Y-27358255D01*
X44727405Y-27167389D01*
X44785756Y-26962310D01*
X44805429Y-26750000D01*
X44785756Y-26537690D01*
X44727405Y-26332611D01*
X44632366Y-26141745D01*
X44503872Y-25971593D01*
X44402222Y-25878926D01*
X44346307Y-25827952D01*
X44346300Y-25827946D01*
X44165024Y-25715705D01*
X44165019Y-25715702D01*
X44118271Y-25697592D01*
X43966198Y-25638679D01*
X43966197Y-25638678D01*
X43966195Y-25638678D01*
X43756610Y-25599500D01*
X43543390Y-25599500D01*
X43333804Y-25638678D01*
X43134980Y-25715702D01*
X43134975Y-25715705D01*
X42953699Y-25827946D01*
X42953692Y-25827952D01*
X42796135Y-25971586D01*
X42796131Y-25971589D01*
X42796128Y-25971593D01*
X42796125Y-25971597D01*
X42667635Y-26141743D01*
X42667630Y-26141752D01*
X42572596Y-26332608D01*
X42514244Y-26537688D01*
X42514244Y-26537690D01*
X42494571Y-26750000D01*
X42514244Y-26962310D01*
X42572595Y-27167389D01*
X42667634Y-27358255D01*
X42796128Y-27528407D01*
X42796135Y-27528413D01*
X42948527Y-27667339D01*
X42978793Y-27720514D01*
X42972022Y-27781324D01*
X42930801Y-27826540D01*
X42881831Y-27839500D01*
X41878169Y-27839500D01*
X41819978Y-27820593D01*
X41784014Y-27771093D01*
X41784014Y-27709907D01*
X41811473Y-27667339D01*
X41878713Y-27606040D01*
X41963872Y-27528407D01*
X42092366Y-27358255D01*
X42187405Y-27167389D01*
X42245756Y-26962310D01*
X42265429Y-26750000D01*
X42245756Y-26537690D01*
X42187405Y-26332611D01*
X42092366Y-26141745D01*
X41963872Y-25971593D01*
X41862222Y-25878926D01*
X41806307Y-25827952D01*
X41806300Y-25827946D01*
X41625024Y-25715705D01*
X41625019Y-25715702D01*
X41578271Y-25697592D01*
X41426198Y-25638679D01*
X41426197Y-25638678D01*
X41426195Y-25638678D01*
X41216610Y-25599500D01*
X41003390Y-25599500D01*
X40793804Y-25638678D01*
X40594980Y-25715702D01*
X40594975Y-25715705D01*
X40413699Y-25827946D01*
X40413692Y-25827952D01*
X40256135Y-25971586D01*
X40256131Y-25971589D01*
X40256128Y-25971593D01*
X40256125Y-25971597D01*
X40127635Y-26141743D01*
X40127630Y-26141752D01*
X40032596Y-26332608D01*
X39974244Y-26537688D01*
X39974244Y-26537690D01*
X39954571Y-26750000D01*
X39974244Y-26962310D01*
X40032595Y-27167389D01*
X40127634Y-27358255D01*
X40256128Y-27528407D01*
X40256135Y-27528413D01*
X40408527Y-27667339D01*
X40438793Y-27720514D01*
X40432022Y-27781324D01*
X40390801Y-27826540D01*
X40341831Y-27839500D01*
X39338169Y-27839500D01*
X39279978Y-27820593D01*
X39244014Y-27771093D01*
X39244014Y-27709907D01*
X39271473Y-27667339D01*
X39338713Y-27606040D01*
X39423872Y-27528407D01*
X39552366Y-27358255D01*
X39647405Y-27167389D01*
X39705756Y-26962310D01*
X39725429Y-26750000D01*
X39705756Y-26537690D01*
X39647405Y-26332611D01*
X39552366Y-26141745D01*
X39423872Y-25971593D01*
X39322222Y-25878926D01*
X39266307Y-25827952D01*
X39266300Y-25827946D01*
X39085024Y-25715705D01*
X39085019Y-25715702D01*
X39038271Y-25697592D01*
X38886198Y-25638679D01*
X38886197Y-25638678D01*
X38886195Y-25638678D01*
X38676610Y-25599500D01*
X38463390Y-25599500D01*
X38253804Y-25638678D01*
X38054980Y-25715702D01*
X38054975Y-25715705D01*
X37873699Y-25827946D01*
X37873692Y-25827952D01*
X37716135Y-25971586D01*
X37716131Y-25971589D01*
X37716128Y-25971593D01*
X37716125Y-25971597D01*
X37587635Y-26141743D01*
X37587630Y-26141752D01*
X37492596Y-26332608D01*
X37434244Y-26537688D01*
X37434244Y-26537690D01*
X37414571Y-26750000D01*
X37434244Y-26962310D01*
X37492595Y-27167389D01*
X37587634Y-27358255D01*
X37716128Y-27528407D01*
X37716135Y-27528413D01*
X37868527Y-27667339D01*
X37898793Y-27720514D01*
X37892022Y-27781324D01*
X37850801Y-27826540D01*
X37801831Y-27839500D01*
X36798169Y-27839500D01*
X36739978Y-27820593D01*
X36704014Y-27771093D01*
X36704014Y-27709907D01*
X36731473Y-27667339D01*
X36798713Y-27606040D01*
X36883872Y-27528407D01*
X37012366Y-27358255D01*
X37107405Y-27167389D01*
X37165756Y-26962310D01*
X37185429Y-26750000D01*
X37165756Y-26537690D01*
X37107405Y-26332611D01*
X37012366Y-26141745D01*
X36883872Y-25971593D01*
X36782222Y-25878926D01*
X36726307Y-25827952D01*
X36726300Y-25827946D01*
X36545024Y-25715705D01*
X36545019Y-25715702D01*
X36498271Y-25697592D01*
X36346198Y-25638679D01*
X36346197Y-25638678D01*
X36346195Y-25638678D01*
X36136610Y-25599500D01*
X35923390Y-25599500D01*
X35713804Y-25638678D01*
X35514980Y-25715702D01*
X35514975Y-25715705D01*
X35333699Y-25827946D01*
X35333692Y-25827952D01*
X35176135Y-25971586D01*
X35176131Y-25971589D01*
X35176128Y-25971593D01*
X35176125Y-25971597D01*
X35047635Y-26141743D01*
X35047630Y-26141752D01*
X35027621Y-26181936D01*
X34984758Y-26225599D01*
X34924417Y-26235728D01*
X34869646Y-26208455D01*
X34841366Y-26154197D01*
X34840000Y-26137808D01*
X34840000Y-25852175D01*
X34833598Y-25792629D01*
X34833596Y-25792618D01*
X34783353Y-25657911D01*
X34783352Y-25657909D01*
X34697192Y-25542815D01*
X34697184Y-25542807D01*
X34582090Y-25456647D01*
X34582088Y-25456646D01*
X34447381Y-25406403D01*
X34447370Y-25406401D01*
X34387824Y-25400000D01*
X33740001Y-25400000D01*
X33740000Y-25400001D01*
X33740000Y-26314498D01*
X33632315Y-26265320D01*
X33525763Y-26250000D01*
X33454237Y-26250000D01*
X33347685Y-26265320D01*
X33240000Y-26314498D01*
X33240000Y-25400001D01*
X33239999Y-25400000D01*
X32592176Y-25400000D01*
X32532629Y-25406401D01*
X32532618Y-25406403D01*
X32397911Y-25456646D01*
X32397909Y-25456647D01*
X32282815Y-25542807D01*
X32282807Y-25542815D01*
X32196647Y-25657909D01*
X32196646Y-25657911D01*
X32146403Y-25792618D01*
X32146401Y-25792629D01*
X32140000Y-25852175D01*
X32140000Y-26499999D01*
X32140001Y-26500000D01*
X33056314Y-26500000D01*
X33030507Y-26540156D01*
X32990000Y-26678111D01*
X32990000Y-26821889D01*
X33030507Y-26959844D01*
X33056314Y-27000000D01*
X32140001Y-27000000D01*
X32140000Y-27000001D01*
X32140000Y-27647824D01*
X32139999Y-27647824D01*
X32146401Y-27707370D01*
X32147826Y-27713398D01*
X32146190Y-27713784D01*
X32148473Y-27767032D01*
X32114662Y-27818027D01*
X32057335Y-27839409D01*
X32053095Y-27839500D01*
X29639673Y-27839500D01*
X29581482Y-27820593D01*
X29545518Y-27771093D01*
X29545518Y-27709907D01*
X29549103Y-27700523D01*
X29562585Y-27669991D01*
X29565500Y-27644865D01*
X29565499Y-25925180D01*
X29565621Y-25921811D01*
X29565499Y-25919610D01*
X29565499Y-25855139D01*
X29565499Y-25855136D01*
X29562585Y-25830009D01*
X29551397Y-25804673D01*
X29549506Y-25799673D01*
X29548306Y-25795898D01*
X29546496Y-25792618D01*
X29545438Y-25790702D01*
X29543504Y-25786797D01*
X29517206Y-25727235D01*
X29511994Y-25722023D01*
X29495311Y-25699835D01*
X29494078Y-25697599D01*
X29494076Y-25697597D01*
X29494076Y-25697596D01*
X29139496Y-25267034D01*
X28888079Y-24961741D01*
X28865682Y-24904802D01*
X28865500Y-24898806D01*
X28865500Y-21880594D01*
X28869197Y-21853792D01*
X28885577Y-21795548D01*
X28917221Y-21683027D01*
X28951176Y-21632130D01*
X28983527Y-21615173D01*
X29147887Y-21564838D01*
X29176873Y-21560500D01*
X35982513Y-21560500D01*
X36013118Y-21565349D01*
X36521358Y-21730558D01*
X36521361Y-21730558D01*
X36524701Y-21731644D01*
X36526953Y-21732437D01*
X36527632Y-21732694D01*
X36527635Y-21732696D01*
X36681015Y-21770500D01*
X36681018Y-21770500D01*
X36838982Y-21770500D01*
X36838985Y-21770500D01*
X36992365Y-21732696D01*
X37132240Y-21659283D01*
X37250483Y-21554530D01*
X37340220Y-21424523D01*
X37396237Y-21276818D01*
X37415278Y-21120000D01*
X37411506Y-21088938D01*
X37396237Y-20963183D01*
X37396237Y-20963182D01*
X37340220Y-20815477D01*
X37258983Y-20697784D01*
X37250484Y-20685471D01*
X37222203Y-20660416D01*
X37132240Y-20580717D01*
X37054004Y-20539655D01*
X36992364Y-20507303D01*
X36838987Y-20469500D01*
X36838985Y-20469500D01*
X36681015Y-20469500D01*
X36681011Y-20469500D01*
X36681010Y-20469501D01*
X36538848Y-20504540D01*
X36536330Y-20505091D01*
X36531057Y-20506102D01*
X36014867Y-20655593D01*
X35987328Y-20659500D01*
X30237688Y-20659500D01*
X30179497Y-20640593D01*
X30143533Y-20591093D01*
X30143533Y-20529907D01*
X30177419Y-20481959D01*
X30202621Y-20462621D01*
X30290861Y-20347625D01*
X30304647Y-20314339D01*
X30315730Y-20294439D01*
X30322283Y-20285326D01*
X30475016Y-19959709D01*
X30494637Y-19931754D01*
X33637395Y-16788996D01*
X33691910Y-16761221D01*
X33752342Y-16770792D01*
X33795607Y-16814057D01*
X33805550Y-16846079D01*
X33823670Y-16983709D01*
X33867903Y-17090500D01*
X33879139Y-17117625D01*
X33967379Y-17232621D01*
X34082375Y-17320861D01*
X34216291Y-17376330D01*
X34360000Y-17395250D01*
X34503709Y-17376330D01*
X34637625Y-17320861D01*
X34752621Y-17232621D01*
X34840861Y-17117625D01*
X34896330Y-16983709D01*
X34915250Y-16840000D01*
X34911834Y-16814057D01*
X34896330Y-16696293D01*
X34896330Y-16696291D01*
X34885718Y-16670673D01*
X34878996Y-16645456D01*
X34878285Y-16639946D01*
X34873444Y-16625000D01*
X43044571Y-16625000D01*
X43064244Y-16837311D01*
X43082010Y-16899749D01*
X43122595Y-17042389D01*
X43217634Y-17233255D01*
X43346128Y-17403407D01*
X43366684Y-17422146D01*
X43503692Y-17547047D01*
X43503699Y-17547053D01*
X43540755Y-17569997D01*
X43684981Y-17659298D01*
X43883802Y-17736321D01*
X44093390Y-17775500D01*
X44306610Y-17775500D01*
X44516198Y-17736321D01*
X44715019Y-17659298D01*
X44896302Y-17547052D01*
X45053872Y-17403407D01*
X45182366Y-17233255D01*
X45277405Y-17042389D01*
X45335756Y-16837310D01*
X45355429Y-16625000D01*
X45335756Y-16412690D01*
X45277405Y-16207611D01*
X45182366Y-16016745D01*
X45053872Y-15846593D01*
X44919770Y-15724342D01*
X44896307Y-15702952D01*
X44896300Y-15702946D01*
X44715024Y-15590705D01*
X44715019Y-15590702D01*
X44516195Y-15513678D01*
X44306610Y-15474500D01*
X44093390Y-15474500D01*
X43883804Y-15513678D01*
X43684980Y-15590702D01*
X43684975Y-15590705D01*
X43503699Y-15702946D01*
X43503692Y-15702952D01*
X43346135Y-15846586D01*
X43346131Y-15846589D01*
X43346128Y-15846593D01*
X43346125Y-15846597D01*
X43217635Y-16016743D01*
X43217630Y-16016752D01*
X43122596Y-16207608D01*
X43064244Y-16412688D01*
X43044571Y-16625000D01*
X34873444Y-16625000D01*
X34765318Y-16291194D01*
X34760500Y-16260687D01*
X34760500Y-14085000D01*
X43044571Y-14085000D01*
X43064244Y-14297311D01*
X43070700Y-14320000D01*
X43122595Y-14502389D01*
X43217634Y-14693255D01*
X43346128Y-14863407D01*
X43416734Y-14927773D01*
X43503692Y-15007047D01*
X43503699Y-15007053D01*
X43607389Y-15071255D01*
X43684981Y-15119298D01*
X43883802Y-15196321D01*
X44093390Y-15235500D01*
X44306610Y-15235500D01*
X44516198Y-15196321D01*
X44715019Y-15119298D01*
X44896302Y-15007052D01*
X45053872Y-14863407D01*
X45182366Y-14693255D01*
X45277405Y-14502389D01*
X45335756Y-14297310D01*
X45355429Y-14085000D01*
X45335756Y-13872690D01*
X45277405Y-13667611D01*
X45182366Y-13476745D01*
X45053872Y-13306593D01*
X44910852Y-13176212D01*
X44896307Y-13162952D01*
X44896300Y-13162946D01*
X44715024Y-13050705D01*
X44715019Y-13050702D01*
X44516198Y-12973679D01*
X44516197Y-12973678D01*
X44516195Y-12973678D01*
X44306610Y-12934500D01*
X44093390Y-12934500D01*
X43883804Y-12973678D01*
X43684980Y-13050702D01*
X43684975Y-13050705D01*
X43503699Y-13162946D01*
X43503692Y-13162952D01*
X43346135Y-13306586D01*
X43346131Y-13306589D01*
X43346128Y-13306593D01*
X43346125Y-13306597D01*
X43217635Y-13476743D01*
X43217630Y-13476752D01*
X43122596Y-13667608D01*
X43064244Y-13872688D01*
X43044571Y-14085000D01*
X34760500Y-14085000D01*
X34760500Y-9586900D01*
X34779407Y-9528709D01*
X34789496Y-9516896D01*
X39466896Y-4839496D01*
X39521413Y-4811719D01*
X39536900Y-4810500D01*
X43183432Y-4810500D01*
X43183433Y-4810500D01*
X43206382Y-4803043D01*
X43221465Y-4799421D01*
X43245304Y-4795646D01*
X43266802Y-4784690D01*
X43281151Y-4778748D01*
X43304090Y-4771296D01*
X43323612Y-4757111D01*
X43336849Y-4749000D01*
X43358342Y-4738050D01*
X43375261Y-4721129D01*
X43375265Y-4721127D01*
X43380906Y-4715485D01*
X43380909Y-4715484D01*
X45192078Y-2904313D01*
X45231084Y-2880297D01*
X46493539Y-2464134D01*
X46499930Y-2462492D01*
X46506198Y-2461321D01*
X46528547Y-2452661D01*
X46530915Y-2451814D01*
X46604325Y-2427616D01*
X46610414Y-2425355D01*
X46610417Y-2425354D01*
X46627216Y-2418547D01*
X46631658Y-2415510D01*
X46651752Y-2404932D01*
X46705019Y-2384298D01*
X46886302Y-2272052D01*
X47043872Y-2128407D01*
X47172366Y-1958255D01*
X47267405Y-1767389D01*
X47325756Y-1562310D01*
X47345429Y-1350000D01*
X47325756Y-1137690D01*
X47267405Y-932611D01*
X47172366Y-741745D01*
X47043872Y-571593D01*
X46990372Y-522821D01*
X46891473Y-432661D01*
X46861207Y-379486D01*
X46867978Y-318676D01*
X46909199Y-273460D01*
X46958169Y-260500D01*
X47961831Y-260500D01*
X48020022Y-279407D01*
G37*
%TD.AperFunction*%
%TA.AperFunction,Conductor*%
G36*
X49634176Y-277581D02*
G01*
X49635068Y-277632D01*
X49640588Y-278254D01*
X49651806Y-280160D01*
X49939095Y-328972D01*
X49944474Y-330200D01*
X50235433Y-414024D01*
X50240673Y-415858D01*
X50520394Y-531722D01*
X50525394Y-534129D01*
X50790391Y-680588D01*
X50795088Y-683540D01*
X51042016Y-858744D01*
X51046354Y-862203D01*
X51272121Y-1063961D01*
X51276038Y-1067878D01*
X51461950Y-1275913D01*
X51477792Y-1293640D01*
X51481255Y-1297983D01*
X51656459Y-1544911D01*
X51659415Y-1549615D01*
X51805867Y-1814600D01*
X51808277Y-1819605D01*
X51924141Y-2099326D01*
X51925976Y-2104569D01*
X51974226Y-2272047D01*
X52006564Y-2384296D01*
X52009795Y-2395509D01*
X52011029Y-2400917D01*
X52042208Y-2584421D01*
X52061746Y-2699411D01*
X52062367Y-2704932D01*
X52079422Y-3008608D01*
X52079500Y-3011384D01*
X52079500Y-25088615D01*
X52079422Y-25091391D01*
X52062367Y-25395067D01*
X52061746Y-25400588D01*
X52011282Y-25697599D01*
X52011031Y-25699074D01*
X52009795Y-25704490D01*
X51925976Y-25995430D01*
X51924141Y-26000673D01*
X51808277Y-26280394D01*
X51805867Y-26285399D01*
X51659415Y-26550384D01*
X51656459Y-26555088D01*
X51481255Y-26802016D01*
X51477792Y-26806359D01*
X51276044Y-27032115D01*
X51272115Y-27036044D01*
X51046359Y-27237792D01*
X51042016Y-27241255D01*
X50795088Y-27416459D01*
X50790384Y-27419415D01*
X50525399Y-27565867D01*
X50520394Y-27568277D01*
X50240673Y-27684141D01*
X50235430Y-27685976D01*
X49944490Y-27769795D01*
X49939078Y-27771029D01*
X49882303Y-27780676D01*
X49640588Y-27821745D01*
X49635068Y-27822367D01*
X49514941Y-27829114D01*
X49455782Y-27813500D01*
X49417099Y-27766094D01*
X49413668Y-27705005D01*
X49442693Y-27657109D01*
X49583872Y-27528407D01*
X49712366Y-27358255D01*
X49807405Y-27167389D01*
X49865756Y-26962310D01*
X49885429Y-26750000D01*
X49865756Y-26537690D01*
X49807405Y-26332611D01*
X49805794Y-26329375D01*
X49795932Y-26309568D01*
X49788586Y-26289755D01*
X49787512Y-26285517D01*
X49189632Y-24991763D01*
X49180500Y-24950233D01*
X49180500Y-21229999D01*
X49554540Y-21229999D01*
X49559229Y-21274612D01*
X49559500Y-21279790D01*
X49559500Y-21324649D01*
X49568824Y-21368519D01*
X49569634Y-21373637D01*
X49574325Y-21418254D01*
X49588188Y-21460919D01*
X49589530Y-21465927D01*
X49598856Y-21509805D01*
X49617100Y-21550781D01*
X49618958Y-21555620D01*
X49632821Y-21598284D01*
X49632823Y-21598289D01*
X49655248Y-21637129D01*
X49657602Y-21641749D01*
X49675848Y-21682729D01*
X49702211Y-21719015D01*
X49705034Y-21723362D01*
X49727467Y-21762217D01*
X49727469Y-21762219D01*
X49757483Y-21795552D01*
X49760747Y-21799582D01*
X49787110Y-21835869D01*
X49787112Y-21835871D01*
X49809929Y-21856416D01*
X49820446Y-21865885D01*
X49824112Y-21869551D01*
X49854129Y-21902888D01*
X49854131Y-21902890D01*
X49872022Y-21915887D01*
X49890417Y-21929252D01*
X49894447Y-21932516D01*
X49927780Y-21962530D01*
X49927782Y-21962532D01*
X49966636Y-21984965D01*
X49970978Y-21987784D01*
X50007270Y-22014151D01*
X50048251Y-22032396D01*
X50052862Y-22034746D01*
X50091712Y-22057177D01*
X50091713Y-22057177D01*
X50091716Y-22057179D01*
X50134389Y-22071043D01*
X50139210Y-22072894D01*
X50180197Y-22091144D01*
X50224079Y-22100470D01*
X50229079Y-22101810D01*
X50271744Y-22115674D01*
X50316364Y-22120363D01*
X50321467Y-22121171D01*
X50365354Y-22130500D01*
X50365357Y-22130500D01*
X50554644Y-22130500D01*
X50554646Y-22130500D01*
X50598528Y-22121172D01*
X50603636Y-22120363D01*
X50648256Y-22115674D01*
X50690919Y-22101811D01*
X50695920Y-22100470D01*
X50739803Y-22091144D01*
X50780789Y-22072894D01*
X50785618Y-22071041D01*
X50828284Y-22057179D01*
X50857312Y-22040418D01*
X50867133Y-22034749D01*
X50871754Y-22032394D01*
X50875142Y-22030885D01*
X50912730Y-22014151D01*
X50949021Y-21987784D01*
X50953348Y-21984973D01*
X50992216Y-21962533D01*
X51025575Y-21932495D01*
X51029568Y-21929262D01*
X51065871Y-21902888D01*
X51095905Y-21869530D01*
X51099530Y-21865905D01*
X51132888Y-21835871D01*
X51159262Y-21799568D01*
X51162495Y-21795575D01*
X51192533Y-21762216D01*
X51214973Y-21723348D01*
X51217788Y-21719015D01*
X51244151Y-21682730D01*
X51262394Y-21641754D01*
X51264749Y-21637133D01*
X51277429Y-21615170D01*
X51287179Y-21598284D01*
X51301042Y-21555614D01*
X51302898Y-21550781D01*
X51321144Y-21509803D01*
X51330470Y-21465920D01*
X51331811Y-21460919D01*
X51332341Y-21459285D01*
X51345674Y-21418256D01*
X51350363Y-21373636D01*
X51351173Y-21368524D01*
X51357271Y-21339835D01*
X51360500Y-21324646D01*
X51360500Y-21279790D01*
X51360771Y-21274612D01*
X51361590Y-21266818D01*
X51365460Y-21230000D01*
X51360771Y-21185385D01*
X51360500Y-21180208D01*
X51360500Y-21135357D01*
X51360500Y-21135354D01*
X51351171Y-21091467D01*
X51350363Y-21086363D01*
X51345674Y-21041744D01*
X51331810Y-20999079D01*
X51330469Y-20994073D01*
X51321144Y-20950197D01*
X51302894Y-20909210D01*
X51301041Y-20904382D01*
X51301038Y-20904373D01*
X51287179Y-20861716D01*
X51264744Y-20822859D01*
X51262393Y-20818243D01*
X51244151Y-20777270D01*
X51217784Y-20740978D01*
X51214965Y-20736636D01*
X51192532Y-20697782D01*
X51192530Y-20697780D01*
X51162516Y-20664447D01*
X51159256Y-20660422D01*
X51144850Y-20640593D01*
X51132890Y-20624131D01*
X51132888Y-20624129D01*
X51099551Y-20594112D01*
X51095885Y-20590446D01*
X51065870Y-20557111D01*
X51029582Y-20530747D01*
X51025552Y-20527483D01*
X50992219Y-20497469D01*
X50992217Y-20497467D01*
X50953362Y-20475034D01*
X50949020Y-20472214D01*
X50912730Y-20445849D01*
X50912729Y-20445848D01*
X50871749Y-20427602D01*
X50867129Y-20425248D01*
X50828289Y-20402823D01*
X50828284Y-20402821D01*
X50785620Y-20388958D01*
X50780781Y-20387100D01*
X50739805Y-20368856D01*
X50704797Y-20361415D01*
X50695925Y-20359529D01*
X50690919Y-20358188D01*
X50648254Y-20344325D01*
X50603637Y-20339634D01*
X50598519Y-20338824D01*
X50554650Y-20329500D01*
X50554646Y-20329500D01*
X50365354Y-20329500D01*
X50365350Y-20329500D01*
X50321481Y-20338824D01*
X50316363Y-20339634D01*
X50271746Y-20344325D01*
X50229082Y-20358186D01*
X50224077Y-20359527D01*
X50180203Y-20368854D01*
X50180194Y-20368857D01*
X50139211Y-20387103D01*
X50134373Y-20388960D01*
X50091713Y-20402822D01*
X50052860Y-20425253D01*
X50048243Y-20427605D01*
X50007271Y-20445847D01*
X50007270Y-20445848D01*
X49970983Y-20472211D01*
X49966638Y-20475032D01*
X49927787Y-20497464D01*
X49927781Y-20497468D01*
X49894443Y-20527486D01*
X49890416Y-20530747D01*
X49854127Y-20557113D01*
X49824111Y-20590448D01*
X49820448Y-20594111D01*
X49787113Y-20624127D01*
X49760747Y-20660416D01*
X49757486Y-20664443D01*
X49727468Y-20697781D01*
X49727464Y-20697787D01*
X49705032Y-20736638D01*
X49702211Y-20740983D01*
X49675848Y-20777270D01*
X49675847Y-20777271D01*
X49657605Y-20818243D01*
X49655253Y-20822860D01*
X49632822Y-20861713D01*
X49618960Y-20904373D01*
X49617103Y-20909211D01*
X49598857Y-20950194D01*
X49598854Y-20950203D01*
X49589527Y-20994077D01*
X49588186Y-20999082D01*
X49574325Y-21041746D01*
X49569634Y-21086363D01*
X49568824Y-21091481D01*
X49559500Y-21135350D01*
X49559500Y-21180208D01*
X49559229Y-21185385D01*
X49554540Y-21229999D01*
X49180500Y-21229999D01*
X49180500Y-6929999D01*
X49554540Y-6929999D01*
X49559229Y-6974612D01*
X49559500Y-6979790D01*
X49559500Y-7024649D01*
X49568824Y-7068519D01*
X49569634Y-7073637D01*
X49574325Y-7118254D01*
X49588188Y-7160919D01*
X49589530Y-7165927D01*
X49598856Y-7209805D01*
X49617100Y-7250781D01*
X49618958Y-7255620D01*
X49632821Y-7298284D01*
X49632823Y-7298289D01*
X49655248Y-7337129D01*
X49657602Y-7341749D01*
X49675848Y-7382729D01*
X49702211Y-7419015D01*
X49705034Y-7423362D01*
X49727467Y-7462217D01*
X49727469Y-7462219D01*
X49757483Y-7495552D01*
X49760747Y-7499582D01*
X49787111Y-7535870D01*
X49820446Y-7565885D01*
X49824112Y-7569551D01*
X49854129Y-7602888D01*
X49854131Y-7602890D01*
X49872022Y-7615887D01*
X49890417Y-7629252D01*
X49894447Y-7632516D01*
X49927780Y-7662530D01*
X49927782Y-7662532D01*
X49966636Y-7684965D01*
X49970978Y-7687784D01*
X50007270Y-7714151D01*
X50048251Y-7732396D01*
X50052862Y-7734746D01*
X50091712Y-7757177D01*
X50091713Y-7757177D01*
X50091716Y-7757179D01*
X50134389Y-7771043D01*
X50139210Y-7772894D01*
X50180197Y-7791144D01*
X50224079Y-7800470D01*
X50229079Y-7801810D01*
X50271744Y-7815674D01*
X50316364Y-7820363D01*
X50321467Y-7821171D01*
X50365354Y-7830500D01*
X50365357Y-7830500D01*
X50554644Y-7830500D01*
X50554646Y-7830500D01*
X50598528Y-7821172D01*
X50603636Y-7820363D01*
X50648256Y-7815674D01*
X50690919Y-7801811D01*
X50695920Y-7800470D01*
X50739803Y-7791144D01*
X50780789Y-7772894D01*
X50785618Y-7771041D01*
X50828284Y-7757179D01*
X50857312Y-7740418D01*
X50867133Y-7734749D01*
X50871754Y-7732394D01*
X50875142Y-7730885D01*
X50912730Y-7714151D01*
X50949021Y-7687784D01*
X50953348Y-7684973D01*
X50992216Y-7662533D01*
X51025575Y-7632495D01*
X51029568Y-7629262D01*
X51065871Y-7602888D01*
X51095905Y-7569530D01*
X51099530Y-7565905D01*
X51132888Y-7535871D01*
X51159262Y-7499568D01*
X51162495Y-7495575D01*
X51192533Y-7462216D01*
X51214973Y-7423348D01*
X51217788Y-7419015D01*
X51244151Y-7382730D01*
X51262394Y-7341754D01*
X51264749Y-7337133D01*
X51270418Y-7327312D01*
X51287179Y-7298284D01*
X51301042Y-7255614D01*
X51302898Y-7250781D01*
X51321144Y-7209803D01*
X51330470Y-7165920D01*
X51331811Y-7160919D01*
X51332341Y-7159285D01*
X51345674Y-7118256D01*
X51350363Y-7073636D01*
X51351173Y-7068524D01*
X51360499Y-7024649D01*
X51360500Y-7024646D01*
X51360500Y-6979790D01*
X51360771Y-6974612D01*
X51365460Y-6930000D01*
X51360771Y-6885385D01*
X51360500Y-6880208D01*
X51360500Y-6835357D01*
X51360500Y-6835354D01*
X51351171Y-6791467D01*
X51350363Y-6786363D01*
X51345674Y-6741744D01*
X51331810Y-6699079D01*
X51330469Y-6694073D01*
X51321144Y-6650197D01*
X51302894Y-6609210D01*
X51301041Y-6604382D01*
X51301038Y-6604373D01*
X51287179Y-6561716D01*
X51264744Y-6522859D01*
X51262393Y-6518243D01*
X51244151Y-6477270D01*
X51217784Y-6440978D01*
X51214965Y-6436636D01*
X51192532Y-6397782D01*
X51192530Y-6397780D01*
X51162516Y-6364447D01*
X51159256Y-6360422D01*
X51145887Y-6342022D01*
X51132890Y-6324131D01*
X51132888Y-6324129D01*
X51099551Y-6294112D01*
X51095885Y-6290446D01*
X51065870Y-6257111D01*
X51029582Y-6230747D01*
X51025552Y-6227483D01*
X50992219Y-6197469D01*
X50992217Y-6197467D01*
X50953362Y-6175034D01*
X50949020Y-6172214D01*
X50912730Y-6145849D01*
X50912729Y-6145848D01*
X50871749Y-6127602D01*
X50867129Y-6125248D01*
X50828289Y-6102823D01*
X50828284Y-6102821D01*
X50785620Y-6088958D01*
X50780781Y-6087100D01*
X50739805Y-6068856D01*
X50704797Y-6061415D01*
X50695925Y-6059529D01*
X50690919Y-6058188D01*
X50648254Y-6044325D01*
X50603637Y-6039634D01*
X50598519Y-6038824D01*
X50554650Y-6029500D01*
X50554646Y-6029500D01*
X50365354Y-6029500D01*
X50365350Y-6029500D01*
X50321481Y-6038824D01*
X50316363Y-6039634D01*
X50271746Y-6044325D01*
X50229082Y-6058186D01*
X50224077Y-6059527D01*
X50180203Y-6068854D01*
X50180194Y-6068857D01*
X50139211Y-6087103D01*
X50134373Y-6088960D01*
X50091713Y-6102822D01*
X50052860Y-6125253D01*
X50048243Y-6127605D01*
X50007271Y-6145847D01*
X50007270Y-6145848D01*
X49970983Y-6172211D01*
X49966638Y-6175032D01*
X49927787Y-6197464D01*
X49927781Y-6197468D01*
X49894443Y-6227486D01*
X49890416Y-6230747D01*
X49854127Y-6257113D01*
X49824111Y-6290448D01*
X49820448Y-6294111D01*
X49787113Y-6324127D01*
X49760747Y-6360416D01*
X49757486Y-6364443D01*
X49727468Y-6397781D01*
X49727464Y-6397787D01*
X49705032Y-6436638D01*
X49702211Y-6440983D01*
X49675848Y-6477270D01*
X49675847Y-6477271D01*
X49657605Y-6518243D01*
X49655253Y-6522860D01*
X49632822Y-6561713D01*
X49618960Y-6604373D01*
X49617103Y-6609211D01*
X49598857Y-6650194D01*
X49598854Y-6650203D01*
X49589527Y-6694077D01*
X49588186Y-6699082D01*
X49574325Y-6741746D01*
X49569634Y-6786363D01*
X49568824Y-6791481D01*
X49559500Y-6835350D01*
X49559500Y-6880208D01*
X49559229Y-6885385D01*
X49554540Y-6929999D01*
X49180500Y-6929999D01*
X49180500Y-3149766D01*
X49189632Y-3108236D01*
X49738943Y-1919582D01*
X49788737Y-1811833D01*
X49790094Y-1808741D01*
X49795136Y-1796552D01*
X49795137Y-1796541D01*
X49796023Y-1793566D01*
X49802301Y-1777636D01*
X49807405Y-1767389D01*
X49865756Y-1562310D01*
X49885429Y-1350000D01*
X49865756Y-1137690D01*
X49807405Y-932611D01*
X49712366Y-741745D01*
X49583872Y-571593D01*
X49540136Y-531722D01*
X49442694Y-442890D01*
X49412428Y-389715D01*
X49419199Y-328905D01*
X49460420Y-283689D01*
X49514937Y-270885D01*
X49634176Y-277581D01*
G37*
%TD.AperFunction*%
%TA.AperFunction,Conductor*%
G36*
X-883720Y-470453D02*
G01*
X-860305Y-526981D01*
X-860000Y-534748D01*
X-860000Y-1099999D01*
X-859999Y-1100000D01*
X56314Y-1100000D01*
X30507Y-1140156D01*
X-10000Y-1278111D01*
X-10000Y-1421889D01*
X30507Y-1559844D01*
X56314Y-1600000D01*
X-859999Y-1600000D01*
X-860000Y-1600001D01*
X-860000Y-2247824D01*
X-860001Y-2247824D01*
X-853599Y-2307370D01*
X-853597Y-2307381D01*
X-803354Y-2442088D01*
X-803353Y-2442090D01*
X-717193Y-2557184D01*
X-717185Y-2557192D01*
X-602091Y-2643352D01*
X-602089Y-2643353D01*
X-467382Y-2693596D01*
X-467371Y-2693598D01*
X-407824Y-2700000D01*
X239999Y-2700000D01*
X240000Y-2699999D01*
X240000Y-1785501D01*
X347685Y-1834680D01*
X454237Y-1850000D01*
X525763Y-1850000D01*
X632315Y-1834680D01*
X740000Y-1785501D01*
X740000Y-2699999D01*
X740001Y-2700000D01*
X1387824Y-2700000D01*
X1447370Y-2693598D01*
X1447381Y-2693596D01*
X1582088Y-2643353D01*
X1582090Y-2643352D01*
X1697184Y-2557192D01*
X1697192Y-2557184D01*
X1783352Y-2442090D01*
X1783353Y-2442088D01*
X1833596Y-2307381D01*
X1833598Y-2307370D01*
X1840000Y-2247824D01*
X1840000Y-1962191D01*
X1858907Y-1904000D01*
X1908407Y-1868036D01*
X1969593Y-1868036D01*
X2019093Y-1904000D01*
X2027621Y-1918063D01*
X2047630Y-1958248D01*
X2047632Y-1958252D01*
X2047634Y-1958255D01*
X2176128Y-2128407D01*
X2217788Y-2166385D01*
X2333692Y-2272047D01*
X2333699Y-2272053D01*
X2422180Y-2326838D01*
X2514981Y-2384298D01*
X2591983Y-2414128D01*
X2598166Y-2417029D01*
X2619648Y-2428982D01*
X2697026Y-2454877D01*
X2699148Y-2455643D01*
X2713802Y-2461321D01*
X2716040Y-2461739D01*
X2722652Y-2463453D01*
X3984732Y-2885831D01*
X4023317Y-2909709D01*
X4201949Y-3088342D01*
X4291657Y-3178049D01*
X4291658Y-3178050D01*
X4313149Y-3189000D01*
X4326395Y-3197117D01*
X4345910Y-3211296D01*
X4345912Y-3211296D01*
X4345913Y-3211297D01*
X4368852Y-3218750D01*
X4383195Y-3224690D01*
X4404696Y-3235646D01*
X4428524Y-3239419D01*
X4443633Y-3243047D01*
X4452194Y-3245828D01*
X4466567Y-3250499D01*
X4496437Y-3250499D01*
X4496461Y-3250500D01*
X4498481Y-3250500D01*
X5873099Y-3250500D01*
X5931290Y-3269407D01*
X5943103Y-3279496D01*
X19203365Y-16539757D01*
X19224337Y-16570718D01*
X19363749Y-16895571D01*
X19365580Y-16899749D01*
X19365582Y-16899753D01*
X19373151Y-16910698D01*
X19383190Y-16929122D01*
X19399138Y-16967624D01*
X19399139Y-16967625D01*
X19447180Y-17030233D01*
X19467604Y-17087908D01*
X19450227Y-17146574D01*
X19401686Y-17183821D01*
X19368638Y-17189500D01*
X19066876Y-17189500D01*
X19037886Y-17185160D01*
X18523591Y-17027655D01*
X18523073Y-17027477D01*
X18368990Y-16989500D01*
X18368985Y-16989500D01*
X18211015Y-16989500D01*
X18211009Y-16989500D01*
X18056923Y-17027478D01*
X18056423Y-17027650D01*
X17542114Y-17185160D01*
X17513124Y-17189500D01*
X9638087Y-17189500D01*
X9632541Y-17189189D01*
X9592966Y-17184730D01*
X9592961Y-17184730D01*
X9534510Y-17195789D01*
X9475714Y-17204651D01*
X9468632Y-17206836D01*
X9468503Y-17206418D01*
X9466386Y-17207114D01*
X9466531Y-17207526D01*
X9459528Y-17209976D01*
X9441339Y-17219588D01*
X9406926Y-17237777D01*
X9371647Y-17254766D01*
X9353359Y-17263574D01*
X9347233Y-17267751D01*
X9346987Y-17267391D01*
X9345172Y-17268679D01*
X9345430Y-17269029D01*
X9339464Y-17273432D01*
X9297413Y-17315483D01*
X9253804Y-17355945D01*
X9249181Y-17361743D01*
X9248837Y-17361469D01*
X9240295Y-17372600D01*
X1454074Y-25158821D01*
X1418250Y-25181730D01*
X772275Y-25419364D01*
X77596Y-25674914D01*
X75153Y-25675872D01*
X74150Y-25676266D01*
X62623Y-25681061D01*
X62617Y-25681064D01*
X56640Y-25685149D01*
X36554Y-25695721D01*
X-15015Y-25715699D01*
X-15026Y-25715705D01*
X-196301Y-25827946D01*
X-196308Y-25827952D01*
X-353865Y-25971586D01*
X-353869Y-25971589D01*
X-353872Y-25971593D01*
X-353875Y-25971597D01*
X-482365Y-26141743D01*
X-482370Y-26141752D01*
X-577404Y-26332608D01*
X-635756Y-26537688D01*
X-635756Y-26537690D01*
X-655429Y-26750000D01*
X-635756Y-26962310D01*
X-577405Y-27167389D01*
X-482366Y-27358255D01*
X-353872Y-27528407D01*
X-353865Y-27528413D01*
X-217947Y-27652321D01*
X-187681Y-27705496D01*
X-194452Y-27766306D01*
X-235673Y-27811522D01*
X-290195Y-27824326D01*
X-325069Y-27822367D01*
X-330589Y-27821745D01*
X-544239Y-27785445D01*
X-629083Y-27771029D01*
X-634488Y-27769795D01*
X-789932Y-27725013D01*
X-925431Y-27685976D01*
X-930674Y-27684141D01*
X-1210395Y-27568277D01*
X-1215400Y-27565867D01*
X-1480385Y-27419415D01*
X-1485089Y-27416459D01*
X-1732017Y-27241255D01*
X-1736360Y-27237792D01*
X-1763556Y-27213488D01*
X-1962122Y-27036038D01*
X-1966039Y-27032121D01*
X-2167797Y-26806354D01*
X-2171256Y-26802016D01*
X-2346460Y-26555088D01*
X-2349412Y-26550391D01*
X-2495871Y-26285394D01*
X-2498278Y-26280394D01*
X-2614142Y-26000673D01*
X-2615977Y-25995430D01*
X-2622846Y-25971586D01*
X-2699800Y-25704474D01*
X-2701028Y-25699095D01*
X-2751749Y-25400572D01*
X-2752368Y-25395083D01*
X-2769423Y-25091387D01*
X-2769500Y-25088615D01*
X-2769500Y-21229999D01*
X-1995460Y-21229999D01*
X-1990771Y-21274612D01*
X-1990500Y-21279790D01*
X-1990500Y-21324649D01*
X-1981176Y-21368519D01*
X-1980366Y-21373637D01*
X-1975675Y-21418254D01*
X-1961812Y-21460919D01*
X-1960470Y-21465927D01*
X-1951144Y-21509805D01*
X-1932900Y-21550781D01*
X-1931042Y-21555620D01*
X-1917179Y-21598284D01*
X-1917177Y-21598289D01*
X-1894752Y-21637129D01*
X-1892398Y-21641749D01*
X-1874152Y-21682729D01*
X-1847789Y-21719015D01*
X-1844966Y-21723362D01*
X-1822533Y-21762217D01*
X-1822531Y-21762219D01*
X-1792517Y-21795552D01*
X-1789253Y-21799582D01*
X-1762890Y-21835869D01*
X-1762888Y-21835871D01*
X-1740071Y-21856416D01*
X-1729554Y-21865885D01*
X-1725888Y-21869551D01*
X-1695871Y-21902888D01*
X-1695869Y-21902890D01*
X-1677978Y-21915887D01*
X-1659583Y-21929252D01*
X-1655553Y-21932516D01*
X-1622220Y-21962530D01*
X-1622218Y-21962532D01*
X-1583364Y-21984965D01*
X-1579022Y-21987784D01*
X-1542730Y-22014151D01*
X-1501749Y-22032396D01*
X-1497138Y-22034746D01*
X-1458288Y-22057177D01*
X-1458287Y-22057177D01*
X-1458284Y-22057179D01*
X-1415611Y-22071043D01*
X-1410790Y-22072894D01*
X-1369803Y-22091144D01*
X-1325921Y-22100470D01*
X-1320921Y-22101810D01*
X-1278256Y-22115674D01*
X-1233636Y-22120363D01*
X-1228533Y-22121171D01*
X-1184646Y-22130500D01*
X-1184643Y-22130500D01*
X-995356Y-22130500D01*
X-995354Y-22130500D01*
X-951472Y-22121172D01*
X-946364Y-22120363D01*
X-901744Y-22115674D01*
X-859081Y-22101811D01*
X-854080Y-22100470D01*
X-810197Y-22091144D01*
X-769211Y-22072894D01*
X-764382Y-22071041D01*
X-721716Y-22057179D01*
X-692688Y-22040418D01*
X-682867Y-22034749D01*
X-678246Y-22032394D01*
X-674858Y-22030885D01*
X-637270Y-22014151D01*
X-600979Y-21987784D01*
X-596652Y-21984973D01*
X-557784Y-21962533D01*
X-524425Y-21932495D01*
X-520432Y-21929262D01*
X-484129Y-21902888D01*
X-454095Y-21869530D01*
X-450470Y-21865905D01*
X-417112Y-21835871D01*
X-390738Y-21799568D01*
X-387505Y-21795575D01*
X-357467Y-21762216D01*
X-335027Y-21723348D01*
X-332212Y-21719015D01*
X-305849Y-21682730D01*
X-287606Y-21641754D01*
X-285251Y-21637133D01*
X-272571Y-21615170D01*
X-262821Y-21598284D01*
X-248958Y-21555614D01*
X-247102Y-21550781D01*
X-228856Y-21509803D01*
X-219530Y-21465920D01*
X-218189Y-21460919D01*
X-217659Y-21459285D01*
X-204326Y-21418256D01*
X-199637Y-21373636D01*
X-198827Y-21368524D01*
X-192729Y-21339835D01*
X-189500Y-21324646D01*
X-189500Y-21279790D01*
X-189229Y-21274612D01*
X-188410Y-21266818D01*
X-184540Y-21230000D01*
X-189229Y-21185385D01*
X-189500Y-21180208D01*
X-189500Y-21135357D01*
X-189500Y-21135354D01*
X-198829Y-21091467D01*
X-199637Y-21086363D01*
X-204326Y-21041744D01*
X-218190Y-20999079D01*
X-219531Y-20994073D01*
X-228856Y-20950197D01*
X-247106Y-20909210D01*
X-248959Y-20904382D01*
X-248962Y-20904373D01*
X-262821Y-20861716D01*
X-285256Y-20822859D01*
X-287607Y-20818243D01*
X-305849Y-20777270D01*
X-332216Y-20740978D01*
X-335035Y-20736636D01*
X-357468Y-20697782D01*
X-357470Y-20697780D01*
X-387484Y-20664447D01*
X-390744Y-20660422D01*
X-405150Y-20640593D01*
X-417110Y-20624131D01*
X-417112Y-20624129D01*
X-450449Y-20594112D01*
X-454115Y-20590446D01*
X-484130Y-20557111D01*
X-520418Y-20530747D01*
X-524448Y-20527483D01*
X-557781Y-20497469D01*
X-557783Y-20497467D01*
X-596638Y-20475034D01*
X-600980Y-20472214D01*
X-637270Y-20445849D01*
X-637271Y-20445848D01*
X-678251Y-20427602D01*
X-682871Y-20425248D01*
X-721711Y-20402823D01*
X-721716Y-20402821D01*
X-764380Y-20388958D01*
X-769219Y-20387100D01*
X-810195Y-20368856D01*
X-845203Y-20361415D01*
X-854075Y-20359529D01*
X-859081Y-20358188D01*
X-901746Y-20344325D01*
X-946363Y-20339634D01*
X-951481Y-20338824D01*
X-995350Y-20329500D01*
X-995354Y-20329500D01*
X-1184646Y-20329500D01*
X-1184650Y-20329500D01*
X-1228519Y-20338824D01*
X-1233637Y-20339634D01*
X-1278254Y-20344325D01*
X-1320918Y-20358186D01*
X-1325923Y-20359527D01*
X-1369797Y-20368854D01*
X-1369806Y-20368857D01*
X-1410789Y-20387103D01*
X-1415627Y-20388960D01*
X-1458287Y-20402822D01*
X-1497140Y-20425253D01*
X-1501757Y-20427605D01*
X-1542729Y-20445847D01*
X-1542730Y-20445848D01*
X-1579017Y-20472211D01*
X-1583362Y-20475032D01*
X-1622213Y-20497464D01*
X-1622219Y-20497468D01*
X-1655557Y-20527486D01*
X-1659584Y-20530747D01*
X-1695873Y-20557113D01*
X-1725889Y-20590448D01*
X-1729552Y-20594111D01*
X-1762887Y-20624127D01*
X-1789253Y-20660416D01*
X-1792514Y-20664443D01*
X-1822532Y-20697781D01*
X-1822536Y-20697787D01*
X-1844968Y-20736638D01*
X-1847789Y-20740983D01*
X-1874152Y-20777270D01*
X-1874153Y-20777271D01*
X-1892395Y-20818243D01*
X-1894747Y-20822860D01*
X-1917178Y-20861713D01*
X-1931040Y-20904373D01*
X-1932897Y-20909211D01*
X-1951143Y-20950194D01*
X-1951146Y-20950203D01*
X-1960473Y-20994077D01*
X-1961814Y-20999082D01*
X-1975675Y-21041746D01*
X-1980366Y-21086363D01*
X-1981176Y-21091481D01*
X-1990500Y-21135350D01*
X-1990500Y-21180208D01*
X-1990771Y-21185385D01*
X-1995460Y-21229999D01*
X-2769500Y-21229999D01*
X-2769500Y-18645000D01*
X-2443368Y-18645000D01*
X-2443070Y-18646940D01*
X-2443070Y-18646941D01*
X-2372434Y-18837666D01*
X-2264853Y-19010264D01*
X-2264848Y-19010270D01*
X-2124734Y-19157669D01*
X-1957813Y-19273851D01*
X-1957802Y-19273857D01*
X-1770906Y-19354060D01*
X-1770903Y-19354061D01*
X-1571697Y-19394999D01*
X-1571689Y-19395000D01*
X-1270001Y-19395000D01*
X-1270000Y-19394999D01*
X-1270000Y-18695000D01*
X-770000Y-18695000D01*
X-770000Y-19394999D01*
X-769999Y-19395000D01*
X-519286Y-19395000D01*
X-367665Y-19379581D01*
X-367663Y-19379580D01*
X-173609Y-19318696D01*
X-173608Y-19318695D01*
X4204Y-19220002D01*
X4219Y-19219991D01*
X158525Y-19087525D01*
X158536Y-19087513D01*
X283019Y-18926693D01*
X283020Y-18926691D01*
X372586Y-18744097D01*
X398246Y-18645000D01*
X1656632Y-18645000D01*
X1656930Y-18646940D01*
X1656930Y-18646941D01*
X1727566Y-18837666D01*
X1835147Y-19010264D01*
X1835152Y-19010270D01*
X1975266Y-19157669D01*
X2142187Y-19273851D01*
X2142198Y-19273857D01*
X2329094Y-19354060D01*
X2329097Y-19354061D01*
X2528303Y-19394999D01*
X2528311Y-19395000D01*
X2929999Y-19395000D01*
X2930000Y-19394999D01*
X2930000Y-18695000D01*
X3430000Y-18695000D01*
X3430000Y-19394999D01*
X3430001Y-19395000D01*
X3780714Y-19395000D01*
X3932335Y-19379581D01*
X3932337Y-19379580D01*
X4126391Y-19318696D01*
X4126392Y-19318695D01*
X4304204Y-19220002D01*
X4304219Y-19219991D01*
X4458525Y-19087525D01*
X4458536Y-19087513D01*
X4583019Y-18926693D01*
X4583020Y-18926691D01*
X4672586Y-18744097D01*
X4698246Y-18645000D01*
X3946111Y-18645000D01*
X3985610Y-18620543D01*
X4053201Y-18531038D01*
X4083895Y-18423160D01*
X4073546Y-18311479D01*
X4023552Y-18211078D01*
X3951069Y-18145000D01*
X4703367Y-18145000D01*
X4703367Y-18144999D01*
X4703069Y-18143059D01*
X4703069Y-18143058D01*
X4632433Y-17952333D01*
X4524852Y-17779735D01*
X4524847Y-17779729D01*
X4384733Y-17632330D01*
X4217812Y-17516148D01*
X4217801Y-17516142D01*
X4030905Y-17435939D01*
X4030902Y-17435938D01*
X3831696Y-17395000D01*
X3430001Y-17395000D01*
X3430000Y-17395001D01*
X3430000Y-18095000D01*
X2930000Y-18095000D01*
X2930000Y-17481135D01*
X2948907Y-17422944D01*
X2966519Y-17404342D01*
X3067665Y-17322054D01*
X3150971Y-17204037D01*
X3199346Y-17067921D01*
X3209204Y-16923801D01*
X3206481Y-16910698D01*
X3179815Y-16782371D01*
X3179813Y-16782363D01*
X3113355Y-16654107D01*
X3113353Y-16654104D01*
X3098363Y-16638053D01*
X3014755Y-16548531D01*
X3014754Y-16548530D01*
X2891328Y-16473474D01*
X2878943Y-16470004D01*
X4824751Y-16470004D01*
X4843685Y-16638053D01*
X4843688Y-16638065D01*
X4899544Y-16797690D01*
X4899544Y-16797691D01*
X4989520Y-16940886D01*
X4989523Y-16940890D01*
X5109110Y-17060477D01*
X5109112Y-17060478D01*
X5109113Y-17060479D01*
X5246131Y-17146574D01*
X5252310Y-17150456D01*
X5316232Y-17172823D01*
X5411934Y-17206311D01*
X5411938Y-17206312D01*
X5411941Y-17206313D01*
X5411942Y-17206313D01*
X5411946Y-17206314D01*
X5579996Y-17225249D01*
X5580000Y-17225249D01*
X5580004Y-17225249D01*
X5748053Y-17206314D01*
X5748055Y-17206313D01*
X5748059Y-17206313D01*
X5754564Y-17204037D01*
X5778135Y-17195789D01*
X5907690Y-17150456D01*
X6050890Y-17060477D01*
X6170477Y-16940890D01*
X6260456Y-16797690D01*
X6315653Y-16639946D01*
X6316311Y-16638065D01*
X6316314Y-16638053D01*
X6335249Y-16470004D01*
X6335249Y-16469995D01*
X6316314Y-16301945D01*
X6316313Y-16301942D01*
X6316313Y-16301941D01*
X6296790Y-16246151D01*
X6292736Y-16224796D01*
X6292031Y-16224890D01*
X6291430Y-16220352D01*
X6291430Y-16220346D01*
X6200257Y-15820000D01*
X11274750Y-15820000D01*
X11293669Y-15963708D01*
X11293670Y-15963709D01*
X11315052Y-16015332D01*
X11349139Y-16097625D01*
X11437379Y-16212621D01*
X11552375Y-16300861D01*
X11686291Y-16356330D01*
X11830000Y-16375250D01*
X11973709Y-16356330D01*
X12107625Y-16300861D01*
X12222621Y-16212621D01*
X12310861Y-16097625D01*
X12366330Y-15963709D01*
X12385250Y-15820000D01*
X12366330Y-15676291D01*
X12355718Y-15650673D01*
X12348996Y-15625456D01*
X12348285Y-15619946D01*
X12235318Y-15271194D01*
X12230500Y-15240687D01*
X12230500Y-13399311D01*
X12235318Y-13368804D01*
X12245161Y-13338417D01*
X12348285Y-13020053D01*
X12349203Y-13013424D01*
X12355803Y-12989120D01*
X12366330Y-12963709D01*
X12385250Y-12820000D01*
X12367509Y-12685250D01*
X12366330Y-12676291D01*
X12310861Y-12542375D01*
X12222621Y-12427379D01*
X12107625Y-12339139D01*
X12107621Y-12339137D01*
X11973709Y-12283670D01*
X11973708Y-12283669D01*
X11830000Y-12264750D01*
X11686291Y-12283669D01*
X11686290Y-12283670D01*
X11552378Y-12339137D01*
X11552374Y-12339139D01*
X11437381Y-12427377D01*
X11437377Y-12427381D01*
X11349139Y-12542374D01*
X11349137Y-12542378D01*
X11293670Y-12676290D01*
X11293669Y-12676291D01*
X11274750Y-12819999D01*
X11274750Y-12820000D01*
X11293669Y-12963706D01*
X11293669Y-12963708D01*
X11293670Y-12963709D01*
X11304193Y-12989116D01*
X11304281Y-12989327D01*
X11310999Y-13014522D01*
X11311714Y-13020054D01*
X11424682Y-13368805D01*
X11429500Y-13399313D01*
X11429500Y-15240686D01*
X11424682Y-15271192D01*
X11390976Y-15375250D01*
X11311714Y-15619944D01*
X11311714Y-15619945D01*
X11310793Y-15626590D01*
X11304197Y-15650875D01*
X11293669Y-15676293D01*
X11274750Y-15819999D01*
X11274750Y-15820000D01*
X6200257Y-15820000D01*
X6167528Y-15676287D01*
X6132972Y-15524551D01*
X6130500Y-15502568D01*
X6130500Y-12637430D01*
X6132972Y-12615447D01*
X6143831Y-12567763D01*
X6291430Y-11919653D01*
X6291431Y-11919638D01*
X6291987Y-11915892D01*
X6292214Y-11915925D01*
X6296730Y-11894021D01*
X6316313Y-11838059D01*
X6316314Y-11838053D01*
X6335249Y-11670004D01*
X6335249Y-11669995D01*
X6316314Y-11501946D01*
X6316311Y-11501934D01*
X6276200Y-11387304D01*
X6260456Y-11342310D01*
X6170477Y-11199110D01*
X6050890Y-11079523D01*
X6050887Y-11079521D01*
X6050886Y-11079520D01*
X5907691Y-10989544D01*
X5748065Y-10933688D01*
X5748053Y-10933685D01*
X5580004Y-10914751D01*
X5579996Y-10914751D01*
X5411946Y-10933685D01*
X5411934Y-10933688D01*
X5252309Y-10989544D01*
X5252308Y-10989544D01*
X5109113Y-11079520D01*
X4989520Y-11199113D01*
X4899544Y-11342308D01*
X4899544Y-11342309D01*
X4843688Y-11501934D01*
X4843685Y-11501946D01*
X4824751Y-11669995D01*
X4824751Y-11670004D01*
X4843686Y-11838057D01*
X4843687Y-11838061D01*
X4863207Y-11893850D01*
X4867273Y-11915202D01*
X4867968Y-11915110D01*
X4868570Y-11919658D01*
X4932940Y-12202308D01*
X5025983Y-12610861D01*
X5027028Y-12615447D01*
X5029500Y-12637430D01*
X5029500Y-15502568D01*
X5027028Y-15524551D01*
X4868568Y-16220344D01*
X4868011Y-16224108D01*
X4867787Y-16224074D01*
X4863265Y-16245986D01*
X4843686Y-16301941D01*
X4843686Y-16301942D01*
X4824751Y-16469995D01*
X4824751Y-16470004D01*
X2878943Y-16470004D01*
X2752228Y-16434500D01*
X2644051Y-16434500D01*
X2536888Y-16449228D01*
X2404389Y-16506781D01*
X2292334Y-16597945D01*
X2209029Y-16715962D01*
X2160653Y-16852078D01*
X2150796Y-16996199D01*
X2180184Y-17137628D01*
X2180186Y-17137636D01*
X2246644Y-17265892D01*
X2246646Y-17265895D01*
X2284701Y-17306642D01*
X2310601Y-17362075D01*
X2298972Y-17422146D01*
X2254255Y-17463908D01*
X2241988Y-17468674D01*
X2233610Y-17471302D01*
X2233607Y-17471304D01*
X2055795Y-17569997D01*
X2055780Y-17570008D01*
X1901474Y-17702474D01*
X1901463Y-17702486D01*
X1776980Y-17863306D01*
X1776979Y-17863308D01*
X1687413Y-18045902D01*
X1661754Y-18145000D01*
X2413889Y-18145000D01*
X2374390Y-18169457D01*
X2306799Y-18258962D01*
X2276105Y-18366840D01*
X2286454Y-18478521D01*
X2336448Y-18578922D01*
X2408931Y-18645000D01*
X1656632Y-18645000D01*
X398246Y-18645000D01*
X-403889Y-18645000D01*
X-364390Y-18620543D01*
X-296799Y-18531038D01*
X-266105Y-18423160D01*
X-276454Y-18311479D01*
X-326448Y-18211078D01*
X-398931Y-18145000D01*
X403367Y-18145000D01*
X403367Y-18144999D01*
X403069Y-18143059D01*
X403069Y-18143058D01*
X332433Y-17952333D01*
X224852Y-17779735D01*
X224847Y-17779729D01*
X84733Y-17632330D01*
X-82188Y-17516148D01*
X-82199Y-17516142D01*
X-269095Y-17435939D01*
X-269098Y-17435938D01*
X-468304Y-17395000D01*
X-769999Y-17395000D01*
X-770000Y-17395001D01*
X-770000Y-18095000D01*
X-1270000Y-18095000D01*
X-1270000Y-17395001D01*
X-1270001Y-17395000D01*
X-1520714Y-17395000D01*
X-1672336Y-17410418D01*
X-1672338Y-17410419D01*
X-1866392Y-17471303D01*
X-1866393Y-17471304D01*
X-2044205Y-17569997D01*
X-2044220Y-17570008D01*
X-2198526Y-17702474D01*
X-2198537Y-17702486D01*
X-2323020Y-17863306D01*
X-2323021Y-17863308D01*
X-2412587Y-18045902D01*
X-2438246Y-18145000D01*
X-1636111Y-18145000D01*
X-1675610Y-18169457D01*
X-1743201Y-18258962D01*
X-1773895Y-18366840D01*
X-1763546Y-18478521D01*
X-1713552Y-18578922D01*
X-1641069Y-18645000D01*
X-2443368Y-18645000D01*
X-2769500Y-18645000D01*
X-2769500Y-14820000D01*
X2504750Y-14820000D01*
X2523669Y-14963708D01*
X2523670Y-14963709D01*
X2574360Y-15086089D01*
X2579139Y-15097625D01*
X2667379Y-15212621D01*
X2782375Y-15300861D01*
X2916291Y-15356330D01*
X3060000Y-15375250D01*
X3203709Y-15356330D01*
X3337625Y-15300861D01*
X3452621Y-15212621D01*
X3540861Y-15097625D01*
X3596330Y-14963709D01*
X3615250Y-14820000D01*
X3596330Y-14676291D01*
X3585718Y-14650673D01*
X3578996Y-14625456D01*
X3578285Y-14619946D01*
X3491008Y-14350506D01*
X3491008Y-14289491D01*
X3578285Y-14020053D01*
X3579203Y-14013424D01*
X3585803Y-13989120D01*
X3596330Y-13963709D01*
X3615250Y-13820000D01*
X3612132Y-13796320D01*
X3596330Y-13676291D01*
X3540861Y-13542375D01*
X3452621Y-13427379D01*
X3337625Y-13339139D01*
X3337621Y-13339137D01*
X3203709Y-13283670D01*
X3203708Y-13283669D01*
X3060000Y-13264750D01*
X2916291Y-13283669D01*
X2916290Y-13283670D01*
X2782378Y-13339137D01*
X2782374Y-13339139D01*
X2667381Y-13427377D01*
X2667377Y-13427381D01*
X2579139Y-13542374D01*
X2579137Y-13542378D01*
X2523670Y-13676290D01*
X2523669Y-13676291D01*
X2504750Y-13819999D01*
X2504750Y-13820000D01*
X2523669Y-13963706D01*
X2523669Y-13963708D01*
X2523670Y-13963709D01*
X2534193Y-13989116D01*
X2534281Y-13989327D01*
X2540999Y-14014522D01*
X2541713Y-14020050D01*
X2541714Y-14020056D01*
X2628990Y-14289492D01*
X2628990Y-14350506D01*
X2541715Y-14619940D01*
X2541714Y-14619945D01*
X2540793Y-14626590D01*
X2534197Y-14650875D01*
X2523669Y-14676293D01*
X2504750Y-14819999D01*
X2504750Y-14820000D01*
X-2769500Y-14820000D01*
X-2769500Y-9995000D01*
X-2443368Y-9995000D01*
X-2443070Y-9996940D01*
X-2443070Y-9996941D01*
X-2372434Y-10187666D01*
X-2264853Y-10360264D01*
X-2264848Y-10360270D01*
X-2124734Y-10507669D01*
X-1957813Y-10623851D01*
X-1957802Y-10623857D01*
X-1770906Y-10704060D01*
X-1770903Y-10704061D01*
X-1571697Y-10744999D01*
X-1571689Y-10745000D01*
X-1270001Y-10745000D01*
X-1270000Y-10744999D01*
X-1270000Y-10045000D01*
X-770000Y-10045000D01*
X-770000Y-10744999D01*
X-769999Y-10745000D01*
X-519286Y-10745000D01*
X-367665Y-10729581D01*
X-367663Y-10729580D01*
X-173609Y-10668696D01*
X-173608Y-10668695D01*
X4204Y-10570002D01*
X4219Y-10569991D01*
X158525Y-10437525D01*
X158536Y-10437513D01*
X283019Y-10276693D01*
X283020Y-10276691D01*
X372586Y-10094097D01*
X398246Y-9995000D01*
X1656632Y-9995000D01*
X1656930Y-9996940D01*
X1656930Y-9996941D01*
X1727566Y-10187666D01*
X1835147Y-10360264D01*
X1835152Y-10360270D01*
X1975266Y-10507669D01*
X2142187Y-10623851D01*
X2142198Y-10623857D01*
X2250249Y-10670225D01*
X2296268Y-10710548D01*
X2309797Y-10770219D01*
X2292088Y-10818293D01*
X2209029Y-10935961D01*
X2160653Y-11072078D01*
X2150796Y-11216199D01*
X2180184Y-11357628D01*
X2180186Y-11357636D01*
X2233600Y-11460718D01*
X2246646Y-11485895D01*
X2345245Y-11591469D01*
X2468672Y-11666526D01*
X2607772Y-11705500D01*
X2607773Y-11705500D01*
X2715943Y-11705500D01*
X2715949Y-11705500D01*
X2823111Y-11690771D01*
X2955609Y-11633219D01*
X3067665Y-11542054D01*
X3150971Y-11424037D01*
X3199346Y-11287921D01*
X3209204Y-11143801D01*
X3195846Y-11079520D01*
X3179815Y-11002371D01*
X3179813Y-11002363D01*
X3113355Y-10874107D01*
X3113353Y-10874104D01*
X3100094Y-10859907D01*
X3014755Y-10768531D01*
X3014754Y-10768530D01*
X3014753Y-10768529D01*
X2977561Y-10745912D01*
X2937666Y-10699522D01*
X2930000Y-10661325D01*
X2930000Y-10045000D01*
X3430000Y-10045000D01*
X3430000Y-10744999D01*
X3430001Y-10745000D01*
X3780714Y-10745000D01*
X3932335Y-10729581D01*
X3932337Y-10729580D01*
X4126391Y-10668696D01*
X4126392Y-10668695D01*
X4304204Y-10570002D01*
X4304219Y-10569991D01*
X4458525Y-10437525D01*
X4458536Y-10437513D01*
X4583019Y-10276693D01*
X4583020Y-10276691D01*
X4672586Y-10094097D01*
X4698246Y-9995000D01*
X3946111Y-9995000D01*
X3985610Y-9970543D01*
X4053201Y-9881038D01*
X4083895Y-9773160D01*
X4073546Y-9661479D01*
X4023552Y-9561078D01*
X3951069Y-9495000D01*
X4703367Y-9495000D01*
X4703367Y-9494999D01*
X4703069Y-9493059D01*
X4703069Y-9493058D01*
X4632433Y-9302333D01*
X4524852Y-9129735D01*
X4524847Y-9129729D01*
X4384733Y-8982330D01*
X4217812Y-8866148D01*
X4217801Y-8866142D01*
X4030905Y-8785939D01*
X4030902Y-8785938D01*
X3831696Y-8745000D01*
X3430001Y-8745000D01*
X3430000Y-8745001D01*
X3430000Y-9445000D01*
X2930000Y-9445000D01*
X2930000Y-8745001D01*
X2929999Y-8745000D01*
X2579286Y-8745000D01*
X2427664Y-8760418D01*
X2427662Y-8760419D01*
X2233608Y-8821303D01*
X2233607Y-8821304D01*
X2055795Y-8919997D01*
X2055780Y-8920008D01*
X1901474Y-9052474D01*
X1901463Y-9052486D01*
X1776980Y-9213306D01*
X1776979Y-9213308D01*
X1687413Y-9395902D01*
X1661754Y-9495000D01*
X2413889Y-9495000D01*
X2374390Y-9519457D01*
X2306799Y-9608962D01*
X2276105Y-9716840D01*
X2286454Y-9828521D01*
X2336448Y-9928922D01*
X2408931Y-9995000D01*
X1656632Y-9995000D01*
X398246Y-9995000D01*
X-403889Y-9995000D01*
X-364390Y-9970543D01*
X-296799Y-9881038D01*
X-266105Y-9773160D01*
X-276454Y-9661479D01*
X-326448Y-9561078D01*
X-398931Y-9495000D01*
X403367Y-9495000D01*
X403367Y-9494999D01*
X403069Y-9493059D01*
X403069Y-9493058D01*
X332433Y-9302333D01*
X224852Y-9129735D01*
X224847Y-9129729D01*
X84733Y-8982330D01*
X-82188Y-8866148D01*
X-82199Y-8866142D01*
X-269095Y-8785939D01*
X-269098Y-8785938D01*
X-468304Y-8745000D01*
X-769999Y-8745000D01*
X-770000Y-8745001D01*
X-770000Y-9445000D01*
X-1270000Y-9445000D01*
X-1270000Y-8745001D01*
X-1270001Y-8745000D01*
X-1520714Y-8745000D01*
X-1672336Y-8760418D01*
X-1672338Y-8760419D01*
X-1866392Y-8821303D01*
X-1866393Y-8821304D01*
X-2044205Y-8919997D01*
X-2044220Y-8920008D01*
X-2198526Y-9052474D01*
X-2198537Y-9052486D01*
X-2323020Y-9213306D01*
X-2323021Y-9213308D01*
X-2412587Y-9395902D01*
X-2438246Y-9495000D01*
X-1636111Y-9495000D01*
X-1675610Y-9519457D01*
X-1743201Y-9608962D01*
X-1773895Y-9716840D01*
X-1763546Y-9828521D01*
X-1713552Y-9928922D01*
X-1641069Y-9995000D01*
X-2443368Y-9995000D01*
X-2769500Y-9995000D01*
X-2769500Y-6929999D01*
X-2005460Y-6929999D01*
X-2000771Y-6974612D01*
X-2000500Y-6979790D01*
X-2000500Y-7024649D01*
X-1991176Y-7068519D01*
X-1990366Y-7073637D01*
X-1985675Y-7118254D01*
X-1971812Y-7160919D01*
X-1970470Y-7165927D01*
X-1961144Y-7209805D01*
X-1942900Y-7250781D01*
X-1941042Y-7255620D01*
X-1927179Y-7298284D01*
X-1927177Y-7298289D01*
X-1904752Y-7337129D01*
X-1902398Y-7341749D01*
X-1884152Y-7382729D01*
X-1857789Y-7419015D01*
X-1854966Y-7423362D01*
X-1832533Y-7462217D01*
X-1832531Y-7462219D01*
X-1802517Y-7495552D01*
X-1799253Y-7499582D01*
X-1772889Y-7535870D01*
X-1739554Y-7565885D01*
X-1735888Y-7569551D01*
X-1705871Y-7602888D01*
X-1705869Y-7602890D01*
X-1687978Y-7615887D01*
X-1669583Y-7629252D01*
X-1665553Y-7632516D01*
X-1632220Y-7662530D01*
X-1632218Y-7662532D01*
X-1593364Y-7684965D01*
X-1589022Y-7687784D01*
X-1552730Y-7714151D01*
X-1511749Y-7732396D01*
X-1507138Y-7734746D01*
X-1468288Y-7757177D01*
X-1468287Y-7757177D01*
X-1468284Y-7757179D01*
X-1425611Y-7771043D01*
X-1420790Y-7772894D01*
X-1379803Y-7791144D01*
X-1335921Y-7800470D01*
X-1330921Y-7801810D01*
X-1288256Y-7815674D01*
X-1243636Y-7820363D01*
X-1238533Y-7821171D01*
X-1194646Y-7830500D01*
X-1194643Y-7830500D01*
X-1005356Y-7830500D01*
X-1005354Y-7830500D01*
X-961472Y-7821172D01*
X-956364Y-7820363D01*
X-911744Y-7815674D01*
X-869081Y-7801811D01*
X-864080Y-7800470D01*
X-820197Y-7791144D01*
X-779211Y-7772894D01*
X-774382Y-7771041D01*
X-731716Y-7757179D01*
X-702688Y-7740418D01*
X-692867Y-7734749D01*
X-688246Y-7732394D01*
X-684858Y-7730885D01*
X-647270Y-7714151D01*
X-610979Y-7687784D01*
X-606652Y-7684973D01*
X-567784Y-7662533D01*
X-534425Y-7632495D01*
X-530432Y-7629262D01*
X-494129Y-7602888D01*
X-464095Y-7569530D01*
X-460470Y-7565905D01*
X-427112Y-7535871D01*
X-400738Y-7499568D01*
X-397505Y-7495575D01*
X-367467Y-7462216D01*
X-345027Y-7423348D01*
X-342212Y-7419015D01*
X-315849Y-7382730D01*
X-297606Y-7341754D01*
X-295251Y-7337133D01*
X-289582Y-7327312D01*
X-272821Y-7298284D01*
X-258958Y-7255614D01*
X-257102Y-7250781D01*
X-238856Y-7209803D01*
X-229530Y-7165920D01*
X-228189Y-7160919D01*
X-227659Y-7159285D01*
X-214326Y-7118256D01*
X-209637Y-7073636D01*
X-208827Y-7068524D01*
X-199501Y-7024649D01*
X-199500Y-7024646D01*
X-199500Y-6979790D01*
X-199229Y-6974612D01*
X-194540Y-6930000D01*
X-199229Y-6885385D01*
X-199500Y-6880208D01*
X-199500Y-6835357D01*
X-199500Y-6835354D01*
X-208829Y-6791467D01*
X-209637Y-6786363D01*
X-214326Y-6741744D01*
X-228190Y-6699079D01*
X-229531Y-6694073D01*
X-238856Y-6650197D01*
X-257106Y-6609210D01*
X-258959Y-6604382D01*
X-258962Y-6604373D01*
X-272821Y-6561716D01*
X-295256Y-6522859D01*
X-297607Y-6518243D01*
X-315849Y-6477270D01*
X-342216Y-6440978D01*
X-345035Y-6436636D01*
X-367468Y-6397782D01*
X-367470Y-6397780D01*
X-397484Y-6364447D01*
X-400744Y-6360422D01*
X-414113Y-6342022D01*
X-427110Y-6324131D01*
X-427112Y-6324129D01*
X-460449Y-6294112D01*
X-464115Y-6290446D01*
X-494130Y-6257111D01*
X-530418Y-6230747D01*
X-534448Y-6227483D01*
X-567781Y-6197469D01*
X-567783Y-6197467D01*
X-606638Y-6175034D01*
X-610980Y-6172214D01*
X-647270Y-6145849D01*
X-647271Y-6145848D01*
X-688251Y-6127602D01*
X-692871Y-6125248D01*
X-731711Y-6102823D01*
X-731716Y-6102821D01*
X-774380Y-6088958D01*
X-779219Y-6087100D01*
X-820195Y-6068856D01*
X-855203Y-6061415D01*
X-864075Y-6059529D01*
X-869081Y-6058188D01*
X-911746Y-6044325D01*
X-956363Y-6039634D01*
X-961481Y-6038824D01*
X-1005350Y-6029500D01*
X-1005354Y-6029500D01*
X-1194646Y-6029500D01*
X-1194650Y-6029500D01*
X-1238519Y-6038824D01*
X-1243637Y-6039634D01*
X-1288254Y-6044325D01*
X-1330918Y-6058186D01*
X-1335923Y-6059527D01*
X-1379797Y-6068854D01*
X-1379806Y-6068857D01*
X-1420789Y-6087103D01*
X-1425627Y-6088960D01*
X-1468287Y-6102822D01*
X-1507140Y-6125253D01*
X-1511757Y-6127605D01*
X-1552729Y-6145847D01*
X-1552730Y-6145848D01*
X-1589017Y-6172211D01*
X-1593362Y-6175032D01*
X-1632213Y-6197464D01*
X-1632219Y-6197468D01*
X-1665557Y-6227486D01*
X-1669584Y-6230747D01*
X-1705873Y-6257113D01*
X-1735889Y-6290448D01*
X-1739552Y-6294111D01*
X-1772887Y-6324127D01*
X-1799253Y-6360416D01*
X-1802514Y-6364443D01*
X-1832532Y-6397781D01*
X-1832536Y-6397787D01*
X-1854968Y-6436638D01*
X-1857789Y-6440983D01*
X-1884152Y-6477270D01*
X-1884153Y-6477271D01*
X-1902395Y-6518243D01*
X-1904747Y-6522860D01*
X-1927178Y-6561713D01*
X-1941040Y-6604373D01*
X-1942897Y-6609211D01*
X-1961143Y-6650194D01*
X-1961146Y-6650203D01*
X-1970473Y-6694077D01*
X-1971814Y-6699082D01*
X-1985675Y-6741746D01*
X-1990366Y-6786363D01*
X-1991176Y-6791481D01*
X-2000500Y-6835350D01*
X-2000500Y-6880208D01*
X-2000771Y-6885385D01*
X-2005460Y-6929999D01*
X-2769500Y-6929999D01*
X-2769500Y-3011384D01*
X-2769422Y-3008609D01*
X-2769422Y-3008608D01*
X-2752368Y-2704914D01*
X-2751750Y-2699429D01*
X-2701027Y-2400900D01*
X-2699801Y-2395529D01*
X-2615975Y-2104560D01*
X-2614142Y-2099326D01*
X-2613826Y-2098565D01*
X-2498276Y-1819600D01*
X-2495874Y-1814612D01*
X-2349407Y-1549600D01*
X-2346465Y-1544917D01*
X-2171249Y-1297974D01*
X-2167805Y-1293653D01*
X-1966031Y-1067869D01*
X-1962131Y-1063969D01*
X-1736347Y-862195D01*
X-1732026Y-858751D01*
X-1485083Y-683535D01*
X-1480400Y-680593D01*
X-1215388Y-534126D01*
X-1210400Y-531724D01*
X-1062477Y-470453D01*
X-996885Y-443284D01*
X-935889Y-438483D01*
X-883720Y-470453D01*
G37*
%TD.AperFunction*%
%TA.AperFunction,Conductor*%
G36*
X15020022Y-279407D02*
G01*
X15055986Y-328907D01*
X15055986Y-390093D01*
X15028527Y-432661D01*
X14876135Y-571586D01*
X14876131Y-571589D01*
X14876128Y-571593D01*
X14876125Y-571597D01*
X14747635Y-741743D01*
X14747630Y-741752D01*
X14652596Y-932608D01*
X14652595Y-932611D01*
X14640655Y-974574D01*
X14594244Y-1137688D01*
X14574571Y-1350000D01*
X14594244Y-1562311D01*
X14602969Y-1592974D01*
X14652595Y-1767389D01*
X14747634Y-1958255D01*
X14876128Y-2128407D01*
X14917788Y-2166385D01*
X15033692Y-2272047D01*
X15033699Y-2272053D01*
X15122180Y-2326838D01*
X15214979Y-2384297D01*
X15214983Y-2384299D01*
X15294898Y-2415258D01*
X15300699Y-2417948D01*
X15322408Y-2429771D01*
X15322407Y-2429771D01*
X15322410Y-2429772D01*
X15322412Y-2429773D01*
X15382592Y-2449310D01*
X15385138Y-2450216D01*
X15413802Y-2461321D01*
X15413804Y-2461321D01*
X15413810Y-2461323D01*
X15420045Y-2462488D01*
X15424292Y-2463281D01*
X15430475Y-2464855D01*
X16693100Y-2874768D01*
X16732533Y-2898926D01*
X26922260Y-13088653D01*
X26944823Y-13111215D01*
X26944825Y-13111217D01*
X26966312Y-13122165D01*
X26979553Y-13130279D01*
X26999075Y-13144461D01*
X26999076Y-13144461D01*
X26999078Y-13144463D01*
X27022028Y-13151919D01*
X27036368Y-13157860D01*
X27057863Y-13168813D01*
X27081701Y-13172588D01*
X27096778Y-13176208D01*
X27119734Y-13183667D01*
X27151648Y-13183667D01*
X28207521Y-13183667D01*
X28238028Y-13188485D01*
X28586779Y-13301452D01*
X28593409Y-13302370D01*
X28617710Y-13308970D01*
X28643124Y-13319497D01*
X28723043Y-13330018D01*
X28778267Y-13356359D01*
X28807462Y-13410129D01*
X28802029Y-13464963D01*
X28625404Y-13906184D01*
X28603499Y-13939396D01*
X25382393Y-17160504D01*
X25327876Y-17188281D01*
X25312389Y-17189500D01*
X25089500Y-17189500D01*
X25031309Y-17170593D01*
X24995345Y-17121093D01*
X24990500Y-17090500D01*
X24990500Y-12776874D01*
X24994840Y-12747884D01*
X25010884Y-12695498D01*
X25063829Y-12522618D01*
X25152358Y-12233546D01*
X25152358Y-12233543D01*
X25152360Y-12233538D01*
X25153482Y-12224625D01*
X25159140Y-12201896D01*
X25176236Y-12156820D01*
X25176235Y-12156820D01*
X25176237Y-12156818D01*
X25195278Y-12000000D01*
X25193613Y-11986291D01*
X25180295Y-11876601D01*
X25176237Y-11843182D01*
X25120220Y-11695477D01*
X25048429Y-11591469D01*
X25030484Y-11565471D01*
X25004052Y-11542054D01*
X24912240Y-11460717D01*
X24842302Y-11424010D01*
X24772364Y-11387303D01*
X24618987Y-11349500D01*
X24618985Y-11349500D01*
X24461015Y-11349500D01*
X24461012Y-11349500D01*
X24307635Y-11387303D01*
X24167758Y-11460718D01*
X24049515Y-11565471D01*
X23959780Y-11695476D01*
X23903763Y-11843182D01*
X23903762Y-11843183D01*
X23884722Y-11999998D01*
X23884722Y-12000001D01*
X23903763Y-12156818D01*
X23921014Y-12202308D01*
X23926822Y-12226303D01*
X23927638Y-12233535D01*
X23927639Y-12233538D01*
X24085159Y-12747884D01*
X24085160Y-12747885D01*
X24089500Y-12776875D01*
X24089500Y-17090500D01*
X24070593Y-17148691D01*
X24021093Y-17184655D01*
X23990500Y-17189500D01*
X23701362Y-17189500D01*
X23643171Y-17170593D01*
X23607207Y-17121093D01*
X23607207Y-17059907D01*
X23622818Y-17030234D01*
X23670861Y-16967625D01*
X23726330Y-16833709D01*
X23745250Y-16690000D01*
X23736692Y-16625000D01*
X23726330Y-16546291D01*
X23670861Y-16412375D01*
X23582621Y-16297379D01*
X23467625Y-16209139D01*
X23463936Y-16207611D01*
X23442006Y-16198527D01*
X23419433Y-16185457D01*
X23415030Y-16182061D01*
X23415026Y-16182059D01*
X23415024Y-16182057D01*
X23088539Y-16015332D01*
X23063560Y-15997167D01*
X13619496Y-6553103D01*
X13591719Y-6498586D01*
X13590500Y-6483099D01*
X13590500Y-3155261D01*
X13600899Y-3111093D01*
X13603484Y-3105908D01*
X14245425Y-1818163D01*
X14247909Y-1812727D01*
X14248962Y-1810235D01*
X14250205Y-1807291D01*
X14254799Y-1796412D01*
X14254800Y-1796403D01*
X14255204Y-1795068D01*
X14261376Y-1779496D01*
X14267404Y-1767391D01*
X14269008Y-1761754D01*
X14325756Y-1562310D01*
X14345429Y-1350000D01*
X14325756Y-1137690D01*
X14267405Y-932611D01*
X14172366Y-741745D01*
X14043872Y-571593D01*
X13990372Y-522821D01*
X13891473Y-432661D01*
X13861207Y-379486D01*
X13867978Y-318676D01*
X13909199Y-273460D01*
X13958169Y-260500D01*
X14961831Y-260500D01*
X15020022Y-279407D01*
G37*
%TD.AperFunction*%
%TA.AperFunction,Conductor*%
G36*
X20291929Y-2382778D02*
G01*
X20294977Y-2384296D01*
X20294979Y-2384296D01*
X20294981Y-2384298D01*
X20371983Y-2414128D01*
X20378166Y-2417029D01*
X20399648Y-2428982D01*
X20477026Y-2454877D01*
X20479148Y-2455643D01*
X20493802Y-2461321D01*
X20496040Y-2461739D01*
X20502652Y-2463453D01*
X21764728Y-2885830D01*
X21764731Y-2885831D01*
X21803316Y-2909709D01*
X30940504Y-12046896D01*
X30968281Y-12101413D01*
X30969500Y-12116900D01*
X30969500Y-12997731D01*
X30950593Y-13055922D01*
X30901093Y-13091886D01*
X30839907Y-13091886D01*
X30825475Y-13085900D01*
X30628539Y-12985332D01*
X30603560Y-12967167D01*
X20177795Y-2541402D01*
X20150018Y-2486885D01*
X20159589Y-2426453D01*
X20202854Y-2383188D01*
X20263286Y-2373617D01*
X20291929Y-2382778D01*
G37*
%TD.AperFunction*%
%TA.AperFunction,Conductor*%
G36*
X17402080Y-2116524D02*
G01*
X17412449Y-2125649D01*
X17412746Y-2125324D01*
X17573692Y-2272047D01*
X17573699Y-2272053D01*
X17662180Y-2326838D01*
X17754981Y-2384298D01*
X17862100Y-2425795D01*
X17865333Y-2427182D01*
X17880217Y-2434211D01*
X17880222Y-2434212D01*
X17880224Y-2434213D01*
X17888646Y-2436420D01*
X17893980Y-2438145D01*
X17953802Y-2461321D01*
X18056086Y-2480441D01*
X18059520Y-2481210D01*
X19287585Y-2803119D01*
X19332487Y-2828880D01*
X28609678Y-12106071D01*
X28637455Y-12160588D01*
X28627884Y-12221020D01*
X28584619Y-12264285D01*
X28570181Y-12270257D01*
X28238024Y-12377849D01*
X28207517Y-12382667D01*
X27390068Y-12382667D01*
X27331877Y-12363760D01*
X27320064Y-12353671D01*
X17296727Y-2330334D01*
X17273087Y-2292451D01*
X17251553Y-2229669D01*
X17250560Y-2168494D01*
X17285714Y-2118416D01*
X17343590Y-2098565D01*
X17402080Y-2116524D01*
G37*
%TD.AperFunction*%
%TA.AperFunction,Conductor*%
G36*
X43110681Y-10329407D02*
G01*
X43146645Y-10378907D01*
X43146645Y-10440093D01*
X43110681Y-10489593D01*
X43109263Y-10490604D01*
X42804326Y-10704061D01*
X42473039Y-10935963D01*
X42422123Y-10971604D01*
X42365350Y-10989500D01*
X36705901Y-10989500D01*
X36647710Y-10970593D01*
X36611746Y-10921093D01*
X36611746Y-10859907D01*
X36635897Y-10820496D01*
X37116897Y-10339496D01*
X37171414Y-10311719D01*
X37186901Y-10310500D01*
X43052490Y-10310500D01*
X43110681Y-10329407D01*
G37*
%TD.AperFunction*%
%TA.AperFunction,Conductor*%
G36*
X12480022Y-279407D02*
G01*
X12515986Y-328907D01*
X12515986Y-390093D01*
X12488527Y-432661D01*
X12336135Y-571586D01*
X12336131Y-571589D01*
X12336128Y-571593D01*
X12336125Y-571597D01*
X12207635Y-741743D01*
X12207630Y-741752D01*
X12112596Y-932608D01*
X12112595Y-932611D01*
X12100655Y-974574D01*
X12054244Y-1137688D01*
X12034571Y-1350000D01*
X12054244Y-1562311D01*
X12062969Y-1592974D01*
X12110990Y-1761749D01*
X12112596Y-1767391D01*
X12128384Y-1799098D01*
X12134970Y-1816086D01*
X12136881Y-1822790D01*
X12136884Y-1822799D01*
X12575244Y-2702154D01*
X12767759Y-3088342D01*
X12779101Y-3111093D01*
X12789500Y-3155261D01*
X12789500Y-6311599D01*
X12770593Y-6369790D01*
X12721093Y-6405754D01*
X12659907Y-6405754D01*
X12620496Y-6381603D01*
X11079496Y-4840603D01*
X11051719Y-4786086D01*
X11050500Y-4770599D01*
X11050500Y-3155261D01*
X11060899Y-3111093D01*
X11063484Y-3105908D01*
X11705425Y-1818163D01*
X11707909Y-1812727D01*
X11708962Y-1810235D01*
X11710205Y-1807291D01*
X11714799Y-1796412D01*
X11714800Y-1796403D01*
X11715204Y-1795068D01*
X11721376Y-1779496D01*
X11727404Y-1767391D01*
X11729008Y-1761754D01*
X11785756Y-1562310D01*
X11805429Y-1350000D01*
X11785756Y-1137690D01*
X11727405Y-932611D01*
X11632366Y-741745D01*
X11503872Y-571593D01*
X11450372Y-522821D01*
X11351473Y-432661D01*
X11321207Y-379486D01*
X11327978Y-318676D01*
X11369199Y-273460D01*
X11418169Y-260500D01*
X12421831Y-260500D01*
X12480022Y-279407D01*
G37*
%TD.AperFunction*%
%TA.AperFunction,Conductor*%
G36*
X9940022Y-279407D02*
G01*
X9975986Y-328907D01*
X9975986Y-390093D01*
X9948527Y-432661D01*
X9796135Y-571586D01*
X9796131Y-571589D01*
X9796128Y-571593D01*
X9796125Y-571597D01*
X9667635Y-741743D01*
X9667630Y-741752D01*
X9572596Y-932608D01*
X9572595Y-932611D01*
X9560655Y-974574D01*
X9514244Y-1137688D01*
X9494571Y-1350000D01*
X9514244Y-1562311D01*
X9522969Y-1592974D01*
X9570990Y-1761749D01*
X9572596Y-1767391D01*
X9588384Y-1799098D01*
X9594970Y-1816086D01*
X9596881Y-1822790D01*
X9596884Y-1822799D01*
X10035244Y-2702154D01*
X10227759Y-3088342D01*
X10239101Y-3111093D01*
X10249500Y-3155261D01*
X10249500Y-4599099D01*
X10230593Y-4657290D01*
X10181093Y-4693254D01*
X10119907Y-4693254D01*
X10080496Y-4669103D01*
X8571818Y-3160425D01*
X8544041Y-3105908D01*
X8553220Y-3046255D01*
X9165425Y-1818163D01*
X9167909Y-1812727D01*
X9168962Y-1810235D01*
X9170205Y-1807291D01*
X9174799Y-1796412D01*
X9174800Y-1796403D01*
X9175204Y-1795068D01*
X9181376Y-1779496D01*
X9187404Y-1767391D01*
X9189008Y-1761754D01*
X9245756Y-1562310D01*
X9265429Y-1350000D01*
X9245756Y-1137690D01*
X9187405Y-932611D01*
X9092366Y-741745D01*
X8963872Y-571593D01*
X8910372Y-522821D01*
X8811473Y-432661D01*
X8781207Y-379486D01*
X8787978Y-318676D01*
X8829199Y-273460D01*
X8878169Y-260500D01*
X9881831Y-260500D01*
X9940022Y-279407D01*
G37*
%TD.AperFunction*%
%TA.AperFunction,Conductor*%
G36*
X37860022Y-279407D02*
G01*
X37895986Y-328907D01*
X37895986Y-390093D01*
X37868527Y-432661D01*
X37716135Y-571586D01*
X37716131Y-571589D01*
X37716128Y-571593D01*
X37716125Y-571597D01*
X37587635Y-741743D01*
X37587630Y-741752D01*
X37492596Y-932608D01*
X37492595Y-932611D01*
X37478624Y-981712D01*
X37434244Y-1137689D01*
X37422714Y-1262094D01*
X37421880Y-1267649D01*
X37366849Y-1531177D01*
X37336445Y-1584274D01*
X37288665Y-1605751D01*
X37326042Y-1653388D01*
X37329992Y-1707676D01*
X37252636Y-2078112D01*
X37225733Y-2127875D01*
X37221950Y-2131657D01*
X37221948Y-2131660D01*
X37210997Y-2153151D01*
X37202887Y-2166385D01*
X37188706Y-2185906D01*
X37188701Y-2185915D01*
X37181249Y-2208852D01*
X37175305Y-2223202D01*
X37164355Y-2244691D01*
X37164352Y-2244701D01*
X37160577Y-2268529D01*
X37156953Y-2283624D01*
X37149501Y-2306562D01*
X37149500Y-2306569D01*
X37149500Y-2575211D01*
X37149238Y-2580293D01*
X37148812Y-2584424D01*
X37147278Y-2622866D01*
X37147278Y-2622870D01*
X37147279Y-2622871D01*
X37147368Y-2623293D01*
X37149500Y-2643727D01*
X37149500Y-4023099D01*
X37130593Y-4081290D01*
X37120504Y-4093103D01*
X36599504Y-4614103D01*
X36544987Y-4641880D01*
X36484555Y-4632309D01*
X36441290Y-4589044D01*
X36430500Y-4544099D01*
X36430500Y-3155261D01*
X36440899Y-3111093D01*
X36443484Y-3105908D01*
X37085425Y-1818163D01*
X37087909Y-1812727D01*
X37088962Y-1810235D01*
X37090205Y-1807291D01*
X37094799Y-1796412D01*
X37094800Y-1796403D01*
X37095204Y-1795068D01*
X37101376Y-1779496D01*
X37107404Y-1767391D01*
X37109008Y-1761754D01*
X37137862Y-1660343D01*
X37171971Y-1609551D01*
X37217228Y-1592974D01*
X37179642Y-1551530D01*
X37171361Y-1501810D01*
X37185429Y-1350000D01*
X37165756Y-1137690D01*
X37107405Y-932611D01*
X37012366Y-741745D01*
X36883872Y-571593D01*
X36830372Y-522821D01*
X36731473Y-432661D01*
X36701207Y-379486D01*
X36707978Y-318676D01*
X36749199Y-273460D01*
X36798169Y-260500D01*
X37801831Y-260500D01*
X37860022Y-279407D01*
G37*
%TD.AperFunction*%
%TA.AperFunction,Conductor*%
G36*
X44616257Y-2093091D02*
G01*
X44665086Y-2129962D01*
X44682917Y-2188491D01*
X44677698Y-2218435D01*
X44650540Y-2298590D01*
X44626780Y-2336825D01*
X42983103Y-3980504D01*
X42928586Y-4008281D01*
X42913099Y-4009500D01*
X41795901Y-4009500D01*
X41737710Y-3990593D01*
X41701746Y-3941093D01*
X41701746Y-3879907D01*
X41725897Y-3840497D01*
X42656683Y-2909709D01*
X42695266Y-2885831D01*
X43957341Y-2463455D01*
X43963951Y-2461740D01*
X43966198Y-2461321D01*
X43980858Y-2455640D01*
X43982996Y-2454868D01*
X44065308Y-2427323D01*
X44070959Y-2425214D01*
X44087238Y-2418600D01*
X44091887Y-2415421D01*
X44111982Y-2404843D01*
X44165019Y-2384298D01*
X44346302Y-2272052D01*
X44503872Y-2128407D01*
X44504928Y-2127009D01*
X44505527Y-2126590D01*
X44506959Y-2125020D01*
X44507312Y-2125342D01*
X44555082Y-2091963D01*
X44616257Y-2093091D01*
G37*
%TD.AperFunction*%
%TA.AperFunction,Conductor*%
G36*
X39545867Y-2080373D02*
G01*
X39594694Y-2117245D01*
X39612523Y-2175775D01*
X39607423Y-2205361D01*
X39605488Y-2211144D01*
X39574166Y-2304734D01*
X39550288Y-2343318D01*
X38119504Y-3774103D01*
X38064987Y-3801880D01*
X38004555Y-3792309D01*
X37961290Y-3749044D01*
X37950500Y-3704099D01*
X37950500Y-2904548D01*
X37969407Y-2846357D01*
X38013107Y-2812479D01*
X38964541Y-2436420D01*
X38997947Y-2423216D01*
X38999548Y-2422565D01*
X38999558Y-2422561D01*
X39007686Y-2419115D01*
X39014581Y-2414394D01*
X39034729Y-2403779D01*
X39085019Y-2384298D01*
X39266302Y-2272052D01*
X39423872Y-2128407D01*
X39434537Y-2114284D01*
X39484692Y-2079242D01*
X39545867Y-2080373D01*
G37*
%TD.AperFunction*%
%TA.AperFunction,Conductor*%
G36*
X42085863Y-2080372D02*
G01*
X42134691Y-2117242D01*
X42152522Y-2175772D01*
X42147421Y-2205365D01*
X42114166Y-2304732D01*
X42090288Y-2343317D01*
X40863103Y-3570504D01*
X40808586Y-3598281D01*
X40793099Y-3599500D01*
X39665900Y-3599500D01*
X39607709Y-3580593D01*
X39571745Y-3531093D01*
X39571745Y-3469907D01*
X39595896Y-3430497D01*
X40116682Y-2909709D01*
X40155265Y-2885831D01*
X41417341Y-2463455D01*
X41423951Y-2461740D01*
X41426198Y-2461321D01*
X41440858Y-2455640D01*
X41442996Y-2454868D01*
X41525308Y-2427323D01*
X41530959Y-2425214D01*
X41547238Y-2418600D01*
X41551887Y-2415421D01*
X41571982Y-2404843D01*
X41625019Y-2384298D01*
X41806302Y-2272052D01*
X41963872Y-2128407D01*
X41974537Y-2114285D01*
X42024688Y-2079243D01*
X42085863Y-2080372D01*
G37*
%TD.AperFunction*%
%TD*%
%TA.AperFunction,Conductor*%
%TO.N,/I2C_SDA*%
G36*
X24503338Y-25497944D02*
G01*
X24506765Y-25506217D01*
X24506425Y-25509018D01*
X24123553Y-27062076D01*
X24118245Y-27069288D01*
X24109392Y-27070635D01*
X24107727Y-27070089D01*
X23339488Y-26752853D01*
X23333150Y-26746529D01*
X23014399Y-25976014D01*
X23014403Y-25967060D01*
X23020737Y-25960731D01*
X23021222Y-25960542D01*
X24308072Y-25495213D01*
X24312051Y-25494517D01*
X24495065Y-25494517D01*
X24503338Y-25497944D01*
G37*
%TD.AperFunction*%
%TD*%
%TA.AperFunction,Conductor*%
%TO.N,Net-(J5-Pin_1)*%
G36*
X35838859Y-11711752D02*
G01*
X35968247Y-11841140D01*
X35971674Y-11849413D01*
X35970394Y-11854734D01*
X35785866Y-12216083D01*
X35779051Y-12221893D01*
X35771009Y-12221588D01*
X35553822Y-12132563D01*
X35547468Y-12126255D01*
X35458411Y-11908988D01*
X35458444Y-11900036D01*
X35463913Y-11894135D01*
X35825266Y-11709604D01*
X35834191Y-11708894D01*
X35838859Y-11711752D01*
G37*
%TD.AperFunction*%
%TD*%
%TA.AperFunction,Conductor*%
%TO.N,/DSR0{slash}CS0{slash}TMS*%
G36*
X22914732Y-16269604D02*
G01*
X23276084Y-16454134D01*
X23281893Y-16460948D01*
X23281588Y-16468991D01*
X23192564Y-16686176D01*
X23186255Y-16692531D01*
X23186176Y-16692564D01*
X22968991Y-16781588D01*
X22960036Y-16781555D01*
X22954134Y-16776084D01*
X22769604Y-16414733D01*
X22768894Y-16405808D01*
X22771750Y-16401142D01*
X22901141Y-16271751D01*
X22909413Y-16268325D01*
X22914732Y-16269604D01*
G37*
%TD.AperFunction*%
%TD*%
%TA.AperFunction,Conductor*%
%TO.N,/JTAG_TDI*%
G36*
X20426567Y-16277667D02*
G01*
X20712755Y-16415488D01*
X20793241Y-16454248D01*
X20799208Y-16460925D01*
X20798991Y-16469226D01*
X20710064Y-16686175D01*
X20703755Y-16692531D01*
X20703675Y-16692564D01*
X20486284Y-16781672D01*
X20477330Y-16781639D01*
X20471541Y-16776383D01*
X20306538Y-16469226D01*
X20281785Y-16423148D01*
X20280889Y-16414238D01*
X20283817Y-16409340D01*
X20413222Y-16279935D01*
X20421494Y-16276509D01*
X20426567Y-16277667D01*
G37*
%TD.AperFunction*%
%TD*%
%TA.AperFunction,Conductor*%
%TO.N,/USB_Data+*%
G36*
X3159764Y-14323427D02*
G01*
X3162622Y-14328095D01*
X3287652Y-14714087D01*
X3286941Y-14723013D01*
X3281038Y-14728485D01*
X3064517Y-14819109D01*
X3055563Y-14819142D01*
X3055483Y-14819109D01*
X2838961Y-14728485D01*
X2832652Y-14722129D01*
X2832347Y-14714088D01*
X2957378Y-14328095D01*
X2963188Y-14321280D01*
X2968509Y-14320000D01*
X3151491Y-14320000D01*
X3159764Y-14323427D01*
G37*
%TD.AperFunction*%
%TD*%
%TA.AperFunction,Conductor*%
%TO.N,/CTS0{slash}SCK{slash}TCK*%
G36*
X10654489Y-1350865D02*
G01*
X11423724Y-1670472D01*
X11430049Y-1676811D01*
X11430040Y-1685766D01*
X11429706Y-1686497D01*
X10753230Y-3043520D01*
X10746472Y-3049395D01*
X10742759Y-3050000D01*
X10557241Y-3050000D01*
X10548968Y-3046573D01*
X10546770Y-3043520D01*
X9870293Y-1686497D01*
X9869669Y-1677564D01*
X9875544Y-1670806D01*
X9876261Y-1670478D01*
X10645511Y-1350864D01*
X10654466Y-1350856D01*
X10654489Y-1350865D01*
G37*
%TD.AperFunction*%
%TD*%
%TA.AperFunction,Conductor*%
%TO.N,/VDD_3.3V*%
G36*
X1597940Y-25444795D02*
G01*
X1601305Y-25447143D01*
X1802856Y-25648694D01*
X1806283Y-25656967D01*
X1805564Y-25661006D01*
X1289498Y-27063861D01*
X1283425Y-27070443D01*
X1274478Y-27070803D01*
X1274051Y-27070636D01*
X503785Y-26752562D01*
X497447Y-26746238D01*
X179363Y-25975948D01*
X179372Y-25966993D01*
X185711Y-25960668D01*
X186124Y-25960506D01*
X1588995Y-25444435D01*
X1597940Y-25444795D01*
G37*
%TD.AperFunction*%
%TD*%
%TA.AperFunction,Conductor*%
%TO.N,/I2C_SCL*%
G36*
X24982182Y-25450122D02*
G01*
X26189584Y-25960183D01*
X26195870Y-25966558D01*
X26195841Y-25975433D01*
X25877993Y-26743763D01*
X25871664Y-26750097D01*
X25867168Y-26750990D01*
X25034690Y-26750011D01*
X25026421Y-26746574D01*
X25023206Y-26740477D01*
X24782612Y-25463067D01*
X24784449Y-25454302D01*
X24791944Y-25449403D01*
X24794110Y-25449201D01*
X24977630Y-25449201D01*
X24982182Y-25450122D01*
G37*
%TD.AperFunction*%
%TD*%
%TA.AperFunction,Conductor*%
%TO.N,/DTR1*%
G36*
X45416232Y-1029480D02*
G01*
X46186215Y-1347438D01*
X46192552Y-1353761D01*
X46192562Y-1353785D01*
X46510475Y-2123661D01*
X46510466Y-2132616D01*
X46504127Y-2138941D01*
X46503324Y-2139239D01*
X45061465Y-2614541D01*
X45052535Y-2613876D01*
X45049529Y-2611702D01*
X44918344Y-2480517D01*
X44914917Y-2472244D01*
X44915536Y-2468490D01*
X45032368Y-2123661D01*
X45400695Y-1036542D01*
X45406595Y-1029808D01*
X45415530Y-1029217D01*
X45416232Y-1029480D01*
G37*
%TD.AperFunction*%
%TD*%
%TA.AperFunction,Conductor*%
%TO.N,/VDD_3.3V*%
G36*
X48880791Y-25053427D02*
G01*
X48883139Y-25056792D01*
X49510193Y-26413674D01*
X49510553Y-26422621D01*
X49504480Y-26429203D01*
X49504061Y-26429387D01*
X48734489Y-26749134D01*
X48725534Y-26749143D01*
X48725511Y-26749134D01*
X47955938Y-26429387D01*
X47949613Y-26423048D01*
X47949622Y-26414093D01*
X47949806Y-26413674D01*
X48576861Y-25056792D01*
X48583443Y-25050719D01*
X48587482Y-25050000D01*
X48872518Y-25050000D01*
X48880791Y-25053427D01*
G37*
%TD.AperFunction*%
%TD*%
%TA.AperFunction,Conductor*%
%TO.N,/VDD_3.3V*%
G36*
X36624929Y-20800537D02*
G01*
X36630082Y-20806279D01*
X36759119Y-21115494D01*
X36759142Y-21124449D01*
X36759119Y-21124506D01*
X36630215Y-21433401D01*
X36623866Y-21439716D01*
X36615800Y-21440022D01*
X36070072Y-21262627D01*
X36063264Y-21256810D01*
X36061989Y-21251500D01*
X36061989Y-20968792D01*
X36065416Y-20960519D01*
X36070433Y-20957554D01*
X36616029Y-20799547D01*
X36624929Y-20800537D01*
G37*
%TD.AperFunction*%
%TD*%
%TA.AperFunction,Conductor*%
%TO.N,/VDD_3.3V*%
G36*
X29091726Y-20957466D02*
G01*
X29098633Y-20963165D01*
X29100000Y-20968653D01*
X29100000Y-21251346D01*
X29096573Y-21259619D01*
X29091726Y-21262533D01*
X28544079Y-21430252D01*
X28535165Y-21429398D01*
X28529855Y-21423571D01*
X28400880Y-21114506D01*
X28400857Y-21105551D01*
X28400880Y-21105494D01*
X28461596Y-20960000D01*
X28529855Y-20796427D01*
X28536204Y-20790113D01*
X28544077Y-20789747D01*
X29091726Y-20957466D01*
G37*
%TD.AperFunction*%
%TD*%
%TA.AperFunction,Conductor*%
%TO.N,/CTS0{slash}SCK{slash}TCK*%
G36*
X22087232Y-16269604D02*
G01*
X22448584Y-16454134D01*
X22454393Y-16460948D01*
X22454088Y-16468991D01*
X22365064Y-16686176D01*
X22358755Y-16692531D01*
X22358676Y-16692564D01*
X22141491Y-16781588D01*
X22132536Y-16781555D01*
X22126634Y-16776084D01*
X21942104Y-16414733D01*
X21941394Y-16405808D01*
X21944250Y-16401142D01*
X22073641Y-16271751D01*
X22081913Y-16268325D01*
X22087232Y-16269604D01*
G37*
%TD.AperFunction*%
%TD*%
%TA.AperFunction,Conductor*%
%TO.N,/JTAG_TDO*%
G36*
X8114489Y-1350865D02*
G01*
X8883724Y-1670472D01*
X8890049Y-1676811D01*
X8890040Y-1685766D01*
X8889706Y-1686497D01*
X8213230Y-3043520D01*
X8206472Y-3049395D01*
X8202759Y-3050000D01*
X8017241Y-3050000D01*
X8008968Y-3046573D01*
X8006770Y-3043520D01*
X7330293Y-1686497D01*
X7329669Y-1677564D01*
X7335544Y-1670806D01*
X7336261Y-1670478D01*
X8105511Y-1350864D01*
X8114466Y-1350856D01*
X8114489Y-1350865D01*
G37*
%TD.AperFunction*%
%TD*%
%TA.AperFunction,Conductor*%
%TO.N,Net-(USB1-CC2)*%
G36*
X11929764Y-15323427D02*
G01*
X11932622Y-15328095D01*
X12057652Y-15714087D01*
X12056941Y-15723013D01*
X12051038Y-15728485D01*
X11834517Y-15819109D01*
X11825563Y-15819142D01*
X11825483Y-15819109D01*
X11608961Y-15728485D01*
X11602652Y-15722129D01*
X11602347Y-15714088D01*
X11727378Y-15328095D01*
X11733188Y-15321280D01*
X11738509Y-15320000D01*
X11921491Y-15320000D01*
X11929764Y-15323427D01*
G37*
%TD.AperFunction*%
%TD*%
%TA.AperFunction,Conductor*%
%TO.N,/RXD1*%
G36*
X30087062Y-19643933D02*
G01*
X30216467Y-19773338D01*
X30219894Y-19781611D01*
X30218787Y-19786580D01*
X30045698Y-20155591D01*
X30039082Y-20161625D01*
X30030668Y-20161448D01*
X29813824Y-20072564D01*
X29807468Y-20066255D01*
X29807435Y-20066175D01*
X29718290Y-19848693D01*
X29718323Y-19839739D01*
X29723482Y-19834002D01*
X30073160Y-19641950D01*
X30082058Y-19640972D01*
X30087062Y-19643933D01*
G37*
%TD.AperFunction*%
%TD*%
%TA.AperFunction,Conductor*%
%TO.N,/VDD_3.3V*%
G36*
X48734489Y-1350865D02*
G01*
X49504061Y-1670612D01*
X49510386Y-1676951D01*
X49510377Y-1685906D01*
X49510193Y-1686325D01*
X48883139Y-3043208D01*
X48876557Y-3049281D01*
X48872518Y-3050000D01*
X48587482Y-3050000D01*
X48579209Y-3046573D01*
X48576861Y-3043208D01*
X47949806Y-1686325D01*
X47949446Y-1677378D01*
X47955519Y-1670796D01*
X47955913Y-1670622D01*
X48725511Y-1350864D01*
X48734466Y-1350856D01*
X48734489Y-1350865D01*
G37*
%TD.AperFunction*%
%TD*%
%TA.AperFunction,Conductor*%
%TO.N,/VDD_5V*%
G36*
X5986649Y-11838418D02*
G01*
X5992968Y-11844763D01*
X5993557Y-11851816D01*
X5832073Y-12560898D01*
X5826895Y-12568204D01*
X5820665Y-12570000D01*
X5339335Y-12570000D01*
X5331062Y-12566573D01*
X5327927Y-12560898D01*
X5166442Y-11851816D01*
X5167946Y-11842988D01*
X5173349Y-11838418D01*
X5575501Y-11670873D01*
X5584452Y-11670855D01*
X5986649Y-11838418D01*
G37*
%TD.AperFunction*%
%TD*%
%TA.AperFunction,Conductor*%
%TO.N,Net-(J6-Pin_1)*%
G36*
X35828859Y-10931752D02*
G01*
X35958247Y-11061140D01*
X35961674Y-11069413D01*
X35960394Y-11074734D01*
X35775866Y-11436083D01*
X35769051Y-11441893D01*
X35761009Y-11441588D01*
X35543822Y-11352563D01*
X35537468Y-11346255D01*
X35448411Y-11128988D01*
X35448444Y-11120036D01*
X35453913Y-11114135D01*
X35815266Y-10929604D01*
X35824191Y-10928894D01*
X35828859Y-10931752D01*
G37*
%TD.AperFunction*%
%TD*%
%TA.AperFunction,Conductor*%
%TO.N,/VDD_3.3V*%
G36*
X18154834Y-17320601D02*
G01*
X18160144Y-17326428D01*
X18289119Y-17635494D01*
X18289142Y-17644449D01*
X18289119Y-17644506D01*
X18160144Y-17953571D01*
X18153795Y-17959886D01*
X18145920Y-17960252D01*
X17598274Y-17792533D01*
X17591367Y-17786834D01*
X17590000Y-17781346D01*
X17590000Y-17498653D01*
X17593427Y-17490380D01*
X17598274Y-17487466D01*
X18145921Y-17319747D01*
X18154834Y-17320601D01*
G37*
%TD.AperFunction*%
%TD*%
%TA.AperFunction,Conductor*%
%TO.N,/CTS1{slash}IO6*%
G36*
X37797737Y-1030101D02*
G01*
X38565511Y-1347146D01*
X38571850Y-1353471D01*
X38571856Y-1353487D01*
X38890736Y-2124313D01*
X38890732Y-2133268D01*
X38884398Y-2139597D01*
X38884226Y-2139667D01*
X37652072Y-2626684D01*
X37647771Y-2627503D01*
X37464396Y-2627503D01*
X37456123Y-2624076D01*
X37452696Y-2615803D01*
X37452943Y-2613411D01*
X37781819Y-1038524D01*
X37786865Y-1031126D01*
X37795664Y-1029463D01*
X37797737Y-1030101D01*
G37*
%TD.AperFunction*%
%TD*%
%TA.AperFunction,Conductor*%
%TO.N,/USB_Data+*%
G36*
X3281038Y-13911514D02*
G01*
X3287347Y-13917870D01*
X3287652Y-13925912D01*
X3162622Y-14311905D01*
X3156812Y-14318720D01*
X3151491Y-14320000D01*
X2968509Y-14320000D01*
X2960236Y-14316573D01*
X2957378Y-14311905D01*
X2832347Y-13925912D01*
X2833058Y-13916986D01*
X2838960Y-13911514D01*
X3055484Y-13820889D01*
X3064437Y-13820857D01*
X3281038Y-13911514D01*
G37*
%TD.AperFunction*%
%TD*%
%TA.AperFunction,Conductor*%
%TO.N,/I2C_SCL*%
G36*
X21592669Y-1029511D02*
G01*
X21598994Y-1035850D01*
X21599275Y-1036603D01*
X21966337Y-2133400D01*
X22080494Y-2474504D01*
X22079870Y-2483437D01*
X22077672Y-2486490D01*
X21946490Y-2617672D01*
X21938217Y-2621099D01*
X21934504Y-2620494D01*
X21524972Y-2483437D01*
X21270235Y-2398184D01*
X20496603Y-2139275D01*
X20489845Y-2133400D01*
X20489221Y-2124467D01*
X20489497Y-2123726D01*
X20807438Y-1353783D01*
X20813759Y-1347448D01*
X21583715Y-1029502D01*
X21592669Y-1029511D01*
G37*
%TD.AperFunction*%
%TD*%
%TA.AperFunction,Conductor*%
%TO.N,/I2C_SDA*%
G36*
X30508988Y-13568410D02*
G01*
X30726177Y-13657436D01*
X30732531Y-13663744D01*
X30732564Y-13663823D01*
X30821588Y-13881008D01*
X30821555Y-13889963D01*
X30816083Y-13895866D01*
X30454734Y-14080394D01*
X30445808Y-14081105D01*
X30441140Y-14078247D01*
X30311752Y-13948859D01*
X30308325Y-13940586D01*
X30309604Y-13935268D01*
X30494135Y-13573914D01*
X30500948Y-13568106D01*
X30508988Y-13568410D01*
G37*
%TD.AperFunction*%
%TD*%
%TA.AperFunction,Conductor*%
%TO.N,Net-(J5-Pin_1)*%
G36*
X43356939Y-10701931D02*
G01*
X44192326Y-11536336D01*
X44195758Y-11544607D01*
X44192336Y-11552882D01*
X44191941Y-11553259D01*
X43358162Y-12313532D01*
X43349740Y-12316575D01*
X43342100Y-12313253D01*
X42503521Y-11493442D01*
X42500001Y-11485208D01*
X42500000Y-11485076D01*
X42500000Y-11296092D01*
X42503427Y-11287819D01*
X42504990Y-11286507D01*
X43341964Y-10700624D01*
X43350706Y-10698688D01*
X43356939Y-10701931D01*
G37*
%TD.AperFunction*%
%TD*%
%TA.AperFunction,Conductor*%
%TO.N,/VDD_5V*%
G36*
X5828938Y-15573427D02*
G01*
X5832073Y-15579102D01*
X5993557Y-16288183D01*
X5992053Y-16297011D01*
X5986649Y-16301581D01*
X5584500Y-16469125D01*
X5575545Y-16469144D01*
X5575500Y-16469125D01*
X5173350Y-16301581D01*
X5167031Y-16295236D01*
X5166442Y-16288183D01*
X5327927Y-15579102D01*
X5333105Y-15571796D01*
X5339335Y-15570000D01*
X5820665Y-15570000D01*
X5828938Y-15573427D01*
G37*
%TD.AperFunction*%
%TD*%
%TA.AperFunction,Conductor*%
%TO.N,/VDD_3.3V*%
G36*
X28404478Y-21110868D02*
G01*
X28713795Y-21239948D01*
X28720110Y-21246297D01*
X28720552Y-21253914D01*
X28567400Y-21798484D01*
X28561861Y-21805520D01*
X28556137Y-21807016D01*
X28273424Y-21807016D01*
X28265151Y-21803589D01*
X28262328Y-21799028D01*
X28080094Y-21254258D01*
X28080720Y-21245325D01*
X28086683Y-21239748D01*
X28395494Y-21110879D01*
X28404449Y-21110857D01*
X28404478Y-21110868D01*
G37*
%TD.AperFunction*%
%TD*%
%TA.AperFunction,Conductor*%
%TO.N,Net-(J6-Pin_1)*%
G36*
X46186505Y-10026004D02*
G01*
X47900662Y-10690676D01*
X47907137Y-10696862D01*
X47907341Y-10705815D01*
X47907246Y-10706052D01*
X47562292Y-11541215D01*
X47555966Y-11547553D01*
X47555945Y-11547562D01*
X46720782Y-11892516D01*
X46711827Y-11892507D01*
X46705501Y-11886169D01*
X46705422Y-11885972D01*
X46040735Y-10171777D01*
X46040939Y-10162827D01*
X46043368Y-10159280D01*
X46174008Y-10028640D01*
X46182280Y-10025214D01*
X46186505Y-10026004D01*
G37*
%TD.AperFunction*%
%TD*%
%TA.AperFunction,Conductor*%
%TO.N,/I2C_SCL*%
G36*
X31148544Y-14268228D02*
G01*
X31366175Y-14357435D01*
X31372531Y-14363744D01*
X31372564Y-14363824D01*
X31461377Y-14580495D01*
X31461344Y-14589449D01*
X31455343Y-14595606D01*
X31082501Y-14762976D01*
X31073550Y-14763238D01*
X31069436Y-14760575D01*
X30940029Y-14631168D01*
X30936602Y-14622895D01*
X30938134Y-14617107D01*
X31133941Y-14273264D01*
X31141013Y-14267772D01*
X31148544Y-14268228D01*
G37*
%TD.AperFunction*%
%TD*%
%TA.AperFunction,Conductor*%
%TO.N,/DTR0{slash}IO5*%
G36*
X19628943Y-16254324D02*
G01*
X19721763Y-16309124D01*
X19966954Y-16453883D01*
X19972336Y-16461040D01*
X19971832Y-16468396D01*
X19882564Y-16686176D01*
X19876255Y-16692531D01*
X19876175Y-16692564D01*
X19659679Y-16781305D01*
X19650725Y-16781272D01*
X19644490Y-16775093D01*
X19609058Y-16692531D01*
X19482838Y-16398416D01*
X19482726Y-16389463D01*
X19485316Y-16385532D01*
X19614723Y-16256125D01*
X19622995Y-16252699D01*
X19628943Y-16254324D01*
G37*
%TD.AperFunction*%
%TD*%
%TA.AperFunction,Conductor*%
%TO.N,/DTR1*%
G36*
X34459764Y-16343427D02*
G01*
X34462622Y-16348095D01*
X34587652Y-16734087D01*
X34586941Y-16743013D01*
X34581038Y-16748485D01*
X34364517Y-16839109D01*
X34355563Y-16839142D01*
X34355483Y-16839109D01*
X34138961Y-16748485D01*
X34132652Y-16742129D01*
X34132347Y-16734088D01*
X34257378Y-16348095D01*
X34263188Y-16341280D01*
X34268509Y-16340000D01*
X34451491Y-16340000D01*
X34459764Y-16343427D01*
G37*
%TD.AperFunction*%
%TD*%
%TA.AperFunction,Conductor*%
%TO.N,/JTAG_TDI*%
G36*
X6351503Y-1029992D02*
G01*
X6357828Y-1036331D01*
X6358412Y-1038155D01*
X6711604Y-2561723D01*
X6710134Y-2570556D01*
X6708479Y-2572638D01*
X6577272Y-2703845D01*
X6568999Y-2707272D01*
X6564353Y-2706310D01*
X5255278Y-2139867D01*
X5249046Y-2133436D01*
X5249109Y-2124664D01*
X5567438Y-1353783D01*
X5573759Y-1347448D01*
X6342550Y-1029983D01*
X6351503Y-1029992D01*
G37*
%TD.AperFunction*%
%TD*%
%TA.AperFunction,Conductor*%
%TO.N,/RTS1{slash}IO7*%
G36*
X31688859Y-9261252D02*
G01*
X31818247Y-9390640D01*
X31821674Y-9398913D01*
X31820394Y-9404234D01*
X31635866Y-9765583D01*
X31629051Y-9771393D01*
X31621009Y-9771088D01*
X31403822Y-9682063D01*
X31397468Y-9675755D01*
X31308411Y-9458488D01*
X31308444Y-9449536D01*
X31313913Y-9443635D01*
X31675266Y-9259104D01*
X31684191Y-9258394D01*
X31688859Y-9261252D01*
G37*
%TD.AperFunction*%
%TD*%
%TA.AperFunction,Conductor*%
%TO.N,Net-(USB1-CC2)*%
G36*
X12051038Y-12911514D02*
G01*
X12057347Y-12917870D01*
X12057652Y-12925912D01*
X11932622Y-13311905D01*
X11926812Y-13318720D01*
X11921491Y-13320000D01*
X11738509Y-13320000D01*
X11730236Y-13316573D01*
X11727378Y-13311905D01*
X11602347Y-12925912D01*
X11603058Y-12916986D01*
X11608960Y-12911514D01*
X11825484Y-12820889D01*
X11834437Y-12820857D01*
X12051038Y-12911514D01*
G37*
%TD.AperFunction*%
%TD*%
%TA.AperFunction,Conductor*%
%TO.N,/I2C_SCL*%
G36*
X31469764Y-13863427D02*
G01*
X31472622Y-13868095D01*
X31597652Y-14254087D01*
X31596941Y-14263013D01*
X31591038Y-14268485D01*
X31374517Y-14359109D01*
X31365563Y-14359142D01*
X31365483Y-14359109D01*
X31148961Y-14268485D01*
X31142652Y-14262129D01*
X31142347Y-14254088D01*
X31267378Y-13868095D01*
X31273188Y-13861280D01*
X31278509Y-13860000D01*
X31461491Y-13860000D01*
X31469764Y-13863427D01*
G37*
%TD.AperFunction*%
%TD*%
%TA.AperFunction,Conductor*%
%TO.N,/I2C_SDA*%
G36*
X19053323Y-1029241D02*
G01*
X19059648Y-1035580D01*
X19059695Y-1035695D01*
X19600003Y-2384287D01*
X19599899Y-2393241D01*
X19597415Y-2396911D01*
X19466199Y-2528127D01*
X19457926Y-2531554D01*
X19454960Y-2531172D01*
X18894600Y-2384287D01*
X17957680Y-2138695D01*
X17950546Y-2133282D01*
X17949329Y-2124410D01*
X17949828Y-2122925D01*
X18267438Y-1353783D01*
X18273759Y-1347448D01*
X19044369Y-1029232D01*
X19053323Y-1029241D01*
G37*
%TD.AperFunction*%
%TD*%
%TA.AperFunction,Conductor*%
%TO.N,/VDD_3.3V*%
G36*
X24544478Y-12000868D02*
G01*
X24758891Y-12090344D01*
X24853571Y-12129855D01*
X24859886Y-12136204D01*
X24860252Y-12144079D01*
X24692534Y-12691726D01*
X24686835Y-12698633D01*
X24681347Y-12700000D01*
X24398653Y-12700000D01*
X24390380Y-12696573D01*
X24387466Y-12691726D01*
X24219747Y-12144079D01*
X24220601Y-12135165D01*
X24226427Y-12129855D01*
X24535494Y-12000879D01*
X24544449Y-12000857D01*
X24544478Y-12000868D01*
G37*
%TD.AperFunction*%
%TD*%
%TA.AperFunction,Conductor*%
%TO.N,/RXD1*%
G36*
X42876282Y-1029501D02*
G01*
X43646215Y-1347438D01*
X43652552Y-1353761D01*
X43652562Y-1353785D01*
X43970497Y-2123714D01*
X43970488Y-2132669D01*
X43964149Y-2138994D01*
X43963396Y-2139275D01*
X42525495Y-2620494D01*
X42516562Y-2619870D01*
X42513509Y-2617672D01*
X42382327Y-2486490D01*
X42378900Y-2478217D01*
X42379503Y-2474510D01*
X42860725Y-1036601D01*
X42866599Y-1029845D01*
X42875532Y-1029221D01*
X42876282Y-1029501D01*
G37*
%TD.AperFunction*%
%TD*%
%TA.AperFunction,Conductor*%
%TO.N,/DCD0{slash}IO4*%
G36*
X28689846Y-12556225D02*
G01*
X28695318Y-12562128D01*
X28785942Y-12778650D01*
X28785975Y-12787604D01*
X28785942Y-12787684D01*
X28695318Y-13004205D01*
X28688962Y-13010514D01*
X28680920Y-13010819D01*
X28294928Y-12885789D01*
X28288113Y-12879979D01*
X28286833Y-12874658D01*
X28286833Y-12691675D01*
X28290260Y-12683402D01*
X28294924Y-12680545D01*
X28680921Y-12555514D01*
X28689846Y-12556225D01*
G37*
%TD.AperFunction*%
%TD*%
%TA.AperFunction,Conductor*%
%TO.N,/VDD_3.3V*%
G36*
X18981726Y-17487466D02*
G01*
X18988633Y-17493165D01*
X18990000Y-17498653D01*
X18990000Y-17781346D01*
X18986573Y-17789619D01*
X18981726Y-17792533D01*
X18434079Y-17960252D01*
X18425165Y-17959398D01*
X18419855Y-17953571D01*
X18290880Y-17644506D01*
X18290857Y-17635551D01*
X18290880Y-17635494D01*
X18351596Y-17490000D01*
X18419855Y-17326427D01*
X18426204Y-17320113D01*
X18434077Y-17319747D01*
X18981726Y-17487466D01*
G37*
%TD.AperFunction*%
%TD*%
%TA.AperFunction,Conductor*%
%TO.N,/DTR0{slash}IO5*%
G36*
X3812669Y-1029511D02*
G01*
X3818994Y-1035850D01*
X3819275Y-1036603D01*
X4186337Y-2133400D01*
X4300494Y-2474504D01*
X4299870Y-2483437D01*
X4297672Y-2486490D01*
X4166490Y-2617672D01*
X4158217Y-2621099D01*
X4154504Y-2620494D01*
X3744972Y-2483437D01*
X3490235Y-2398184D01*
X2716603Y-2139275D01*
X2709845Y-2133400D01*
X2709221Y-2124467D01*
X2709497Y-2123726D01*
X3027438Y-1353783D01*
X3033759Y-1347448D01*
X3803715Y-1029502D01*
X3812669Y-1029511D01*
G37*
%TD.AperFunction*%
%TD*%
%TA.AperFunction,Conductor*%
%TO.N,/JTAG_TDO*%
G36*
X21259732Y-16269604D02*
G01*
X21621084Y-16454134D01*
X21626893Y-16460948D01*
X21626588Y-16468991D01*
X21537564Y-16686176D01*
X21531255Y-16692531D01*
X21531176Y-16692564D01*
X21313991Y-16781588D01*
X21305036Y-16781555D01*
X21299134Y-16776084D01*
X21114604Y-16414733D01*
X21113894Y-16405808D01*
X21116750Y-16401142D01*
X21246141Y-16271751D01*
X21254413Y-16268325D01*
X21259732Y-16269604D01*
G37*
%TD.AperFunction*%
%TD*%
%TA.AperFunction,Conductor*%
%TO.N,/DSR0{slash}CS0{slash}TMS*%
G36*
X13194489Y-1350865D02*
G01*
X13963724Y-1670472D01*
X13970049Y-1676811D01*
X13970040Y-1685766D01*
X13969706Y-1686497D01*
X13293230Y-3043520D01*
X13286472Y-3049395D01*
X13282759Y-3050000D01*
X13097241Y-3050000D01*
X13088968Y-3046573D01*
X13086770Y-3043520D01*
X12410293Y-1686497D01*
X12409669Y-1677564D01*
X12415544Y-1670806D01*
X12416261Y-1670478D01*
X13185511Y-1350864D01*
X13194466Y-1350856D01*
X13194489Y-1350865D01*
G37*
%TD.AperFunction*%
%TD*%
%TA.AperFunction,Conductor*%
%TO.N,/TXD1*%
G36*
X40336282Y-1029501D02*
G01*
X41106215Y-1347438D01*
X41112552Y-1353761D01*
X41112562Y-1353785D01*
X41430497Y-2123714D01*
X41430488Y-2132669D01*
X41424149Y-2138994D01*
X41423396Y-2139275D01*
X39985495Y-2620494D01*
X39976562Y-2619870D01*
X39973509Y-2617672D01*
X39842327Y-2486490D01*
X39838900Y-2478217D01*
X39839503Y-2474510D01*
X40320725Y-1036601D01*
X40326599Y-1029845D01*
X40335532Y-1029221D01*
X40336282Y-1029501D01*
G37*
%TD.AperFunction*%
%TD*%
%TA.AperFunction,Conductor*%
%TO.N,/CTS1{slash}IO6*%
G36*
X28592758Y-19657641D02*
G01*
X28722157Y-19787040D01*
X28725584Y-19795313D01*
X28724223Y-19800789D01*
X28535933Y-20156298D01*
X28529033Y-20162005D01*
X28521157Y-20161648D01*
X28303824Y-20072564D01*
X28297468Y-20066255D01*
X28297435Y-20066175D01*
X28208481Y-19849160D01*
X28208514Y-19840206D01*
X28214161Y-19834215D01*
X28579342Y-19655405D01*
X28588277Y-19654846D01*
X28592758Y-19657641D01*
G37*
%TD.AperFunction*%
%TD*%
%TA.AperFunction,Conductor*%
%TO.N,/RTS1{slash}IO7*%
G36*
X36034489Y-1350865D02*
G01*
X36803724Y-1670472D01*
X36810049Y-1676811D01*
X36810040Y-1685766D01*
X36809706Y-1686497D01*
X36133230Y-3043520D01*
X36126472Y-3049395D01*
X36122759Y-3050000D01*
X35937241Y-3050000D01*
X35928968Y-3046573D01*
X35926770Y-3043520D01*
X35250293Y-1686497D01*
X35249669Y-1677564D01*
X35255544Y-1670806D01*
X35256261Y-1670478D01*
X36025511Y-1350864D01*
X36034466Y-1350856D01*
X36034489Y-1350865D01*
G37*
%TD.AperFunction*%
%TD*%
%TA.AperFunction,Conductor*%
%TO.N,/VDD_3.3V*%
G36*
X29133308Y-13537024D02*
G01*
X29428523Y-13658395D01*
X29432371Y-13660967D01*
X29667469Y-13897412D01*
X29670872Y-13905694D01*
X29667421Y-13913958D01*
X29665677Y-13915386D01*
X29103027Y-14291747D01*
X29094245Y-14293498D01*
X29088249Y-14290295D01*
X28888367Y-14090413D01*
X28884940Y-14082140D01*
X28885776Y-14077797D01*
X29102253Y-13537023D01*
X29108509Y-13530617D01*
X29117463Y-13530510D01*
X29133308Y-13537024D01*
G37*
%TD.AperFunction*%
%TD*%
%TA.AperFunction,Conductor*%
%TO.N,/DCD0{slash}IO4*%
G36*
X16512755Y-1029475D02*
G01*
X16519080Y-1035814D01*
X16519333Y-1036484D01*
X17008434Y-2462475D01*
X17007877Y-2471413D01*
X17005640Y-2474544D01*
X16874450Y-2605734D01*
X16866177Y-2609161D01*
X16862564Y-2608589D01*
X15416746Y-2139202D01*
X15409936Y-2133388D01*
X15409231Y-2124461D01*
X15409534Y-2123636D01*
X15727438Y-1353783D01*
X15733759Y-1347448D01*
X16503802Y-1029466D01*
X16512755Y-1029475D01*
G37*
%TD.AperFunction*%
%TD*%
%TA.AperFunction,Conductor*%
%TO.N,/TXD1*%
G36*
X29322959Y-19647842D02*
G01*
X29452358Y-19777241D01*
X29455785Y-19785514D01*
X29454593Y-19790659D01*
X29275784Y-20155837D01*
X29269068Y-20161760D01*
X29260839Y-20161518D01*
X29043824Y-20072564D01*
X29037468Y-20066255D01*
X29037435Y-20066175D01*
X28948351Y-19848842D01*
X28948384Y-19839888D01*
X28953701Y-19834066D01*
X29309210Y-19645775D01*
X29318125Y-19644932D01*
X29322959Y-19647842D01*
G37*
%TD.AperFunction*%
%TD*%
%TA.AperFunction,Conductor*%
%TO.N,/I2C_SDA*%
G36*
X30454732Y-13239604D02*
G01*
X30816084Y-13424134D01*
X30821893Y-13430948D01*
X30821588Y-13438991D01*
X30732564Y-13656176D01*
X30726255Y-13662531D01*
X30726176Y-13662564D01*
X30508991Y-13751588D01*
X30500036Y-13751555D01*
X30494134Y-13746084D01*
X30309604Y-13384733D01*
X30308894Y-13375808D01*
X30311750Y-13371142D01*
X30441141Y-13241751D01*
X30449413Y-13238325D01*
X30454732Y-13239604D01*
G37*
%TD.AperFunction*%
%TD*%
%TA.AperFunction,Conductor*%
%TO.N,/VDD_3.3V*%
G36*
X28567751Y-25053427D02*
G01*
X28568510Y-25054262D01*
X29258251Y-25891805D01*
X29260865Y-25900370D01*
X29257497Y-25907511D01*
X28423278Y-26742712D01*
X28415007Y-26746144D01*
X28406732Y-26742722D01*
X28406722Y-26742712D01*
X27572502Y-25907511D01*
X27569080Y-25899236D01*
X27571747Y-25891806D01*
X28261490Y-25054261D01*
X28269395Y-25050054D01*
X28270522Y-25050000D01*
X28559478Y-25050000D01*
X28567751Y-25053427D01*
G37*
%TD.AperFunction*%
%TD*%
M02*
