%TF.GenerationSoftware,KiCad,Pcbnew,7.0.10*%
%TF.CreationDate,2024-01-31T17:31:42+08:00*%
%TF.ProjectId,UINIO-USB-Serial,55494e49-4f2d-4555-9342-2d5365726961,Version 1.0.0*%
%TF.SameCoordinates,PX7ba4d50PY51e45b0*%
%TF.FileFunction,Soldermask,Bot*%
%TF.FilePolarity,Negative*%
%FSLAX46Y46*%
G04 Gerber Fmt 4.6, Leading zero omitted, Abs format (unit mm)*
G04 Created by KiCad (PCBNEW 7.0.10) date 2024-01-31 17:31:42*
%MOMM*%
%LPD*%
G01*
G04 APERTURE LIST*
%ADD10R,1.700000X1.700000*%
%ADD11O,1.700000X1.700000*%
%ADD12C,1.200000*%
%ADD13C,0.650000*%
%ADD14O,2.100000X1.000000*%
%ADD15O,1.900000X1.000000*%
G04 APERTURE END LIST*
D10*
%TO.C,J2*%
X490000Y-1350000D03*
D11*
X3030000Y-1350000D03*
X5570000Y-1350000D03*
X8110000Y-1350000D03*
X10650000Y-1350000D03*
X13190000Y-1350000D03*
X15730000Y-1350000D03*
X18270000Y-1350000D03*
X20810000Y-1350000D03*
X23350000Y-1350000D03*
%TD*%
D10*
%TO.C,J6*%
X47559730Y-11545000D03*
D11*
X47559730Y-14085000D03*
X47559730Y-16625000D03*
%TD*%
D12*
%TO.C,HOLE\u002A\u002A*%
X-1100000Y-6930000D03*
%TD*%
D10*
%TO.C,J3*%
X28415000Y-26750000D03*
D11*
X25875000Y-26750000D03*
X23335000Y-26750000D03*
X20795000Y-26750000D03*
%TD*%
D10*
%TO.C,J7*%
X15740000Y-26750000D03*
D11*
X13200000Y-26750000D03*
X10660000Y-26750000D03*
X8120000Y-26750000D03*
X5580000Y-26750000D03*
X3040000Y-26750000D03*
X500000Y-26750000D03*
%TD*%
D10*
%TO.C,J4*%
X33490000Y-1350000D03*
D11*
X36030000Y-1350000D03*
X38570000Y-1350000D03*
X41110000Y-1350000D03*
X43650000Y-1350000D03*
X46190000Y-1350000D03*
X48730000Y-1350000D03*
%TD*%
D13*
%TO.C,USB1*%
X2680000Y-11180000D03*
X2680000Y-16960000D03*
D14*
X3180000Y-9745000D03*
X3180000Y-18395000D03*
D15*
X-1020000Y-9745000D03*
X-1020000Y-18395000D03*
%TD*%
D10*
%TO.C,J1*%
X33490000Y-26750000D03*
D11*
X36030000Y-26750000D03*
X38570000Y-26750000D03*
X41110000Y-26750000D03*
X43650000Y-26750000D03*
X46190000Y-26750000D03*
X48730000Y-26750000D03*
%TD*%
D10*
%TO.C,J5*%
X44200000Y-11545000D03*
D11*
X44200000Y-14085000D03*
X44200000Y-16625000D03*
%TD*%
D12*
%TO.C,HOLE\u002A\u002A*%
X50460000Y-21230000D03*
%TD*%
%TO.C,HOLE\u002A\u002A*%
X50460000Y-6930000D03*
%TD*%
%TO.C,HOLE\u002A\u002A*%
X-1090000Y-21230000D03*
%TD*%
%TO.C,HOLE\u002A\u002A*%
X28415000Y-1350000D03*
%TD*%
M02*
