M48
; DRILL file {KiCad 7.0.10} date Wed Jan 31 17:31:46 2024
; FORMAT={-:-/ absolute / metric / decimal}
; #@! TF.CreationDate,2024-01-31T17:31:46+08:00
; #@! TF.GenerationSoftware,Kicad,Pcbnew,7.0.10
; #@! TF.FileFunction,MixedPlating,1,2
FMAT,2
METRIC
; #@! TA.AperFunction,Plated,PTH,ViaDrill
T1C0.300
; #@! TA.AperFunction,Plated,PTH,ViaDrill
T2C0.400
; #@! TA.AperFunction,Plated,PTH,ComponentDrill
T3C0.600
; #@! TA.AperFunction,Plated,PTH,ComponentDrill
T4C1.000
; #@! TA.AperFunction,Plated,PTH,ComponentDrill
T5C1.200
; #@! TA.AperFunction,NonPlated,NPTH,ComponentDrill
T6C0.650
%
G90
G05
T1
X3.06Y-13.82
X3.06Y-14.82
X5.63Y-25.12
X8.18Y-25.12
X9.38Y-2.96
X10.26Y-13.34
X10.26Y-15.1
X10.68Y-25.12
X11.83Y-12.82
X11.83Y-15.82
X11.92Y-2.96
X13.23Y-25.12
X14.46Y-2.96
X14.66Y-15.83
X18.29Y-17.64
X19.88Y-16.69
X20.707Y-16.69
X21.535Y-16.69
X22.363Y-16.69
X22.91Y-11.99
X23.19Y-16.69
X23.54Y-3.26
X23.63Y-5.44
X23.63Y-7.96
X24.54Y-12.0
X25.07Y-3.72
X25.07Y-6.91
X25.07Y-9.45
X26.83Y-8.63
X27.1Y-22.92
X28.3Y-20.07
X28.4Y-21.11
X28.787Y-12.783
X29.04Y-20.07
X29.43Y-13.66
X29.81Y-20.07
X30.73Y-13.66
X31.37Y-14.36
X31.4Y-9.679
X32.31Y-11.33
X34.36Y-16.84
X35.01Y-14.65
X35.4Y-9.91
X35.54Y-11.35
X35.55Y-12.13
X35.55Y-19.72
X36.76Y-21.12
X36.85Y-3.02
X37.38Y-25.12
X37.78Y-12.81
X37.89Y-7.43
X38.54Y-3.02
X40.41Y-3.02
X40.41Y-25.12
X40.79Y-10.62
X40.79Y-17.98
X42.94Y-3.02
X42.95Y-25.12
X43.65Y-21.12
X43.82Y-6.23
X45.49Y-25.12
X50.48Y-10.2
X50.48Y-17.89
T2
X5.58Y-11.67
X5.58Y-16.47
T4
X0.49Y-1.35
X0.5Y-26.75
X3.03Y-1.35
X3.04Y-26.75
X5.57Y-1.35
X5.58Y-26.75
X8.11Y-1.35
X8.12Y-26.75
X10.65Y-1.35
X10.66Y-26.75
X13.19Y-1.35
X13.2Y-26.75
X15.73Y-1.35
X15.74Y-26.75
X18.27Y-1.35
X20.795Y-26.75
X20.81Y-1.35
X23.335Y-26.75
X23.35Y-1.35
X25.875Y-26.75
X28.415Y-26.75
X33.49Y-1.35
X33.49Y-26.75
X36.03Y-1.35
X36.03Y-26.75
X38.57Y-1.35
X38.57Y-26.75
X41.11Y-1.35
X41.11Y-26.75
X43.65Y-1.35
X43.65Y-26.75
X44.2Y-11.545
X44.2Y-14.085
X44.2Y-16.625
X46.19Y-1.35
X46.19Y-26.75
X47.56Y-11.545
X47.56Y-14.085
X47.56Y-16.625
X48.73Y-1.35
X48.73Y-26.75
T5
X-1.1Y-6.93
X-1.09Y-21.23
X28.415Y-1.35
X50.46Y-6.93
X50.46Y-21.23
T6
X2.68Y-11.18
X2.68Y-16.96
T3
G00X-0.57Y-9.745
M15
G01X-1.47Y-9.745
M16
G05
G00X-0.57Y-18.395
M15
G01X-1.47Y-18.395
M16
G05
G00X3.78Y-9.745
M15
G01X2.58Y-9.745
M16
G05
G00X3.78Y-18.395
M15
G01X2.58Y-18.395
M16
G05
M30
